WreatheSystem-Regular.sfdir
StartChar: uni0001
Encoding: 1 1 4
Width: 790
Flags: W
LayerCount: 2
Fore
SplineSet
493 187 m 1,0,-1
 582 187 l 1,1,-1
 582 178 l 1,2,3
 566 178 566 178 562 174 c 0,4,5
 555 168 555 168 555 150 c 2,6,-1
 555 101 l 1,7,-1
 632 101 l 1,8,-1
 632 150 l 2,9,10
 632 169 632 169 622 175 c 0,11,12
 619 177 619 177 606 177 c 1,13,-1
 606 187 l 1,14,-1
 693 187 l 1,15,-1
 693 178 l 1,16,17
 672 178 672 178 668 164 c 0,18,19
 667 160 667 160 666.5 154 c 128,-1,20
 666 148 666 148 666.5 140.5 c 128,-1,21
 667 133 667 133 667 130 c 2,22,-1
 667 60 l 2,23,24
 667 57 667 57 666.5 48 c 128,-1,25
 666 39 666 39 666 32 c 128,-1,26
 666 25 666 25 668 20 c 0,27,28
 671 12 671 12 677 10 c 128,-1,29
 683 8 683 8 693 8 c 1,30,-1
 693 -2 l 1,31,-1
 606 -2 l 1,32,-1
 606 7 l 1,33,34
 619 7 619 7 623 10 c 0,35,36
 632 16 632 16 632 36 c 2,37,-1
 632 84 l 1,38,-1
 555 84 l 1,39,-1
 555 34 l 2,40,41
 555 16 555 16 563 10 c 0,42,43
 566 8 566 8 582 8 c 1,44,-1
 582 -2 l 1,45,-1
 493 -2 l 1,46,-1
 493 7 l 1,47,48
 514 7 514 7 518 20 c 0,49,50
 519 24 519 24 519.5 30 c 128,-1,51
 520 36 520 36 519.5 43.5 c 128,-1,52
 519 51 519 51 519 54 c 2,53,-1
 519 126 l 2,54,55
 519 129 519 129 520 138 c 128,-1,56
 521 147 521 147 520.5 154 c 128,-1,57
 520 161 520 161 518 165 c 0,58,59
 515 173 515 173 509.5 175 c 128,-1,60
 504 177 504 177 493 177 c 1,61,-1
 493 187 l 1,0,-1
389 386 m 0,62,63
 365 383 365 383 351 354 c 0,64,65
 329 311 329 311 349 266 c 0,66,67
 366 226 366 226 401 230 c 0,68,69
 425 233 425 233 439 261 c 0,70,71
 461 305 461 305 441 351 c 0,72,73
 434 368 434 368 420 378 c 128,-1,74
 406 388 406 388 389 386 c 0,62,63
386 403 m 0,75,76
 399 405 399 405 417 402 c 0,77,78
 451 396 451 396 469 367 c 128,-1,79
 487 338 487 338 486 305.5 c 128,-1,80
 485 273 485 273 465 245.5 c 128,-1,81
 445 218 445 218 411 213 c 0,82,83
 384 209 384 209 363 217 c 0,84,85
 332 228 332 228 316.5 258.5 c 128,-1,86
 301 289 301 289 306 323 c 128,-1,87
 311 357 311 357 333 380 c 0,88,89
 352 398 352 398 386 403 c 0,75,76
149 492 m 1,90,91
 152 455 152 455 181 447 c 0,92,93
 194 442 194 442 211.5 447 c 128,-1,94
 229 452 229 452 229.5 468.5 c 128,-1,95
 230 485 230 485 207 499 c 0,96,97
 201 503 201 503 186.5 510.5 c 128,-1,98
 172 518 172 518 162 525 c 128,-1,99
 152 532 152 532 144 541 c 0,100,101
 125 566 125 566 140 591 c 128,-1,102
 155 616 155 616 185 619 c 0,103,104
 199 620 199 620 212 616 c 2,105,-1
 219 613 l 2,106,107
 226 610 226 610 229.5 610 c 128,-1,108
 233 610 233 610 234.5 613.5 c 128,-1,109
 236 617 236 617 237 618 c 128,-1,110
 238 619 238 619 250 619 c 1,111,-1
 250 553 l 1,112,-1
 236 553 l 1,113,114
 231 589 231 589 210 598 c 0,115,116
 196 605 196 605 179 598.5 c 128,-1,117
 162 592 162 592 165 574 c 0,118,119
 167 561 167 561 193 545 c 0,120,121
 198 542 198 542 206 538 c 2,122,-1
 218 531 l 2,123,124
 224 528 224 528 231.5 523.5 c 128,-1,125
 239 519 239 519 243 515 c 2,126,-1
 252 506 l 2,127,128
 258 500 258 500 259 494 c 2,129,-1
 262 481 l 2,130,131
 263 473 263 473 259 465 c 0,132,133
 253 444 253 444 232.5 434.5 c 128,-1,134
 212 425 212 425 189 428 c 0,135,136
 186 428 186 428 180 430 c 2,137,-1
 170 434 l 2,138,139
 166 435 166 435 161 435.5 c 128,-1,140
 156 436 156 436 153 434 c 128,-1,141
 150 432 150 432 149 427 c 1,142,-1
 135 427 l 1,143,-1
 135 492 l 1,144,-1
 149 492 l 1,90,91
EndSplineSet
EndChar
StartChar: uni0003
Encoding: 3 3 6
Width: 790
Flags: W
LayerCount: 2
Fore
SplineSet
319 403 m 1,0,-1
 432 403 l 1,1,-1
 461 403 l 1,2,-1
 471 402 l 1,3,-1
 476 389 l 1,4,-1
 486 352 l 1,5,6
 474 352 474 352 473 353 c 2,7,-1
 467 362 l 2,8,9
 459 378 459 378 453 382 c 0,10,11
 449 385 449 385 442 386 c 128,-1,12
 435 387 435 387 425 386 c 128,-1,13
 415 385 415 385 413 385 c 2,14,-1
 413 285 l 2,15,16
 413 281 413 281 412.5 270.5 c 128,-1,17
 412 260 412 260 412 252 c 128,-1,18
 412 244 412 244 414 237 c 0,19,20
 418 223 418 223 439 223 c 1,21,-1
 439 213 l 1,22,-1
 352 213 l 1,23,-1
 352 223 l 1,24,25
 374 223 374 223 377 238 c 0,26,27
 378 244 378 244 378.5 252.5 c 128,-1,28
 379 261 379 261 378.5 271 c 128,-1,29
 378 281 378 281 378 286 c 2,30,-1
 378 385 l 2,31,32
 376 385 376 385 366 386 c 128,-1,33
 356 387 356 387 350 386 c 0,34,35
 343 384 343 384 338 382 c 0,36,37
 331 378 331 378 324 362 c 0,38,39
 319 353 319 353 318 353 c 0,40,41
 317 352 317 352 305 352 c 1,42,-1
 319 403 l 1,0,-1
501 187 m 1,43,-1
 589 187 l 1,44,-1
 589 178 l 1,45,46
 576 178 576 178 574 175 c 0,47,48
 570 170 570 170 576 158 c 0,49,50
 577 157 577 157 586 141.5 c 128,-1,51
 595 126 595 126 598 118 c 1,52,-1
 599 118 l 1,53,54
 602 126 602 126 613 139.5 c 128,-1,55
 624 153 624 153 627 158 c 0,56,57
 634 171 634 171 630 175 c 0,58,59
 629 176 629 176 615 177 c 1,60,-1
 615 187 l 1,61,-1
 691 187 l 1,62,-1
 691 178 l 1,63,64
 682 178 682 178 674 175 c 128,-1,65
 666 172 666 172 659 165 c 128,-1,66
 652 158 652 158 648.5 153.5 c 128,-1,67
 645 149 645 149 638 138 c 2,68,-1
 628 124 l 2,69,70
 627 122 627 122 622 116.5 c 128,-1,71
 617 111 617 111 614 106.5 c 128,-1,72
 611 102 611 102 611 99 c 0,73,74
 611 95 611 95 614 89.5 c 128,-1,75
 617 84 617 84 621.5 77.5 c 128,-1,76
 626 71 626 71 627 70 c 2,77,-1
 649 33 l 2,78,79
 660 14 660 14 668 10 c 0,80,81
 671 9 671 9 686 8 c 1,82,-1
 686 -2 l 1,83,-1
 598 -2 l 1,84,-1
 598 7 l 1,85,86
 610 7 610 7 612 9 c 0,87,88
 618 14 618 14 611 27 c 0,89,90
 610 28 610 28 600.5 43.5 c 128,-1,91
 591 59 591 59 589 67 c 1,92,-1
 587 67 l 1,93,94
 584 58 584 58 572.5 43 c 128,-1,95
 561 28 561 28 560 27 c 0,96,97
 552 15 552 15 558 9 c 0,98,99
 560 8 560 8 571 8 c 1,100,-1
 571 -2 l 1,101,-1
 497 -2 l 1,102,-1
 497 7 l 1,103,104
 506 7 506 7 513.5 10 c 128,-1,105
 521 13 521 13 528 20 c 2,106,-1
 539 32 l 2,107,108
 543 37 543 37 550 48 c 2,109,-1
 560 62 l 2,110,111
 561 64 561 64 565.5 69 c 128,-1,112
 570 74 570 74 573 78 c 128,-1,113
 576 82 576 82 576 85.5 c 128,-1,114
 576 89 576 89 573.5 94 c 128,-1,115
 571 99 571 99 566.5 105.5 c 128,-1,116
 562 112 562 112 561 114 c 2,117,-1
 538 153 l 2,118,119
 528 171 528 171 518 176 c 0,120,121
 515 177 515 177 501 177 c 1,122,-1
 501 187 l 1,43,-1
111 618 m 1,123,-1
 229 618 l 1,124,-1
 258 618 l 1,125,-1
 270 617 l 1,126,-1
 275 603 l 1,127,-1
 286 567 l 1,128,129
 273 567 273 567 271 568 c 2,130,-1
 266 578 l 2,131,132
 256 597 256 597 249 599 c 0,133,134
 246 600 246 600 224 600 c 2,135,-1
 172 600 l 1,136,-1
 172 532 l 1,137,-1
 213 532 l 2,138,139
 229 532 229 532 235 541 c 0,140,141
 238 545 238 545 237 558 c 1,142,-1
 251 558 l 1,143,-1
 251 488 l 1,144,-1
 237 488 l 1,145,146
 237 501 237 501 235 506 c 0,147,148
 229 515 229 515 213 514 c 2,149,-1
 172 514 l 1,150,-1
 172 446 l 1,151,-1
 224 446 l 2,152,153
 246 446 246 446 249 447 c 0,154,155
 257 450 257 450 266 469 c 2,156,-1
 271 478 l 2,157,158
 272 479 272 479 285 479 c 1,159,-1
 274 443 l 1,160,-1
 269 429 l 1,161,-1
 258 428 l 1,162,-1
 228 428 l 1,163,-1
 111 428 l 1,164,-1
 111 438 l 1,165,166
 131 438 131 438 136 451 c 0,167,168
 138 456 138 456 138 462.5 c 128,-1,169
 138 469 138 469 137.5 478.5 c 128,-1,170
 137 488 137 488 137 491 c 2,171,-1
 137 562 l 2,172,173
 137 564 137 564 137.5 572 c 128,-1,174
 138 580 138 580 137.5 585.5 c 128,-1,175
 137 591 137 591 136 595 c 0,176,177
 133 603 133 603 127 605.5 c 128,-1,178
 121 608 121 608 111 608 c 1,179,-1
 111 618 l 1,123,-1
EndSplineSet
EndChar
StartChar: uni0015
Encoding: 21 21 21
Width: 790
Flags: W
LayerCount: 2
Fore
SplineSet
491 187 m 1,0,-1
 579 187 l 1,1,-1
 579 178 l 1,2,3
 566 178 566 178 562 175 c 0,4,5
 553 168 553 168 553 149 c 2,6,-1
 553 101 l 1,7,-1
 602 150 l 1,8,-1
 606 154 l 2,9,10
 610 158 610 158 611.5 160 c 128,-1,11
 613 162 613 162 615.5 165 c 128,-1,12
 618 168 618 168 619 171 c 2,13,-1
 621 177 l 1,14,-1
 606 177 l 1,15,-1
 606 187 l 1,16,-1
 682 187 l 1,17,-1
 682 178 l 1,18,19
 667 178 667 178 657 171.5 c 128,-1,20
 647 165 647 165 633 151 c 2,21,-1
 617 134 l 1,22,-1
 598 114 l 2,23,24
 589 106 589 106 580 99 c 1,25,26
 590 92 590 92 600.5 81.5 c 128,-1,27
 611 71 611 71 623.5 57 c 128,-1,28
 636 43 636 43 642 37 c 2,29,-1
 648 31 l 1,30,-1
 656 24 l 2,31,32
 658 21 658 21 662 17.5 c 128,-1,33
 666 14 666 14 670 12 c 128,-1,34
 674 10 674 10 679 9 c 0,35,36
 681 8 681 8 695 8 c 1,37,-1
 695 -2 l 1,38,-1
 606 -2 l 1,39,-1
 606 7 l 1,40,41
 616 7 616 7 617 9 c 0,42,43
 619 12 619 12 604 27 c 2,44,-1
 572 59 l 2,45,46
 559 72 559 72 557 76 c 1,47,48
 555 74 555 74 554 70 c 128,-1,49
 553 66 553 66 552.5 63.5 c 128,-1,50
 552 61 552 61 552.5 56 c 128,-1,51
 553 51 553 51 553 49 c 128,-1,52
 553 47 553 47 552.5 41 c 128,-1,53
 552 35 552 35 552.5 31.5 c 128,-1,54
 553 28 553 28 554 22.5 c 128,-1,55
 555 17 555 17 557.5 14 c 128,-1,56
 560 11 560 11 564 9 c 0,57,58
 566 8 566 8 579 8 c 1,59,-1
 579 -2 l 1,60,-1
 491 -2 l 1,61,-1
 491 7 l 1,62,63
 512 7 512 7 517 21 c 0,64,65
 518 25 518 25 518.5 31 c 128,-1,66
 519 37 519 37 518.5 44.5 c 128,-1,67
 518 52 518 52 518 55 c 2,68,-1
 518 125 l 2,69,70
 518 128 518 128 518.5 137 c 128,-1,71
 519 146 519 146 518.5 153 c 128,-1,72
 518 160 518 160 516 165 c 0,73,74
 513 173 513 173 507.5 175 c 128,-1,75
 502 177 502 177 491 177 c 1,76,-1
 491 187 l 1,0,-1
387 352 m 1,77,-1
 363 294 l 1,78,-1
 412 294 l 1,79,-1
 388 352 l 1,80,-1
 387 352 l 1,77,-1
287 223 m 1,81,82
 299 223 299 223 307 228.5 c 128,-1,83
 315 234 315 234 318.5 240.5 c 128,-1,84
 322 247 322 247 327 260 c 2,85,-1
 369 359 l 1,86,-1
 382 391 l 2,87,88
 386 402 386 402 389 402 c 0,89,90
 393 405 393 405 397 403.5 c 128,-1,91
 401 402 401 402 403 402 c 128,-1,92
 405 402 405 402 407.5 397.5 c 128,-1,93
 410 393 410 393 411 391.5 c 128,-1,94
 412 390 412 390 414 384.5 c 128,-1,95
 416 379 416 379 417 377 c 2,96,-1
 456 283 l 1,97,-1
 469 252 l 2,98,99
 473 243 473 243 471 242 c 1,100,101
 480 224 480 224 504 223 c 1,102,-1
 504 213 l 1,103,-1
 416 213 l 1,104,-1
 416 223 l 1,105,106
 426 223 426 223 429 224 c 128,-1,107
 432 225 432 225 433 227 c 128,-1,108
 434 229 434 229 434.5 231.5 c 128,-1,109
 435 234 435 234 434.5 237 c 128,-1,110
 434 240 434 240 433 243 c 128,-1,111
 432 246 432 246 431 248.5 c 128,-1,112
 430 251 430 251 428 254 c 2,113,-1
 426 258 l 2,114,115
 426 259 426 259 424.5 263.5 c 128,-1,116
 423 268 423 268 422 270 c 128,-1,117
 421 272 421 272 418 274.5 c 128,-1,118
 415 277 415 277 412 277 c 2,119,-1
 373 277 l 2,120,121
 359 277 359 277 357 276 c 0,122,123
 356 276 356 276 352 264 c 0,124,125
 351 263 351 263 348 258 c 2,126,-1
 344 248 l 2,127,128
 343 245 343 245 342 240.5 c 128,-1,129
 341 236 341 236 342 232 c 128,-1,130
 343 228 343 228 346 225 c 0,131,132
 348 223 348 223 362 223 c 1,133,-1
 362 213 l 1,134,-1
 287 213 l 1,135,-1
 287 223 l 1,81,82
89 618 m 1,136,-1
 127 618 l 1,137,-1
 144 617 l 1,138,-1
 155 606 l 1,139,-1
 178 578 l 1,140,-1
 258 485 l 1,141,-1
 258 562 l 2,142,143
 258 564 258 564 258.5 572.5 c 128,-1,144
 259 581 259 581 258.5 587 c 128,-1,145
 258 593 258 593 255 597 c 0,146,147
 253 602 253 602 248.5 604.5 c 128,-1,148
 244 607 244 607 241 607.5 c 128,-1,149
 238 608 238 608 231 608 c 1,150,-1
 231 618 l 1,151,-1
 306 618 l 1,152,-1
 306 608 l 1,153,154
 295 608 295 608 291 607 c 0,155,156
 287 605 287 605 284 601.5 c 128,-1,157
 281 598 281 598 280 592.5 c 128,-1,158
 279 587 279 587 279 584 c 2,159,-1
 279 573 l 1,160,-1
 279 564 l 1,161,-1
 279 428 l 1,162,163
 260 428 260 428 259 429 c 0,164,165
 255 432 255 432 250 437 c 128,-1,166
 245 442 245 442 240 449 c 2,167,-1
 233 459 l 1,168,-1
 176 525 l 1,169,-1
 166 536 l 2,170,171
 159 543 159 543 154 549 c 128,-1,172
 149 555 149 555 147 561 c 1,173,-1
 146 561 l 1,174,-1
 146 483 l 2,175,176
 146 480 146 480 145.5 474 c 128,-1,177
 145 468 145 468 145 464.5 c 128,-1,178
 145 461 145 461 146 456 c 128,-1,179
 147 451 147 451 149 448 c 0,180,181
 154 439 154 439 172 439 c 1,182,-1
 172 428 l 1,183,-1
 98 428 l 1,184,-1
 98 438 l 1,185,186
 119 438 119 438 123 453 c 0,187,188
 124 456 124 456 124 486 c 2,189,-1
 124 554 l 2,190,191
 124 557 124 557 124.5 565 c 128,-1,192
 125 573 125 573 125 579.5 c 128,-1,193
 125 586 125 586 123 590 c 0,194,195
 114 608 114 608 89 608 c 1,196,-1
 89 618 l 1,136,-1
EndSplineSet
EndChar
StartChar: uni0018
Encoding: 24 24 24
Width: 790
Flags: W
LayerCount: 2
Fore
SplineSet
485 187 m 1,0,-1
 523 187 l 1,1,-1
 539 187 l 1,2,-1
 550 176 l 1,3,-1
 572 150 l 1,4,-1
 653 55 l 1,5,-1
 653 133 l 2,6,7
 653 135 653 135 653.5 143.5 c 128,-1,8
 654 152 654 152 653.5 157.5 c 128,-1,9
 653 163 653 163 651 167 c 128,-1,10
 649 171 649 171 646.5 173 c 128,-1,11
 644 175 644 175 640 176 c 128,-1,12
 636 177 636 177 634 177 c 2,13,-1
 627 177 l 1,14,-1
 627 187 l 1,15,-1
 702 187 l 1,16,-1
 702 178 l 1,17,18
 679 178 679 178 676 163 c 0,19,20
 674 156 674 156 674 147 c 128,-1,21
 674 138 674 138 675 126.5 c 128,-1,22
 676 115 676 115 676 110 c 2,23,-1
 676 -2 l 1,24,25
 657 -2 657 -2 655 -1 c 0,26,27
 651 1 651 1 646.5 6 c 128,-1,28
 642 11 642 11 636.5 18 c 128,-1,29
 631 25 631 25 630 27 c 2,30,-1
 573 93 l 1,31,-1
 562 104 l 1,32,-1
 550 118 l 2,33,34
 545 124 545 124 542 130 c 1,35,-1
 541 130 l 1,36,-1
 541 53 l 2,37,38
 541 51 541 51 540.5 42.5 c 128,-1,39
 540 34 540 34 540.5 28.5 c 128,-1,40
 541 23 541 23 543 19 c 0,41,42
 547 12 547 12 552 10 c 128,-1,43
 557 8 557 8 568 8 c 1,44,-1
 568 -2 l 1,45,-1
 493 -2 l 1,46,-1
 493 7 l 1,47,48
 514 7 514 7 519 22 c 0,49,50
 520 24 520 24 519 55 c 2,51,-1
 519 123 l 2,52,53
 519 126 519 126 520 134.5 c 128,-1,54
 521 143 521 143 520.5 149 c 128,-1,55
 520 155 520 155 519 159 c 0,56,57
 510 177 510 177 485 177 c 1,58,-1
 485 187 l 1,0,-1
388 353 m 1,59,-1
 363 294 l 1,60,-1
 412 294 l 1,61,-1
 397 332 l 1,62,-1
 388 353 l 1,59,-1
287 223 m 1,63,64
 299 223 299 223 307.5 229 c 128,-1,65
 316 235 316 235 319.5 241.5 c 128,-1,66
 323 248 323 248 328 261 c 2,67,-1
 371 362 l 1,68,-1
 383 391 l 2,69,70
 387 401 387 401 389 402 c 0,71,72
 393 404 393 404 396 404 c 128,-1,73
 399 404 399 404 401 403 c 128,-1,74
 403 402 403 402 405 400.5 c 128,-1,75
 407 399 407 399 408.5 395.5 c 128,-1,76
 410 392 410 392 411 390 c 128,-1,77
 412 388 412 388 413.5 384.5 c 128,-1,78
 415 381 415 381 416 379 c 2,79,-1
 457 281 l 1,80,-1
 469 252 l 2,81,82
 473 243 473 243 471 241 c 0,83,84
 480 230 480 230 486 226.5 c 128,-1,85
 492 223 492 223 504 223 c 1,86,-1
 504 213 l 1,87,-1
 416 213 l 1,88,-1
 416 223 l 1,89,90
 427 223 427 223 430 224 c 0,91,92
 433 226 433 226 434.5 229 c 128,-1,93
 436 232 436 232 435 236 c 128,-1,94
 434 240 434 240 433 243 c 128,-1,95
 432 246 432 246 429.5 251 c 128,-1,96
 427 256 427 256 427 257 c 128,-1,97
 427 258 427 258 425 262.5 c 128,-1,98
 423 267 423 267 422 269.5 c 128,-1,99
 421 272 421 272 418.5 274.5 c 128,-1,100
 416 277 416 277 413 277 c 2,101,-1
 374 277 l 2,102,103
 360 277 360 277 358 275.5 c 128,-1,104
 356 274 356 274 352 264 c 0,105,106
 351 262 351 262 349 257 c 2,107,-1
 346 248 l 2,108,109
 344 245 344 245 342.5 240.5 c 128,-1,110
 341 236 341 236 342 232 c 128,-1,111
 343 228 343 228 346 226 c 0,112,113
 348 224 348 224 362 223 c 1,114,-1
 362 213 l 1,115,-1
 287 213 l 1,116,-1
 287 223 l 1,63,64
272 470 m 1,117,118
 277 461 277 461 277 460 c 0,119,120
 277 457 277 457 265 447 c 0,121,122
 244 429 244 429 220 427 c 0,123,124
 185 425 185 425 157 446 c 128,-1,125
 129 467 129 467 121 498 c 128,-1,126
 113 529 113 529 126 564 c 0,127,128
 137 589 137 589 159.5 604 c 128,-1,129
 182 619 182 619 209 619 c 0,130,131
 226 619 226 619 236 616 c 2,132,-1
 241 614 l 2,133,134
 244 612 244 612 247.5 610.5 c 128,-1,135
 251 609 251 609 253 610 c 0,136,137
 259 611 259 611 259 619 c 1,138,-1
 273 619 l 1,139,-1
 273 555 l 1,140,-1
 259 555 l 1,141,142
 259 584 259 584 232.5 596 c 128,-1,143
 206 608 206 608 183 591 c 0,144,145
 160 573 160 573 154.5 540.5 c 128,-1,146
 149 508 149 508 162 483 c 0,147,148
 183 440 183 440 223 445 c 0,149,150
 241 448 241 448 256 458 c 0,151,152
 258 459 258 459 263.5 463.5 c 128,-1,153
 269 468 269 468 272 470 c 1,117,118
EndSplineSet
EndChar
StartChar: uni001B
Encoding: 27 27 27
Width: 790
Flags: W
LayerCount: 2
Fore
SplineSet
347 277 m 1,0,1
 350 240 350 240 379 232 c 0,2,3
 392 227 392 227 409.5 232 c 128,-1,4
 427 237 427 237 427.5 253.5 c 128,-1,5
 428 270 428 270 405 284 c 0,6,7
 399 288 399 288 384.5 295.5 c 128,-1,8
 370 303 370 303 359.5 310 c 128,-1,9
 349 317 349 317 342 325 c 0,10,11
 322 350 322 350 338 375.5 c 128,-1,12
 354 401 354 401 383 404 c 0,13,14
 396 405 396 405 411 400 c 2,15,-1
 418 397 l 2,16,17
 425 394 425 394 428 394 c 128,-1,18
 431 394 431 394 432.5 398 c 128,-1,19
 434 402 434 402 435 403 c 128,-1,20
 436 404 436 404 447 404 c 1,21,-1
 447 338 l 1,22,-1
 434 338 l 1,23,24
 429 374 429 374 408 382 c 0,25,26
 394 389 394 389 377 383 c 128,-1,27
 360 377 360 377 362 359 c 0,28,29
 364 346 364 346 391 330 c 0,30,31
 396 327 396 327 403.5 323 c 128,-1,32
 411 319 411 319 416 316 c 2,33,-1
 428 308 l 2,34,35
 436 304 436 304 440.5 300 c 128,-1,36
 445 296 445 296 450 290 c 128,-1,37
 455 284 455 284 456.5 278.5 c 128,-1,38
 458 273 458 273 459.5 265.5 c 128,-1,39
 461 258 461 258 457 250 c 0,40,41
 451 229 451 229 430.5 219.5 c 128,-1,42
 410 210 410 210 387 213 c 0,43,44
 385 213 385 213 373 217 c 128,-1,45
 361 221 361 221 354.5 220.5 c 128,-1,46
 348 220 348 220 347 212 c 1,47,-1
 333 212 l 1,48,-1
 333 277 l 1,49,-1
 347 277 l 1,0,1
655 189 m 1,50,-1
 669 189 l 1,51,-1
 669 125 l 1,52,-1
 655 125 l 1,53,54
 655 151 655 151 631.5 164 c 128,-1,55
 608 177 608 177 585 165 c 128,-1,56
 562 153 562 153 553 125.5 c 128,-1,57
 544 98 544 98 551 70 c 128,-1,58
 558 42 558 42 577 26 c 0,59,60
 602 6 602 6 636 20 c 0,61,62
 648 25 648 25 657 31 c 0,63,64
 665 38 665 38 666 38 c 128,-1,65
 667 38 667 38 674 30 c 1,66,-1
 674 29 l 1,67,68
 649 4 649 4 626 -1 c 0,69,70
 614 -4 614 -4 597 -2 c 0,71,72
 570 1 570 1 550 17.5 c 128,-1,73
 530 34 530 34 520.5 56 c 128,-1,74
 511 78 511 78 513.5 104.5 c 128,-1,75
 516 131 516 131 532 152 c 0,76,77
 547 172 547 172 571 181.5 c 128,-1,78
 595 191 595 191 621 188 c 0,79,80
 626 187 626 187 634.5 183.5 c 128,-1,81
 643 180 643 180 646 179 c 0,82,83
 650 178 650 178 652.5 181 c 128,-1,84
 655 184 655 184 655 189 c 1,50,-1
111 618 m 1,85,-1
 229 618 l 1,86,-1
 258 618 l 1,87,-1
 270 617 l 1,88,-1
 275 603 l 1,89,-1
 286 567 l 1,90,91
 273 567 273 567 271 568 c 2,92,-1
 266 578 l 2,93,94
 256 597 256 597 249 599 c 0,95,96
 246 600 246 600 224 600 c 2,97,-1
 172 600 l 1,98,-1
 172 532 l 1,99,-1
 213 532 l 2,100,101
 229 532 229 532 235 541 c 0,102,103
 238 545 238 545 237 558 c 1,104,-1
 251 558 l 1,105,-1
 251 488 l 1,106,-1
 237 488 l 1,107,108
 237 501 237 501 235 506 c 0,109,110
 229 515 229 515 213 514 c 2,111,-1
 172 514 l 1,112,-1
 172 446 l 1,113,-1
 224 446 l 2,114,115
 246 446 246 446 249 447 c 0,116,117
 257 450 257 450 266 469 c 2,118,-1
 271 478 l 2,119,120
 272 479 272 479 285 479 c 1,121,-1
 274 443 l 1,122,-1
 269 429 l 1,123,-1
 258 428 l 1,124,-1
 228 428 l 1,125,-1
 111 428 l 1,126,-1
 111 438 l 1,127,128
 131 438 131 438 136 451 c 0,129,130
 138 456 138 456 138 462.5 c 128,-1,131
 138 469 138 469 137.5 478.5 c 128,-1,132
 137 488 137 488 137 491 c 2,133,-1
 137 562 l 2,134,135
 137 564 137 564 137.5 572 c 128,-1,136
 138 580 138 580 137.5 585.5 c 128,-1,137
 137 591 137 591 136 595 c 0,138,139
 133 603 133 603 127 605.5 c 128,-1,140
 121 608 121 608 111 608 c 1,141,-1
 111 618 l 1,85,-1
EndSplineSet
EndChar
StartChar: uni001F
Encoding: 31 31 30
Width: 790
Flags: W
LayerCount: 2
Fore
SplineSet
522 296 m 1,0,-1
 535 296 l 1,1,-1
 535 230 l 1,2,-1
 522 230 l 1,3,4
 515 266 515 266 497 274 c 0,5,6
 483 282 483 282 465 276 c 128,-1,7
 447 270 447 270 450 251 c 0,8,9
 451 245 451 245 456.5 239 c 128,-1,10
 462 233 462 233 464.5 231.5 c 128,-1,11
 467 230 467 230 476 224 c 0,12,13
 481 221 481 221 500 210.5 c 128,-1,14
 519 200 519 200 527.5 194 c 128,-1,15
 536 188 536 188 543 174.5 c 128,-1,16
 550 161 550 161 546 145 c 0,17,18
 541 122 541 122 520.5 112.5 c 128,-1,19
 500 103 500 103 475 105 c 0,20,21
 472 105 472 105 466.5 107 c 128,-1,22
 461 109 461 109 456 110.5 c 128,-1,23
 451 112 451 112 446 112.5 c 128,-1,24
 441 113 441 113 438 111 c 128,-1,25
 435 109 435 109 435 104 c 1,26,-1
 421 104 l 1,27,-1
 421 170 l 1,28,-1
 435 170 l 1,29,30
 436 153 436 153 444.5 140 c 128,-1,31
 453 127 453 127 468 124 c 0,32,33
 485 120 485 120 500.5 125.5 c 128,-1,34
 516 131 516 131 515 148 c 0,35,36
 515 156 515 156 509.5 162.5 c 128,-1,37
 504 169 504 169 499 172 c 128,-1,38
 494 175 494 175 485 181 c 0,39,40
 482 183 482 183 474 187 c 2,41,-1
 463 193 l 2,42,43
 459 195 459 195 452 199.5 c 128,-1,44
 445 204 445 204 441.5 207.5 c 128,-1,45
 438 211 438 211 433 215.5 c 128,-1,46
 428 220 428 220 425.5 225 c 128,-1,47
 423 230 423 230 421 235.5 c 128,-1,48
 419 241 419 241 419.5 247.5 c 128,-1,49
 420 254 420 254 422 261 c 0,50,51
 428 280 428 280 445.5 288.5 c 128,-1,52
 463 297 463 297 484 295 c 0,53,54
 493 294 493 294 507 289 c 0,55,56
 515 286 515 286 517 287 c 0,57,58
 520 288 520 288 522 296 c 1,0,-1
204 510 m 1,59,-1
 293 510 l 1,60,-1
 293 500 l 1,61,62
 272 500 272 500 267 488 c 0,63,64
 265 483 265 483 265 476 c 128,-1,65
 265 469 265 469 265.5 459.5 c 128,-1,66
 266 450 266 450 266 447 c 2,67,-1
 266 430 l 1,68,-1
 266 409 l 2,69,70
 266 402 266 402 267 389 c 128,-1,71
 268 376 268 376 272 369 c 2,72,-1
 280 354 l 2,73,74
 284 345 284 345 293 341.5 c 128,-1,75
 302 338 302 338 313 338 c 128,-1,76
 324 338 324 338 333 343 c 0,77,78
 344 349 344 349 350.5 357.5 c 128,-1,79
 357 366 357 366 359.5 379 c 128,-1,80
 362 392 362 392 362.5 400 c 128,-1,81
 363 408 363 408 362.5 425.5 c 128,-1,82
 362 443 362 443 362 448 c 0,83,84
 362 450 362 450 362.5 460.5 c 128,-1,85
 363 471 363 471 363 477 c 128,-1,86
 363 483 363 483 360 490 c 128,-1,87
 357 497 357 497 351 499 c 0,88,89
 349 500 349 500 336 500 c 1,90,-1
 336 510 l 1,91,-1
 411 510 l 1,92,-1
 411 500 l 1,93,94
 398 500 398 500 396 499 c 0,95,96
 390 496 390 496 387 488 c 128,-1,97
 384 480 384 480 384 473 c 128,-1,98
 384 466 384 466 384.5 454.5 c 128,-1,99
 385 443 385 443 385 441 c 0,100,101
 385 437 385 437 385.5 422.5 c 128,-1,102
 386 408 386 408 385.5 402 c 128,-1,103
 385 396 385 396 383.5 384 c 128,-1,104
 382 372 382 372 379.5 365 c 128,-1,105
 377 358 377 358 371.5 349.5 c 128,-1,106
 366 341 366 341 358 335 c 0,107,108
 349 328 349 328 341 325 c 0,109,110
 329 320 329 320 317 320 c 0,111,112
 286 320 286 320 263.5 333 c 128,-1,113
 241 346 241 346 233 375 c 0,114,115
 230 386 230 386 230 423 c 2,116,-1
 230 473 l 2,117,118
 230 492 230 492 221 498 c 0,119,120
 218 500 218 500 204 500 c 1,121,-1
 204 510 l 1,59,-1
EndSplineSet
EndChar
StartChar: numbersign
Encoding: 35 35 34
Width: 633
Flags: W
LayerCount: 2
Fore
SplineSet
185 226 m 1,0,-1
 412 226 l 1,1,-1
 453 426 l 1,2,-1
 290 426 l 1,3,-1
 229 422 l 1,4,-1
 214 374 l 1,5,-1
 185 226 l 1,0,-1
238 678 m 1,6,-1
 278 678 l 1,7,8
 261 554 261 554 230 470 c 1,9,-1
 397 470 l 1,10,-1
 457 477 l 1,11,-1
 471 522 l 1,12,-1
 494 634 l 1,13,-1
 507 674 l 1,14,-1
 545 678 l 1,15,-1
 501 470 l 1,16,-1
 609 470 l 1,17,-1
 609 426 l 1,18,-1
 494 426 l 1,19,-1
 453 226 l 1,20,-1
 609 226 l 1,21,-1
 609 181 l 1,22,-1
 442 181 l 1,23,-1
 414 32 l 1,24,-1
 399 -19 l 1,25,-1
 360 -23 l 1,26,-1
 401 181 l 1,27,-1
 238 181 l 1,28,-1
 177 175 l 1,29,-1
 163 129 l 1,30,-1
 141 22 l 1,31,-1
 127 -19 l 1,32,-1
 89 -23 l 1,33,-1
 130 181 l 1,34,-1
 26 181 l 1,35,-1
 26 226 l 1,36,-1
 141 226 l 1,37,-1
 181 426 l 1,38,-1
 26 426 l 1,39,-1
 26 470 l 1,40,-1
 193 470 l 1,41,-1
 238 678 l 1,6,-1
EndSplineSet
EndChar
StartChar: asterisk
Encoding: 42 42 41
Width: 336
Flags: W
LayerCount: 2
Fore
SplineSet
152 505 m 0,0,1
 131 500 131 500 119 484.5 c 128,-1,2
 107 469 107 469 108 450.5 c 128,-1,3
 109 432 109 432 116.5 415.5 c 128,-1,4
 124 399 124 399 142.5 390.5 c 128,-1,5
 161 382 161 382 181 388 c 0,6,7
 203 393 203 393 214.5 408.5 c 128,-1,8
 226 424 226 424 225 442 c 128,-1,9
 224 460 224 460 216.5 476.5 c 128,-1,10
 209 493 209 493 191.5 502 c 128,-1,11
 174 511 174 511 152 505 c 0,0,1
160 619 m 1,12,-1
 179 619 l 1,13,-1
 204 515 l 1,14,-1
 315 542 l 1,15,16
 316 528 316 528 306 515 c 128,-1,17
 296 502 296 502 284 493.5 c 128,-1,18
 272 485 272 485 261 472.5 c 128,-1,19
 250 460 250 460 250 446.5 c 128,-1,20
 250 433 250 433 261 420.5 c 128,-1,21
 272 408 272 408 284 399 c 128,-1,22
 296 390 296 390 306 378 c 128,-1,23
 316 366 316 366 315 352 c 1,24,25
 310 353 310 353 272 366 c 128,-1,26
 234 379 234 379 216 374 c 0,27,28
 211 372 211 372 206.5 369.5 c 128,-1,29
 202 367 202 367 199.5 361 c 128,-1,30
 197 355 197 355 194 350 c 128,-1,31
 191 345 191 345 189 337 c 2,32,-1
 186 324 l 2,33,34
 184 318 184 318 182.5 308.5 c 128,-1,35
 181 299 181 299 180.5 295.5 c 128,-1,36
 180 292 180 292 179.5 283.5 c 128,-1,37
 179 275 179 275 179 274 c 2,38,-1
 160 274 l 2,39,40
 160 277 160 277 156.5 297.5 c 128,-1,41
 153 318 153 318 150.5 329.5 c 128,-1,42
 148 341 148 341 141 355 c 128,-1,43
 134 369 134 369 125 373 c 0,44,45
 108 382 108 382 65 367 c 128,-1,46
 22 352 22 352 19 352 c 0,47,48
 17 365 17 365 27 377.5 c 128,-1,49
 37 390 37 390 50 399 c 128,-1,50
 63 408 63 408 73.5 420.5 c 128,-1,51
 84 433 84 433 84 446.5 c 128,-1,52
 84 460 84 460 73 472.5 c 128,-1,53
 62 485 62 485 49.5 493.5 c 128,-1,54
 37 502 37 502 27 514 c 0,55,56
 17 528 17 528 19 542 c 1,57,58
 25 541 25 541 64.5 526 c 128,-1,59
 104 511 104 511 122 518 c 0,60,61
 131 521 131 521 136.5 529.5 c 128,-1,62
 142 538 142 538 146 551 c 128,-1,63
 150 564 150 564 152.5 574.5 c 128,-1,64
 155 585 155 585 157 600 c 128,-1,65
 159 615 159 615 160 619 c 1,12,-1
EndSplineSet
EndChar
StartChar: plus
Encoding: 43 43 42
Width: 351
Flags: W
LayerCount: 2
Fore
SplineSet
315 129 m 1,0,-1
 199 129 l 1,1,-1
 199 0 l 1,2,-1
 158 0 l 1,3,-1
 158 129 l 1,4,-1
 42 129 l 1,5,-1
 42 162 l 1,6,-1
 158 162 l 1,7,-1
 158 280 l 1,8,-1
 199 280 l 1,9,-1
 199 162 l 1,10,-1
 315 162 l 1,11,-1
 315 129 l 1,0,-1
EndSplineSet
EndChar
StartChar: period
Encoding: 46 46 45
Width: 186
Flags: W
LayerCount: 2
Fore
SplineSet
130 68 m 0,0,1
 149 59 149 59 148 57 c 0,2,3
 140 49 140 49 124 28 c 0,4,5
 100 -3 100 -3 98 -8 c 1,6,-1
 68 30 l 1,7,-1
 44 55 l 1,8,9
 72 70 72 70 88 109 c 1,10,11
 93 108 93 108 110.5 89 c 128,-1,12
 128 70 128 70 130 68 c 0,0,1
EndSplineSet
EndChar
StartChar: four
Encoding: 52 52 51
Width: 440
Flags: W
LayerCount: 2
Fore
SplineSet
243 245 m 1,0,-1
 132 117 l 1,1,-1
 77 47 l 1,2,-1
 250 43 l 1,3,4
 250 57 250 57 253.5 104.5 c 128,-1,5
 257 152 257 152 255.5 186.5 c 128,-1,6
 254 221 254 221 243 245 c 1,0,-1
305 370 m 1,7,-1
 320 367 l 1,8,-1
 305 39 l 1,9,10
 318 43 318 43 341.5 45 c 128,-1,11
 365 47 365 47 379.5 54 c 128,-1,12
 394 61 394 61 408 80 c 1,13,-1
 422 76 l 1,14,-1
 384 -1 l 1,15,-1
 301 -1 l 1,16,-1
 305 -115 l 1,17,-1
 305 -152 l 1,18,-1
 231 -210 l 1,19,-1
 220 -203 l 1,20,-1
 220 -199 l 1,21,22
 231 -183 231 -183 238 -164.5 c 128,-1,23
 245 -146 245 -146 247.5 -122 c 128,-1,24
 250 -98 250 -98 250.5 -82.5 c 128,-1,25
 251 -67 251 -67 250.5 -37.5 c 128,-1,26
 250 -8 250 -8 250 3 c 1,27,28
 231 3 231 3 194.5 4 c 128,-1,29
 158 5 158 5 129 5 c 128,-1,30
 100 5 100 5 73 2 c 0,31,32
 70 2 70 2 60.5 0 c 128,-1,33
 51 -2 51 -2 42.5 -3.5 c 128,-1,34
 34 -5 34 -5 26 -4 c 128,-1,35
 18 -3 18 -3 15 2 c 0,36,37
 11 10 11 10 26 28 c 2,38,-1
 84 95 l 1,39,-1
 140 160 l 1,40,-1
 202 230 l 1,41,-1
 253 295 l 2,42,43
 283 334 283 334 305 370 c 1,7,-1
EndSplineSet
EndChar
StartChar: eight
Encoding: 56 56 55
Width: 391
Flags: W
LayerCount: 2
Fore
SplineSet
165 511 m 0,0,1
 128 504 128 504 115 481.5 c 128,-1,2
 102 459 102 459 109.5 432 c 128,-1,3
 117 405 117 405 133 379 c 128,-1,4
 149 353 149 353 169 337 c 0,5,6
 171 336 171 336 177.5 330.5 c 128,-1,7
 184 325 184 325 189 322 c 2,8,-1
 200 314 l 2,9,10
 207 309 207 309 213 307.5 c 128,-1,11
 219 306 219 306 224 307 c 0,12,13
 246 313 246 313 260 337 c 128,-1,14
 274 361 274 361 275 384 c 0,15,16
 278 436 278 436 246.5 478.5 c 128,-1,17
 215 521 215 521 165 511 c 0,0,1
180 253 m 0,18,19
 115 234 115 234 103 166 c 0,20,21
 93 105 93 105 130 55 c 0,22,23
 172 -3 172 -3 238 12 c 0,24,25
 240 13 240 13 243 14 c 0,26,27
 276 23 276 23 289.5 51 c 128,-1,28
 303 79 303 79 298 111 c 128,-1,29
 293 143 293 143 277.5 173.5 c 128,-1,30
 262 204 262 204 243 221 c 0,31,32
 241 223 241 223 235 227.5 c 128,-1,33
 229 232 229 232 227 234 c 128,-1,34
 225 236 225 236 218.5 240.5 c 128,-1,35
 212 245 212 245 209 246 c 2,36,-1
 200 252 l 2,37,38
 193 255 193 255 190 254 c 128,-1,39
 187 253 187 253 180 253 c 0,18,19
169 271 m 1,40,41
 116 307 116 307 99 330 c 0,42,43
 75 362 75 362 73 400 c 0,44,45
 72 439 72 439 86 469 c 0,46,47
 116 535 116 535 189 536 c 0,48,49
 251 536 251 536 294 493 c 0,50,51
 345 441 345 441 316 377 c 0,52,53
 312 369 312 369 308 363 c 0,54,55
 301 353 301 353 291.5 342 c 128,-1,56
 282 331 282 331 277 326 c 128,-1,57
 272 321 272 321 256.5 307.5 c 128,-1,58
 241 294 241 294 239 293 c 1,59,60
 287 265 287 265 321 220 c 0,61,62
 348 181 348 181 352 146 c 0,63,64
 355 120 355 120 344 87 c 0,65,66
 320 16 320 16 239 -2 c 0,67,68
 166 -19 166 -19 103 18 c 0,69,70
 34 57 34 57 43 129 c 0,71,72
 45 144 45 144 52 161 c 0,73,74
 61 187 61 187 85 212 c 0,75,76
 116 247 116 247 169 271 c 1,40,41
EndSplineSet
EndChar
StartChar: equal
Encoding: 61 61 60
Width: 351
Flags: W
LayerCount: 2
Fore
SplineSet
315 206 m 1,0,-1
 42 206 l 1,1,-1
 42 241 l 1,2,-1
 315 241 l 1,3,-1
 315 206 l 1,0,-1
315 114 m 1,4,-1
 42 114 l 1,5,-1
 42 148 l 1,6,-1
 315 148 l 1,7,-1
 315 114 l 1,4,-1
EndSplineSet
EndChar
StartChar: at
Encoding: 64 64 63
Width: 536
Flags: W
LayerCount: 2
Fore
SplineSet
407 33 m 128,-1,1
 410 26 410 26 408 26 c 0,2,3
 349 -12 349 -12 272 -12 c 0,4,5
 174 -12 174 -12 108 42 c 0,6,7
 34 101 34 101 32 208 c 0,8,9
 32 326 32 326 116 405 c 0,10,11
 197 480 197 480 312 480 c 0,12,13
 409 480 409 480 468 422 c 0,14,15
 523 373 523 373 521 295 c 0,16,17
 521 224 521 224 473 176 c 0,18,19
 424 127 424 127 337 125 c 0,20,21
 306 125 306 125 299 132 c 0,22,23
 297 135 297 135 295 146 c 0,24,25
 295 154 295 154 311 201 c 0,26,27
 310 204 310 204 312 206 c 2,28,-1
 309 208 l 1,29,30
 246 124 246 124 205 125 c 0,31,32
 174 125 174 125 172 169 c 0,33,34
 172 224 172 224 216 283 c 1,35,36
 259 350 259 350 312 351 c 0,37,38
 327 351 327 351 347 336 c 1,39,-1
 354 356 l 2,40,41
 356 364 356 364 369 361 c 1,42,43
 386 363 386 363 386 356 c 2,44,-1
 335 185 l 2,45,46
 332 172 332 172 332 162 c 0,47,48
 332 146 332 146 347 147 c 0,49,50
 407 147 407 147 448 187 c 0,51,52
 491 229 491 229 491 292 c 0,53,54
 491 365 491 365 438 411 c 0,55,56
 388 455 388 455 312 454 c 0,57,58
 202 454 202 454 140 380 c 0,59,60
 80 308 80 308 79 208 c 0,61,62
 79 134 79 134 125 78 c 0,63,64
 182 12 182 12 292 13 c 0,65,66
 341 13 341 13 402 38 c 0,67,0
 404 40 404 40 407 33 c 128,-1,1
339 312 m 1,68,69
 339 333 339 333 306 333 c 0,70,71
 269 333 269 333 237 272 c 0,72,73
 211 214 211 214 211 177 c 0,74,75
 211 153 211 153 225 154 c 0,76,77
 241 154 241 154 283 199 c 0,78,79
 297 216 297 216 306 225 c 0,80,81
 321 247 321 247 332 285 c 2,82,-1
 339 312 l 1,68,69
EndSplineSet
EndChar
StartChar: B
Encoding: 66 66 65
Width: 479
Flags: W
LayerCount: 2
Fore
SplineSet
169 302 m 0,0,1
 156 302 156 302 156 292 c 0,2,3
 154 111 154 111 156 70 c 0,4,5
 157 39 157 39 164 34 c 0,6,7
 183 20 183 20 230 20 c 0,8,9
 300 20 300 20 344 53.5 c 128,-1,10
 388 87 388 87 388 148 c 0,11,12
 388 203 388 203 357.5 243.5 c 128,-1,13
 327 284 327 284 271 296 c 0,14,15
 234 303 234 303 169 302 c 0,0,1
200 565 m 0,16,17
 180 565 180 565 172.5 560 c 128,-1,18
 165 555 165 555 162 539 c 0,19,20
 159 526 159 526 156.5 440 c 128,-1,21
 154 354 154 354 156 320 c 1,22,23
 202 320 202 320 229 325 c 0,24,25
 272 332 272 332 300.5 360.5 c 128,-1,26
 329 389 329 389 329 440 c 0,27,28
 329 495 329 495 294 530 c 128,-1,29
 259 565 259 565 200 565 c 0,16,17
32 585 m 0,30,31
 70 578 70 578 121 579 c 0,32,33
 143 579 143 579 178.5 582.5 c 128,-1,34
 214 586 214 586 236 586 c 0,35,36
 300 586 300 586 352 548 c 128,-1,37
 404 510 404 510 404 446 c 0,38,39
 404 399 404 399 369.5 364.5 c 128,-1,40
 335 330 335 330 272 320 c 1,41,42
 349 311 349 311 404.5 268 c 128,-1,43
 460 225 460 225 460 156 c 0,44,45
 460 112 460 112 441.5 79 c 128,-1,46
 423 46 423 46 390 28.5 c 128,-1,47
 357 11 357 11 321.5 3.5 c 128,-1,48
 286 -4 286 -4 246 -4 c 2,49,-1
 124 -1 l 2,50,51
 72 0 72 0 33 -6 c 0,52,53
 25 -7 25 -7 24 3 c 0,54,55
 23 12 23 12 28 11 c 0,56,57
 85 13 85 13 90 72 c 0,58,59
 94 132 94 132 95 288.5 c 128,-1,60
 96 445 96 445 94 489 c 0,61,62
 92 536 92 536 79 550.5 c 128,-1,63
 66 565 66 565 29 569 c 0,64,65
 23 570 23 570 24 578.5 c 128,-1,66
 25 587 25 587 32 585 c 0,30,31
EndSplineSet
EndChar
StartChar: N
Encoding: 78 78 77
Width: 743
Flags: W
LayerCount: 2
Fore
SplineSet
29 593 m 0,0,1
 75 586 75 586 97 586 c 0,2,3
 106 586 106 586 148 590 c 1,4,5
 156 577 156 577 186 544 c 128,-1,6
 216 511 216 511 272 456 c 2,7,-1
 374 358 l 1,8,-1
 500 238 l 1,9,-1
 616 127 l 1,10,11
 617 146 617 146 619 205.5 c 128,-1,12
 621 265 621 265 621.5 285.5 c 128,-1,13
 622 306 622 306 622.5 349.5 c 128,-1,14
 623 393 623 393 621 428.5 c 128,-1,15
 619 464 619 464 615 505 c 0,16,17
 612 543 612 543 596.5 558.5 c 128,-1,18
 581 574 581 574 530 579 c 0,19,20
 524 580 524 580 525 586 c 0,21,22
 525 594 525 594 532 594 c 128,-1,23
 539 594 539 594 583.5 589.5 c 128,-1,24
 628 585 628 585 654 585 c 0,25,26
 674 585 674 585 687.5 585.5 c 128,-1,27
 701 586 701 586 707 587 c 2,28,-1
 714 588 l 2,29,30
 721 588 721 588 720 580 c 0,31,32
 720 571 720 571 713 572 c 0,33,34
 686 571 686 571 671.5 555.5 c 128,-1,35
 657 540 657 540 655 499 c 0,36,37
 646 319 646 319 647 84 c 0,38,39
 647 30 647 30 651 2 c 0,40,41
 652 -10 652 -10 643 -10 c 0,42,43
 636 -10 636 -10 630 1 c 0,44,45
 621 23 621 23 589.5 59.5 c 128,-1,46
 558 96 558 96 503 150 c 2,47,-1
 396 252 l 1,48,-1
 266 372 l 1,49,-1
 138 492 l 1,50,51
 133 198 133 198 137 85 c 0,52,53
 138 53 138 53 151 40 c 0,54,55
 173 18 173 18 239 9 c 0,56,57
 247 8 247 8 247 -1 c 0,58,59
 247 -9 247 -9 238 -9 c 0,60,61
 172 -2 172 -2 128 -2 c 0,62,63
 77 -2 77 -2 45 -8 c 0,64,65
 36 -9 36 -9 35 -2 c 0,66,67
 33 8 33 8 41 9 c 0,68,69
 82 13 82 13 91 25 c 128,-1,70
 100 37 100 37 101 88 c 0,71,72
 101 117 101 117 104 230 c 128,-1,73
 107 343 107 343 106.5 372 c 128,-1,74
 106 401 106 401 103 508 c 1,75,76
 88 568 88 568 30 575 c 0,77,78
 23 576 23 576 23 584.5 c 128,-1,79
 23 593 23 593 29 593 c 0,0,1
EndSplineSet
EndChar
StartChar: S
Encoding: 83 83 82
Width: 444
Flags: W
LayerCount: 2
Fore
SplineSet
239 587 m 0,0,1
 288 587 288 587 343 573 c 0,2,3
 381 563 381 563 397 579 c 0,4,5
 400 582 400 582 405 582 c 0,6,7
 411 582 411 582 409 575 c 2,8,-1
 401 515 l 2,9,10
 401 502 401 502 409 457 c 0,11,12
 410 451 410 451 403.5 450 c 128,-1,13
 397 449 397 449 396 454 c 0,14,15
 387 505 387 505 353 532 c 0,16,17
 303 570 303 570 242 570 c 0,18,19
 183 570 183 570 146.5 539.5 c 128,-1,20
 110 509 110 509 110 461 c 0,21,22
 110 444 110 444 114 429 c 128,-1,23
 118 414 118 414 123.5 404.5 c 128,-1,24
 129 395 129 395 138 386 c 128,-1,25
 147 377 147 377 153 373 c 2,26,-1
 168 363 l 2,27,28
 176 357 176 357 178 356 c 0,29,30
 190 347 190 347 250.5 324.5 c 128,-1,31
 311 302 311 302 328 292 c 0,32,33
 425 238 425 238 425 141 c 0,34,35
 425 73 425 73 368.5 31.5 c 128,-1,36
 312 -10 312 -10 242 -10 c 0,37,38
 191 -10 191 -10 151.5 -4 c 128,-1,39
 112 2 112 2 91.5 7.5 c 128,-1,40
 71 13 71 13 68 13 c 0,41,42
 60 13 60 13 60 0 c 0,43,44
 60 -6 60 -6 52 -4 c 2,45,-1
 48 -4 l 2,46,47
 44 -3 44 -3 43.5 -2 c 128,-1,48
 43 -1 43 -1 43 3 c 0,49,50
 44 13 44 13 43 26 c 0,51,52
 43 52 43 52 19 144 c 0,53,54
 18 151 18 151 24 152 c 0,55,56
 33 155 33 155 34 151 c 0,57,58
 52 86 52 86 78 64 c 0,59,60
 98 47 98 47 147.5 31 c 128,-1,61
 197 15 197 15 251 15 c 128,-1,62
 305 15 305 15 335.5 43.5 c 128,-1,63
 366 72 366 72 366 117 c 0,64,65
 366 154 366 154 353 177 c 128,-1,66
 340 200 340 200 309 222 c 0,67,68
 289 236 289 236 227 260.5 c 128,-1,69
 165 285 165 285 141 300 c 0,70,71
 53 351 53 351 53 426 c 0,72,73
 53 492 53 492 105.5 539.5 c 128,-1,74
 158 587 158 587 239 587 c 0,0,1
EndSplineSet
EndChar
StartChar: backslash
Encoding: 92 92 91
Width: 245
Flags: W
LayerCount: 2
Fore
SplineSet
246 9 m 1,0,-1
 246 8 l 2,1,2
 244 4 244 4 237 0 c 0,3,4
 223 -7 223 -7 216 -8 c 0,5,6
 211 -8 211 -8 212 -3 c 2,7,-1
 2 495 l 1,8,-1
 0 496 l 1,9,10
 0 503 0 503 12 510 c 0,11,12
 25 515 25 515 31 512 c 0,13,14
 36 512 36 512 38 510 c 2,15,-1
 246 9 l 1,0,-1
EndSplineSet
EndChar
StartChar: a
Encoding: 97 97 96
Width: 344
Flags: W
LayerCount: 2
Fore
SplineSet
230 316 m 0,0,1
 241 306 241 306 251 290 c 0,2,3
 261 271 261 271 263 246 c 0,4,5
 265 208 265 208 264 189 c 0,6,7
 264 177 264 177 261.5 144.5 c 128,-1,8
 259 112 259 112 259 95 c 0,9,10
 259 69 259 69 260 56 c 0,11,12
 260 48 260 48 263 40 c 0,13,14
 265 32 265 32 272 26 c 0,15,16
 279 19 279 19 285 18 c 2,17,-1
 291 18 l 2,18,19
 292 18 292 18 298 21 c 2,20,-1
 318 27 l 1,21,-1
 320 27 l 2,22,23
 322 27 322 27 323 26 c 2,24,-1
 325 25 l 1,25,-1
 325 24 l 2,26,27
 326 23 326 23 326 22 c 2,28,-1
 326 18 l 1,29,-1
 326 15 l 1,30,-1
 324 13 l 2,31,32
 322 11 322 11 321 11 c 2,33,-1
 253 -13 l 2,34,35
 249 -15 249 -15 248 -15 c 2,36,-1
 244 -15 l 2,37,38
 243 -15 243 -15 241 -13 c 0,39,40
 235 -10 235 -10 231 -6 c 0,41,42
 222 3 222 3 219 8 c 0,43,44
 214 16 214 16 211 32 c 1,45,46
 178 12 178 12 168 8 c 0,47,48
 145 -3 145 -3 120.5 -9 c 128,-1,49
 96 -15 96 -15 75 -14 c 0,50,51
 66 -14 66 -14 60 -11 c 0,52,53
 51 -7 51 -7 46 -4 c 0,54,55
 40 2 40 2 38 9 c 0,56,57
 36 14 36 14 34 23 c 0,58,59
 31 38 31 38 31 55 c 0,60,61
 31 71 31 71 36 90 c 0,62,63
 38 96 38 96 41 102 c 0,64,65
 43 105 43 105 45 107 c 0,66,67
 46 108 46 108 47.5 109 c 128,-1,68
 49 110 49 110 50 111 c 0,69,70
 79 127 79 127 115 137 c 0,71,72
 146 146 146 146 188 152 c 2,73,-1
 210 155 l 1,74,-1
 212 207 l 2,75,76
 214 233 214 233 212 246 c 0,77,78
 209 267 209 267 197 282 c 0,79,80
 190 290 190 290 177 299 c 0,81,82
 158 312 158 312 147 314 c 0,83,84
 133 316 133 316 119 311 c 0,85,86
 108 306 108 306 100 298 c 0,87,88
 94 291 94 291 95 281 c 0,89,90
 95 271 95 271 96 265 c 1,91,-1
 49 244 l 1,92,-1
 47 252 l 2,93,94
 45 263 45 263 45 268 c 0,95,96
 45 276 45 276 50 284 c 0,97,98
 55 293 55 293 71 302 c 0,99,100
 92 315 92 315 112.5 323.5 c 128,-1,101
 133 332 133 332 163 338 c 2,102,-1
 182 341 l 2,103,104
 188 341 188 341 201 335 c 0,105,106
 220 325 220 325 230 316 c 0,0,1
96 19 m 0,107,108
 105 12 105 12 120 12 c 0,109,110
 132 12 132 12 146 15 c 0,111,112
 159 19 159 19 176 26 c 0,113,114
 197 35 197 35 209 47 c 1,115,116
 207 77 207 77 207 92 c 0,117,118
 207 119 207 119 208 132 c 1,119,120
 200 134 200 134 198 134 c 0,121,122
 188 135 188 135 164 133 c 0,123,124
 134 128 134 128 130 127 c 0,125,126
 108 120 108 120 95 108 c 0,127,128
 86 99 86 99 81 79 c 0,129,130
 77 64 77 64 80 47 c 0,131,132
 81 39 81 39 86 32 c 0,133,134
 92 21 92 21 96 19 c 0,107,108
EndSplineSet
EndChar
StartChar: b
Encoding: 98 98 97
Width: 425
Flags: W
LayerCount: 2
Fore
SplineSet
156 312 m 0,0,1
 215 339 215 339 257 337 c 0,2,3
 289 335 289 335 318 320 c 0,4,5
 344 305 344 305 365 279 c 0,6,7
 385 255 385 255 394 227 c 0,8,9
 412 172 412 172 388 114 c 0,10,11
 369 71 369 71 330 42 c 0,12,13
 270 -4 270 -4 199 -9 c 0,14,15
 173 -11 173 -11 148 -4 c 0,16,17
 106 8 106 8 98 9 c 0,18,19
 78 9 78 9 64 -3 c 0,20,21
 62 -5 62 -5 61 -5 c 128,-1,22
 60 -5 60 -5 60 -6 c 1,23,24
 59 -6 59 -6 59 -5.5 c 128,-1,25
 59 -5 59 -5 58 -5 c 2,26,-1
 57 -4 l 2,27,28
 56 -4 56 -4 56 -3 c 2,29,-1
 56 -1 l 1,30,-1
 56 1 l 2,31,32
 56 2 56 2 58 7.5 c 128,-1,33
 60 13 60 13 61 17 c 0,34,35
 69 48 69 48 69 91 c 0,36,37
 69 103 69 103 69.5 127.5 c 128,-1,38
 70 152 70 152 70 164 c 2,39,-1
 72 286 l 2,40,41
 74 439 74 439 66 531 c 0,42,43
 66 533 66 533 65.5 536 c 128,-1,44
 65 539 65 539 65 540 c 0,45,46
 65 544 65 544 63 549 c 0,47,48
 62 554 62 554 58 555 c 0,49,50
 56 557 56 557 54 557 c 2,51,-1
 49 557 l 1,52,-1
 25 556 l 1,53,-1
 21 556 l 2,54,55
 19 556 19 556 19 557 c 128,-1,56
 19 558 19 558 18.5 558 c 128,-1,57
 18 558 18 558 18 559 c 2,58,-1
 18 561 l 1,59,-1
 19 562 l 2,60,61
 21 564 21 564 23 564 c 0,62,63
 44 572 44 572 73 588 c 0,64,65
 100 602 100 602 125 620 c 1,66,-1
 135 619 l 1,67,68
 129 592 129 592 127 566 c 0,69,70
 124 534 124 534 122 470 c 0,71,72
 120 425 120 425 120 401 c 0,73,74
 119 369 119 369 119 304 c 2,75,-1
 119 301 l 2,76,77
 119 298 119 298 120 297 c 2,78,-1
 121 296 l 1,79,-1
 122 295 l 1,80,-1
 123 295 l 2,81,82
 123 296 123 296 124 296 c 2,83,-1
 126 296 l 1,84,85
 142 305 142 305 156 312 c 0,0,1
272 293 m 0,86,87
 237 313 237 313 194 308 c 0,88,89
 160 304 160 304 128 285 c 1,90,-1
 124 284 l 2,91,92
 123 284 123 284 123 283 c 2,93,-1
 121 282 l 2,94,95
 119 280 119 280 119 278 c 2,96,-1
 119 276 l 1,97,-1
 118 274 l 1,98,-1
 115 77 l 1,99,-1
 115 69 l 2,100,101
 115 66 115 66 117 62 c 0,102,103
 120 56 120 56 127 51 c 0,104,105
 168 19 168 19 215 15 c 0,106,107
 261 10 261 10 298 37 c 0,108,109
 320 53 320 53 332 77 c 0,110,111
 343 98 343 98 346 127 c 0,112,113
 351 181 351 181 327 230 c 0,114,115
 306 273 306 273 272 293 c 0,86,87
EndSplineSet
EndChar
StartChar: c
Encoding: 99 99 98
Width: 341
Flags: W
LayerCount: 2
Fore
SplineSet
26 164 m 0,0,1
 31 217 31 217 58 259 c 0,2,3
 86 302 86 302 130 327 c 0,4,5
 155 342 155 342 186 348 c 0,6,7
 215 354 215 354 245 348 c 0,8,9
 259 345 259 345 287 334 c 0,10,11
 302 328 302 328 309 324 c 0,12,13
 310 323 310 323 311 323 c 128,-1,14
 312 323 312 323 313 322 c 128,-1,15
 314 321 314 321 315 320.5 c 128,-1,16
 316 320 316 320 316 319 c 0,17,18
 317 318 317 318 317 314 c 0,19,20
 317 312 317 312 315 310 c 2,21,-1
 303 292 l 2,22,23
 301 289 301 289 298 285 c 0,24,25
 293 279 293 279 291 280 c 0,26,27
 288 279 288 279 283 279 c 2,28,-1
 274 282 l 1,29,-1
 239 296 l 2,30,31
 194 313 194 313 168 312 c 0,32,33
 150 312 150 312 132 304 c 0,34,35
 116 297 116 297 104 283 c 0,36,37
 89 264 89 264 83 244 c 0,38,39
 67 188 67 188 85 131 c 0,40,41
 105 71 105 71 157 43 c 0,42,43
 217 12 217 12 280 38 c 0,44,45
 292 43 292 43 302 49 c 2,46,-1
 304 51 l 1,47,-1
 307 51 l 1,48,-1
 308 51 l 1,49,-1
 310 50 l 1,50,-1
 312 48 l 2,51,52
 313 47 313 47 313 46 c 2,53,-1
 313 43 l 2,54,55
 313 41 313 41 312 41 c 2,56,-1
 310 39 l 2,57,58
 303 34 303 34 290 26 c 0,59,60
 256 5 256 5 229 0 c 0,61,62
 170 -14 170 -14 110 12 c 0,63,64
 82 24 82 24 62 44 c 0,65,66
 39 69 39 69 30 106 c 0,67,68
 23 136 23 136 26 164 c 0,0,1
EndSplineSet
EndChar
StartChar: i
Encoding: 105 105 104
Width: 220
Flags: W
LayerCount: 2
Fore
SplineSet
151 539 m 0,0,1
 167 532 167 532 166 531 c 0,2,3
 159 524 159 524 146 508 c 0,4,5
 127 483 127 483 125 479 c 1,6,-1
 101 509 l 1,7,-1
 82 529 l 1,8,9
 104 541 104 541 117 572 c 1,10,11
 121 571 121 571 135.5 556 c 128,-1,12
 150 541 150 541 151 539 c 0,0,1
81 317 m 0,13,14
 107 332 107 332 128 350 c 0,15,16
 129 350 129 350 129 351 c 2,17,-1
 130 352 l 2,18,19
 131 353 131 353 133 353 c 2,20,-1
 136 353 l 1,21,-1
 138 351 l 2,22,23
 141 350 141 350 141 346 c 0,24,25
 141 345 141 345 140.5 342.5 c 128,-1,26
 140 340 140 340 140 339 c 0,27,28
 136 314 136 314 132 268 c 0,29,30
 129 230 129 230 130 153 c 0,31,32
 130 108 130 108 132 62 c 0,33,34
 132 51 132 51 135 41 c 0,35,36
 138 30 138 30 145 22 c 0,37,38
 151 16 151 16 153 15 c 0,39,40
 157 14 157 14 164 14 c 2,41,-1
 190 15 l 1,42,-1
 198 15 l 2,43,44
 199 15 199 15 200 13 c 0,45,46
 203 10 203 10 203 9 c 2,47,-1
 202 8 l 1,48,-1
 202 6 l 1,49,-1
 201 5 l 2,50,51
 200 4 200 4 200 3 c 0,52,53
 198 1 198 1 197 1 c 2,54,-1
 193 1 l 2,55,56
 139 1 139 1 112 0 c 0,57,58
 83 -1 83 -1 29 -5 c 1,59,-1
 26 -5 l 1,60,-1
 25 -3 l 2,61,62
 24 -2 24 -2 24 -1 c 2,63,-1
 24 2 l 1,64,-1
 24 5 l 2,65,66
 24 6 24 6 25 7 c 2,67,-1
 26 9 l 1,68,-1
 29 9 l 1,69,-1
 57 12 l 2,70,71
 59 12 59 12 62.5 14 c 128,-1,72
 66 16 66 16 67 18 c 0,73,74
 69 22 69 22 69 24 c 0,75,76
 69 25 69 25 69.5 26.5 c 128,-1,77
 70 28 70 28 70 29 c 0,78,79
 74 75 74 75 76 123 c 0,80,81
 78 184 78 184 73 246 c 0,82,83
 73 251 73 251 71 260 c 128,-1,84
 69 269 69 269 64 273 c 0,85,86
 57 280 57 280 51 280 c 0,87,88
 43 280 43 280 37 277 c 2,89,-1
 34 276 l 1,90,-1
 33 276 l 2,91,92
 32 275 32 275 31 275 c 2,93,-1
 27 275 l 2,94,95
 25 275 25 275 26 278 c 2,96,-1
 26 281 l 1,97,-1
 26 285 l 1,98,-1
 26 288 l 1,99,-1
 27 290 l 2,100,101
 29 292 29 292 30 292 c 2,102,-1
 34 293 l 2,103,104
 54 302 54 302 81 317 c 0,13,14
EndSplineSet
EndChar
StartChar: q
Encoding: 113 113 112
Width: 399
Flags: W
LayerCount: 2
Fore
SplineSet
94 289 m 0,0,1
 127 316 127 316 170 332 c 0,2,3
 220 349 220 349 269 340 c 0,4,5
 293 336 293 336 317 324 c 0,6,7
 318 323 318 323 319 323 c 128,-1,8
 320 323 320 323 321 322 c 0,9,10
 325 320 325 320 326 320 c 0,11,12
 330 320 330 320 332 321 c 0,13,14
 333 321 333 321 334 322 c 2,15,-1
 336 324 l 2,16,17
 347 333 347 333 348 334 c 0,18,19
 354 340 354 340 361 351 c 1,20,-1
 372 346 l 1,21,22
 367 335 367 335 364 325 c 0,23,24
 360 315 360 315 356 290 c 0,25,26
 352 271 352 271 353 249 c 0,27,28
 353 216 353 216 353.5 148.5 c 128,-1,29
 354 81 354 81 354 47 c 2,30,-1
 354 -239 l 2,31,32
 354 -248 354 -248 355 -252 c 0,33,34
 358 -259 358 -259 364 -264 c 0,35,36
 369 -267 369 -267 379 -268 c 0,37,38
 385 -269 385 -269 396 -269 c 2,39,-1
 407 -269 l 1,40,-1
 411 -269 l 2,41,42
 413 -269 413 -269 414 -270 c 2,43,-1
 417 -273 l 2,44,45
 418 -274 418 -274 418 -276 c 128,-1,46
 418 -278 418 -278 416 -280 c 2,47,-1
 415 -281 l 2,48,49
 414 -282 414 -282 413 -282 c 0,50,51
 411 -283 411 -283 406 -283 c 0,52,53
 359 -283 359 -283 336 -284 c 0,54,55
 307 -285 307 -285 248 -288 c 2,56,-1
 245 -288 l 2,57,58
 244 -288 244 -288 242 -287 c 0,59,60
 241 -287 241 -287 239 -285 c 0,61,62
 238 -284 238 -284 238 -282.5 c 128,-1,63
 238 -281 238 -281 239 -280 c 2,64,-1
 241 -278 l 2,65,66
 245 -276 245 -276 247 -276 c 2,67,-1
 267 -272 l 2,68,69
 273 -271 273 -271 284 -266 c 0,70,71
 292 -262 292 -262 296 -252 c 0,72,73
 300 -244 300 -244 300 -234 c 2,74,-1
 300 -216 l 1,75,-1
 303 27 l 1,76,77
 275 11 275 11 241 1 c 0,78,79
 187 -14 187 -14 146 -4 c 0,80,81
 110 4 110 4 85 25 c 0,82,83
 59 46 59 46 43 77 c 0,84,85
 17 128 17 128 29 186 c 0,86,87
 42 246 42 246 94 289 c 0,0,1
209 317 m 0,88,89
 167 319 167 319 136 297 c 0,90,91
 109 278 109 278 95 249 c 0,92,93
 82 221 82 221 79 186 c 0,94,95
 77 151 77 151 86 121 c 128,-1,96
 95 91 95 91 116 64 c 0,97,98
 155 18 155 18 213 15 c 0,99,100
 263 12 263 12 303 43 c 1,101,102
 304 67 304 67 302 185 c 0,103,104
 302 195 302 195 301.5 215 c 128,-1,105
 301 235 301 235 300 246 c 0,106,107
 300 261 300 261 299 268 c 0,108,109
 297 277 297 277 296 279 c 0,110,111
 293 285 293 285 289 288 c 0,112,113
 281 295 281 295 272 300 c 0,114,115
 243 315 243 315 209 317 c 0,88,89
EndSplineSet
EndChar
StartChar: t
Encoding: 116 116 115
Width: 289
Flags: W
LayerCount: 2
Fore
SplineSet
120 206 m 0,0,1
 120 134 120 134 122 98 c 0,2,3
 124 72 124 72 131 59 c 0,4,5
 140 41 140 41 162 33 c 0,6,7
 181 26 181 26 203 31 c 0,8,9
 213 33 213 33 242 43 c 2,10,-1
 252 47 l 2,11,12
 253 47 253 47 256 48 c 128,-1,13
 259 49 259 49 260 50 c 0,14,15
 261 50 261 50 262.5 50.5 c 128,-1,16
 264 51 264 51 265 51 c 2,17,-1
 266 51 l 1,18,-1
 267 50 l 2,19,20
 269 50 269 50 268 48 c 0,21,22
 268 47 268 47 268.5 47 c 128,-1,23
 269 47 269 47 269 46 c 128,-1,24
 269 45 269 45 268 43 c 128,-1,25
 267 41 267 41 266 40 c 128,-1,26
 265 39 265 39 262 37.5 c 128,-1,27
 259 36 259 36 258 35 c 0,28,29
 216 11 216 11 182 1 c 0,30,31
 156 -6 156 -6 138 -5 c 0,32,33
 114 -3 114 -3 97 9 c 128,-1,34
 80 21 80 21 73 43 c 0,35,36
 68 57 68 57 68 86 c 2,37,-1
 72 303 l 1,38,-1
 28 303 l 2,39,40
 25 303 25 303 25 304 c 2,41,-1
 24 305 l 2,42,43
 23 306 23 306 23 307 c 2,44,-1
 23 309 l 1,45,-1
 24 310 l 1,46,-1
 26 313 l 1,47,48
 46 322 46 322 62 333 c 0,49,50
 95 356 95 356 122 394 c 1,51,-1
 126 398 l 2,52,53
 127 399 127 399 128 399 c 2,54,-1
 130 399 l 2,55,56
 131 399 131 399 132 398 c 128,-1,57
 133 397 133 397 133 396 c 128,-1,58
 133 395 133 395 134 393 c 2,59,-1
 134 391 l 1,60,-1
 124 327 l 1,61,-1
 252 330 l 1,62,-1
 255 330 l 1,63,-1
 257 328 l 1,64,-1
 259 326 l 1,65,-1
 259 323 l 1,66,-1
 259 311 l 1,67,-1
 259 308 l 2,68,69
 259 307 259 307 257 305 c 0,70,71
 256 304 256 304 255 304 c 2,72,-1
 254 304 l 2,73,74
 253 303 253 303 252 303 c 2,75,-1
 124 303 l 1,76,77
 120 239 120 239 120 206 c 0,0,1
EndSplineSet
EndChar
StartChar: uni0082
Encoding: 130 130 129
Width: 790
Flags: W
LayerCount: 2
Fore
SplineSet
493 187 m 1,0,-1
 581 187 l 1,1,-1
 581 178 l 1,2,3
 568 178 568 178 563 175 c 0,4,5
 554 168 554 168 555 149 c 2,6,-1
 555 101 l 1,7,-1
 631 101 l 1,8,-1
 631 150 l 2,9,10
 631 168 631 168 623 175 c 0,11,12
 620 177 620 177 605 177 c 1,13,-1
 605 187 l 1,14,-1
 693 187 l 1,15,-1
 693 178 l 1,16,17
 672 178 672 178 668 165 c 0,18,19
 667 161 667 161 666.5 155 c 128,-1,20
 666 149 666 149 666.5 141.5 c 128,-1,21
 667 134 667 134 667 131 c 2,22,-1
 667 59 l 2,23,24
 667 56 667 56 666.5 47 c 128,-1,25
 666 38 666 38 666 31 c 128,-1,26
 666 24 666 24 668 20 c 0,27,28
 671 12 671 12 677 10 c 128,-1,29
 683 8 683 8 693 8 c 1,30,-1
 693 -2 l 1,31,-1
 605 -2 l 1,32,-1
 605 7 l 1,33,34
 620 7 620 7 624 11 c 0,35,36
 631 17 631 17 631 35 c 2,37,-1
 631 84 l 1,38,-1
 555 84 l 1,39,-1
 555 34 l 2,40,41
 555 15 555 15 564 10 c 0,42,43
 567 8 567 8 581 8 c 1,44,-1
 581 -2 l 1,45,-1
 493 -2 l 1,46,-1
 493 7 l 1,47,48
 514 7 514 7 518 21 c 0,49,50
 519 25 519 25 519.5 31 c 128,-1,51
 520 37 520 37 519.5 44.5 c 128,-1,52
 519 52 519 52 519 55 c 2,53,-1
 519 125 l 2,54,55
 519 128 519 128 520 137 c 128,-1,56
 521 146 521 146 520.5 153 c 128,-1,57
 520 160 520 160 518 165 c 0,58,59
 515 173 515 173 509.5 175 c 128,-1,60
 504 177 504 177 493 177 c 1,61,-1
 493 187 l 1,0,-1
374 319 m 1,62,63
 400 316 400 316 407 317 c 0,64,65
 418 318 418 318 427 323 c 0,66,67
 441 330 441 330 444 346.5 c 128,-1,68
 447 363 447 363 435 374 c 0,69,70
 424 385 424 385 398 384 c 0,71,72
 377 384 377 384 374 381 c 0,73,74
 373 380 373 380 374 364 c 2,75,-1
 374 319 l 1,62,63
312 403 m 1,76,77
 396 403 396 403 409 402 c 0,78,79
 443 400 443 400 458 390 c 0,80,81
 479 377 479 377 479.5 350 c 128,-1,82
 480 323 480 323 459 310 c 0,83,84
 452 306 452 306 443.5 303 c 128,-1,85
 435 300 435 300 425.5 299.5 c 128,-1,86
 416 299 416 299 409 298.5 c 128,-1,87
 402 298 402 298 390 298.5 c 128,-1,88
 378 299 378 299 374 299 c 1,89,-1
 374 250 l 2,90,91
 374 231 374 231 383 225 c 0,92,93
 386 223 386 223 400 223 c 1,94,-1
 400 213 l 1,95,-1
 312 213 l 1,96,-1
 312 223 l 1,97,98
 332 223 332 223 337 236 c 0,99,100
 339 241 339 241 339.5 247.5 c 128,-1,101
 340 254 340 254 339 263 c 128,-1,102
 338 272 338 272 338 275 c 2,103,-1
 338 346 l 2,104,105
 338 348 338 348 338.5 356.5 c 128,-1,106
 339 365 339 365 339 370 c 128,-1,107
 339 375 339 375 337 380 c 0,108,109
 334 388 334 388 328.5 390 c 128,-1,110
 323 392 323 392 312 392 c 1,111,-1
 312 403 l 1,76,77
172 535 m 1,112,113
 198 532 198 532 206 532 c 0,114,115
 217 533 217 533 227 538 c 0,116,117
 240 545 240 545 242.5 561.5 c 128,-1,118
 245 578 245 578 235 589 c 0,119,120
 224 600 224 600 197 600 c 0,121,122
 176 600 176 600 173 596 c 0,123,124
 172 595 172 595 172 579 c 2,125,-1
 172 535 l 1,112,113
172 512 m 1,126,-1
 172 467 l 2,127,128
 172 451 172 451 173 450 c 0,129,130
 176 447 176 447 198 447 c 0,131,132
 229 447 229 447 240.5 457 c 128,-1,133
 252 467 252 467 249.5 484.5 c 128,-1,134
 247 502 247 502 233 508 c 0,135,136
 225 512 225 512 209 514 c 2,137,-1
 197 514 l 2,138,139
 193 514 193 514 184.5 513 c 128,-1,140
 176 512 176 512 172 512 c 1,126,-1
111 618 m 1,141,142
 120 618 120 618 140.5 618.5 c 128,-1,143
 161 619 161 619 176.5 619 c 128,-1,144
 192 619 192 619 207 617 c 0,145,146
 240 614 240 614 250 609 c 0,147,148
 276 597 276 597 277 569 c 128,-1,149
 278 541 278 541 256 525 c 1,150,151
 283 512 283 512 284 481.5 c 128,-1,152
 285 451 285 451 258 438 c 0,153,154
 247 432 247 432 213 429 c 0,155,156
 198 428 198 428 181 427.5 c 128,-1,157
 164 427 164 427 142.5 427.5 c 128,-1,158
 121 428 121 428 111 428 c 1,159,-1
 111 438 l 1,160,161
 132 438 132 438 136 452 c 0,162,163
 137 456 137 456 137.5 461.5 c 128,-1,164
 138 467 138 467 137.5 475 c 128,-1,165
 137 483 137 483 137 485 c 2,166,-1
 137 556 l 2,167,168
 137 559 137 559 137.5 568 c 128,-1,169
 138 577 138 577 138 583.5 c 128,-1,170
 138 590 138 590 136 595 c 0,171,172
 133 603 133 603 127 605.5 c 128,-1,173
 121 608 121 608 111 608 c 1,174,-1
 111 618 l 1,141,142
EndSplineSet
EndChar
StartChar: uni0083
Encoding: 131 131 130
Width: 790
Flags: W
LayerCount: 2
Fore
SplineSet
493 187 m 1,0,-1
 581 187 l 1,1,-1
 581 178 l 1,2,3
 568 178 568 178 563 175 c 0,4,5
 554 168 554 168 555 149 c 2,6,-1
 555 101 l 1,7,-1
 631 101 l 1,8,-1
 631 150 l 2,9,10
 631 168 631 168 623 175 c 0,11,12
 620 177 620 177 605 177 c 1,13,-1
 605 187 l 1,14,-1
 693 187 l 1,15,-1
 693 178 l 1,16,17
 672 178 672 178 668 165 c 0,18,19
 667 161 667 161 666.5 155 c 128,-1,20
 666 149 666 149 666.5 141.5 c 128,-1,21
 667 134 667 134 667 131 c 2,22,-1
 667 59 l 2,23,24
 667 56 667 56 666.5 47 c 128,-1,25
 666 38 666 38 666 31 c 128,-1,26
 666 24 666 24 668 20 c 0,27,28
 671 12 671 12 677 10 c 128,-1,29
 683 8 683 8 693 8 c 1,30,-1
 693 -2 l 1,31,-1
 605 -2 l 1,32,-1
 605 7 l 1,33,34
 620 7 620 7 624 11 c 0,35,36
 631 17 631 17 631 35 c 2,37,-1
 631 84 l 1,38,-1
 555 84 l 1,39,-1
 555 34 l 2,40,41
 555 15 555 15 564 10 c 0,42,43
 567 8 567 8 581 8 c 1,44,-1
 581 -2 l 1,45,-1
 493 -2 l 1,46,-1
 493 7 l 1,47,48
 514 7 514 7 518 21 c 0,49,50
 519 25 519 25 519.5 31 c 128,-1,51
 520 37 520 37 519.5 44.5 c 128,-1,52
 519 52 519 52 519 55 c 2,53,-1
 519 125 l 2,54,55
 519 128 519 128 520 137 c 128,-1,56
 521 146 521 146 520.5 153 c 128,-1,57
 520 160 520 160 518 165 c 0,58,59
 515 173 515 173 509.5 175 c 128,-1,60
 504 177 504 177 493 177 c 1,61,-1
 493 187 l 1,0,-1
370 319 m 1,62,63
 396 316 396 316 403 317 c 0,64,65
 414 318 414 318 425 323 c 0,66,67
 438 330 438 330 440.5 346.5 c 128,-1,68
 443 363 443 363 432 373 c 0,69,70
 421 384 421 384 395 384 c 0,71,72
 374 384 374 384 371 381 c 0,73,74
 370 380 370 380 370 364 c 2,75,-1
 370 319 l 1,62,63
370 296 m 1,76,-1
 370 252 l 2,77,78
 370 236 370 236 371 235 c 0,79,80
 374 232 374 232 396 231 c 0,81,82
 427 231 427 231 438 241 c 128,-1,83
 449 251 449 251 446.5 268.5 c 128,-1,84
 444 286 444 286 431 293 c 0,85,86
 423 297 423 297 407 299 c 2,87,-1
 395 299 l 2,88,89
 391 299 391 299 382.5 297.5 c 128,-1,90
 374 296 374 296 370 296 c 1,76,-1
308 403 m 1,91,92
 317 403 317 403 338 403.5 c 128,-1,93
 359 404 359 404 374.5 403.5 c 128,-1,94
 390 403 390 403 404 402 c 0,95,96
 437 399 437 399 448 394 c 0,97,98
 474 382 474 382 475 354 c 128,-1,99
 476 326 476 326 454 310 c 1,100,101
 481 297 481 297 482 266.5 c 128,-1,102
 483 236 483 236 456 223 c 0,103,104
 445 217 445 217 410 214 c 0,105,106
 395 213 395 213 378.5 212.5 c 128,-1,107
 362 212 362 212 340 212.5 c 128,-1,108
 318 213 318 213 308 213 c 1,109,-1
 308 223 l 1,110,111
 329 223 329 223 334 237 c 0,112,113
 335 241 335 241 335.5 246.5 c 128,-1,114
 336 252 336 252 335.5 259.5 c 128,-1,115
 335 267 335 267 335 270 c 2,116,-1
 335 340 l 2,117,118
 335 343 335 343 335.5 352.5 c 128,-1,119
 336 362 336 362 335.5 368.5 c 128,-1,120
 335 375 335 375 334 380 c 0,121,122
 331 388 331 388 325 390 c 128,-1,123
 319 392 319 392 308 392 c 1,124,-1
 308 403 l 1,91,92
89 618 m 1,125,-1
 127 618 l 1,126,-1
 144 617 l 1,127,-1
 155 606 l 1,128,-1
 178 578 l 1,129,-1
 258 485 l 1,130,-1
 258 562 l 2,131,132
 258 564 258 564 258.5 572.5 c 128,-1,133
 259 581 259 581 258.5 587 c 128,-1,134
 258 593 258 593 255 597 c 0,135,136
 253 602 253 602 248.5 604.5 c 128,-1,137
 244 607 244 607 241 607.5 c 128,-1,138
 238 608 238 608 231 608 c 1,139,-1
 231 618 l 1,140,-1
 306 618 l 1,141,-1
 306 608 l 1,142,143
 295 608 295 608 291 607 c 0,144,145
 287 605 287 605 284 601.5 c 128,-1,146
 281 598 281 598 280 592.5 c 128,-1,147
 279 587 279 587 279 584 c 2,148,-1
 279 573 l 1,149,-1
 279 564 l 1,150,-1
 279 428 l 1,151,152
 260 428 260 428 259 429 c 0,153,154
 255 432 255 432 250 437 c 128,-1,155
 245 442 245 442 240 449 c 2,156,-1
 233 459 l 1,157,-1
 176 525 l 1,158,-1
 166 536 l 2,159,160
 159 543 159 543 154 549 c 128,-1,161
 149 555 149 555 147 561 c 1,162,-1
 146 561 l 1,163,-1
 146 483 l 2,164,165
 146 480 146 480 145.5 474 c 128,-1,166
 145 468 145 468 145 464.5 c 128,-1,167
 145 461 145 461 146 456 c 128,-1,168
 147 451 147 451 149 448 c 0,169,170
 154 439 154 439 172 439 c 1,171,-1
 172 428 l 1,172,-1
 98 428 l 1,173,-1
 98 438 l 1,174,175
 119 438 119 438 123 453 c 0,176,177
 124 456 124 456 124 486 c 2,178,-1
 124 554 l 2,179,180
 124 557 124 557 124.5 565 c 128,-1,181
 125 573 125 573 125 579.5 c 128,-1,182
 125 586 125 586 123 590 c 0,183,184
 114 608 114 608 89 608 c 1,185,-1
 89 618 l 1,125,-1
EndSplineSet
EndChar
StartChar: uni0084
Encoding: 132 132 131
Width: 790
Flags: W
LayerCount: 2
Fore
SplineSet
565 170 m 1,0,-1
 565 15 l 1,1,-1
 573 15 l 1,2,-1
 582 15 l 2,3,4
 584 15 584 15 589.5 15.5 c 128,-1,5
 595 16 595 16 598 16 c 2,6,-1
 605 18 l 2,7,8
 610 19 610 19 613 20.5 c 128,-1,9
 616 22 616 22 619.5 24 c 128,-1,10
 623 26 623 26 627 29 c 0,11,12
 648 48 648 48 648 90 c 0,13,14
 648 142 648 142 620 161 c 0,15,16
 615 164 615 164 610 166 c 128,-1,17
 605 168 605 168 598 169 c 128,-1,18
 591 170 591 170 588 170 c 2,19,-1
 576 170 l 1,20,-1
 565 170 l 1,0,-1
287 403 m 1,21,-1
 325 403 l 1,22,-1
 342 402 l 1,23,-1
 352 390 l 1,24,-1
 376 363 l 1,25,-1
 455 270 l 1,26,-1
 455 348 l 2,27,28
 455 350 455 350 455.5 356.5 c 128,-1,29
 456 363 456 363 456 366.5 c 128,-1,30
 456 370 456 370 455 375 c 128,-1,31
 454 380 454 380 452 383 c 0,32,33
 447 392 447 392 429 392 c 1,34,-1
 429 403 l 1,35,-1
 504 403 l 1,36,-1
 504 393 l 1,37,38
 493 393 493 393 489 391 c 128,-1,39
 485 389 485 389 482 385.5 c 128,-1,40
 479 382 479 382 478 377 c 128,-1,41
 477 372 477 372 477 368 c 2,42,-1
 477 358 l 1,43,-1
 477 349 l 1,44,-1
 477 213 l 1,45,46
 458 213 458 213 457 214 c 0,47,48
 453 216 453 216 448.5 221 c 128,-1,49
 444 226 444 226 439 233 c 128,-1,50
 434 240 434 240 432 242 c 2,51,-1
 374 310 l 1,52,-1
 364 320 l 2,53,54
 357 327 357 327 352 333.5 c 128,-1,55
 347 340 347 340 345 346 c 1,56,-1
 344 346 l 1,57,-1
 344 267 l 2,58,59
 344 264 344 264 343.5 258.5 c 128,-1,60
 343 253 343 253 343 249 c 128,-1,61
 343 245 343 245 344 240.5 c 128,-1,62
 345 236 345 236 347 232 c 0,63,64
 352 223 352 223 370 223 c 1,65,-1
 370 213 l 1,66,-1
 295 213 l 1,67,-1
 295 223 l 1,68,69
 316 223 316 223 321 237 c 0,70,71
 322 240 322 240 322 271 c 2,72,-1
 322 339 l 2,73,74
 322 342 322 342 322.5 350 c 128,-1,75
 323 358 323 358 323 364.5 c 128,-1,76
 323 371 323 371 321 375 c 0,77,78
 312 393 312 393 287 392 c 1,79,-1
 287 403 l 1,21,-1
503 187 m 1,80,-1
 580 187 l 2,81,82
 625 187 625 187 644 176 c 0,83,84
 670 160 670 160 678.5 129.5 c 128,-1,85
 687 99 687 99 681 65 c 0,86,87
 675 26 675 26 649 10 c 0,88,89
 628 -3 628 -3 580 -2 c 2,90,-1
 503 -2 l 1,91,-1
 503 7 l 1,92,93
 524 7 524 7 528 20 c 0,94,95
 529 24 529 24 529.5 30 c 128,-1,96
 530 36 530 36 529.5 43.5 c 128,-1,97
 529 51 529 51 529 54 c 2,98,-1
 529 126 l 2,99,100
 529 129 529 129 529.5 138 c 128,-1,101
 530 147 530 147 530 154 c 128,-1,102
 530 161 530 161 528 165 c 0,103,104
 525 173 525 173 519.5 175 c 128,-1,105
 514 177 514 177 503 177 c 1,106,-1
 503 187 l 1,80,-1
154 618 m 1,107,-1
 242 618 l 1,108,-1
 242 608 l 1,109,110
 221 608 221 608 216 594 c 0,111,112
 215 590 215 590 214.5 584.5 c 128,-1,113
 214 579 214 579 214.5 571.5 c 128,-1,114
 215 564 215 564 215 561 c 2,115,-1
 215 490 l 2,116,117
 215 487 215 487 214.5 478 c 128,-1,118
 214 469 214 469 214.5 462.5 c 128,-1,119
 215 456 215 456 217 451 c 0,120,121
 220 443 220 443 225.5 441 c 128,-1,122
 231 439 231 439 242 439 c 1,123,-1
 242 428 l 1,124,-1
 154 428 l 1,125,-1
 154 438 l 1,126,127
 174 438 174 438 179 451 c 0,128,129
 181 456 181 456 181 462.5 c 128,-1,130
 181 469 181 469 180.5 478.5 c 128,-1,131
 180 488 180 488 180 491 c 2,132,-1
 180 562 l 2,133,134
 180 564 180 564 180.5 572 c 128,-1,135
 181 580 181 580 180.5 585.5 c 128,-1,136
 180 591 180 591 179 595 c 0,137,138
 176 603 176 603 170 605.5 c 128,-1,139
 164 608 164 608 154 608 c 1,140,-1
 154 618 l 1,107,-1
EndSplineSet
EndChar
StartChar: uni008A
Encoding: 138 138 137
Width: 790
Flags: W
LayerCount: 2
Fore
SplineSet
305 352 m 1,0,-1
 315 388 l 1,1,-1
 321 402 l 1,2,-1
 330 403 l 1,3,-1
 352 403 l 1,4,-1
 438 403 l 1,5,-1
 461 403 l 1,6,-1
 471 402 l 1,7,-1
 476 388 l 1,8,-1
 487 352 l 1,9,10
 474 352 474 352 473 353 c 2,11,-1
 467 362 l 2,12,13
 459 378 459 378 453 382 c 0,14,15
 449 385 449 385 442 386 c 128,-1,16
 435 387 435 387 425 386 c 128,-1,17
 415 385 415 385 413 385 c 2,18,-1
 413 285 l 2,19,20
 413 281 413 281 412.5 270.5 c 128,-1,21
 412 260 412 260 412 252 c 128,-1,22
 412 244 412 244 414 237 c 0,23,24
 418 223 418 223 439 223 c 1,25,-1
 439 213 l 1,26,-1
 352 213 l 1,27,-1
 352 223 l 1,28,29
 374 223 374 223 377 238 c 0,30,31
 379 245 379 245 379 253 c 128,-1,32
 379 261 379 261 378.5 271.5 c 128,-1,33
 378 282 378 282 378 287 c 2,34,-1
 378 385 l 2,35,36
 376 385 376 385 366 386 c 128,-1,37
 356 387 356 387 350 386 c 0,38,39
 343 384 343 384 338 382 c 0,40,41
 331 378 331 378 324 362 c 0,42,43
 319 353 319 353 318 353 c 0,44,45
 317 352 317 352 305 352 c 1,0,-1
632 189 m 1,46,-1
 645 189 l 1,47,-1
 645 123 l 1,48,-1
 632 123 l 1,49,50
 625 160 625 160 606 167 c 0,51,52
 593 174 593 174 574.5 168.5 c 128,-1,53
 556 163 556 163 559 145 c 0,54,55
 561 132 561 132 586 116 c 0,56,57
 591 113 591 113 600 108.5 c 128,-1,58
 609 104 609 104 615 100.5 c 128,-1,59
 621 97 621 97 629.5 91.5 c 128,-1,60
 638 86 638 86 642.5 81.5 c 128,-1,61
 647 77 647 77 652 69.5 c 128,-1,62
 657 62 657 62 657 55 c 128,-1,63
 657 48 657 48 656 37 c 0,64,65
 650 15 650 15 629.5 5 c 128,-1,66
 609 -5 609 -5 586 -2 c 0,67,68
 576 -1 576 -1 560 4 c 0,69,70
 551 7 551 7 548 6 c 0,71,72
 545 4 545 4 545 -2 c 1,73,-1
 531 -2 l 1,74,-1
 531 63 l 1,75,-1
 545 63 l 1,76,77
 547 24 547 24 577 17 c 0,78,79
 594 13 594 13 610 18 c 128,-1,80
 626 23 626 23 625 41 c 0,81,82
 625 49 625 49 619 55.5 c 128,-1,83
 613 62 613 62 608.5 65 c 128,-1,84
 604 68 604 68 595 73 c 0,85,86
 592 75 592 75 584.5 79 c 128,-1,87
 577 83 577 83 573 86 c 2,88,-1
 562 92 l 2,89,90
 555 97 555 97 551.5 100 c 128,-1,91
 548 103 548 103 543 108 c 128,-1,92
 538 113 538 113 535.5 118 c 128,-1,93
 533 123 533 123 531 128.5 c 128,-1,94
 529 134 529 134 529.5 140.5 c 128,-1,95
 530 147 530 147 532 154 c 0,96,97
 538 173 538 173 555.5 181.5 c 128,-1,98
 573 190 573 190 594 188 c 0,99,100
 603 187 603 187 617 182 c 0,101,102
 625 179 625 179 627 180 c 0,103,104
 630 181 630 181 632 189 c 1,46,-1
89 618 m 1,105,-1
 178 618 l 1,106,-1
 178 608 l 1,107,108
 159 608 159 608 158 597 c 0,109,110
 158 592 158 592 160 586 c 128,-1,111
 162 580 162 580 166 572 c 2,112,-1
 171 562 l 1,113,114
 196 501 196 501 206 480 c 1,115,116
 211 490 211 490 239 563 c 0,117,118
 240 565 240 565 244 572.5 c 128,-1,119
 248 580 248 580 250 586 c 128,-1,120
 252 592 252 592 251 597 c 0,121,122
 250 608 250 608 233 608 c 2,123,-1
 231 608 l 1,124,-1
 231 618 l 1,125,-1
 307 618 l 1,126,-1
 307 608 l 1,127,128
 295 608 295 608 290.5 606.5 c 128,-1,129
 286 605 286 605 282.5 602 c 128,-1,130
 279 599 279 599 276 594 c 128,-1,131
 273 589 273 589 271.5 585.5 c 128,-1,132
 270 582 270 582 267.5 575.5 c 128,-1,133
 265 569 265 569 264 567 c 2,134,-1
 224 471 l 1,135,-1
 211 440 l 2,136,137
 207 430 207 430 204 428 c 0,138,139
 200 425 200 425 196 427 c 128,-1,140
 192 429 192 429 190 429.5 c 128,-1,141
 188 430 188 430 185.5 434 c 128,-1,142
 183 438 183 438 182 440 c 128,-1,143
 181 442 181 442 179 447 c 128,-1,144
 177 452 177 452 177 454 c 2,145,-1
 137 549 l 1,146,-1
 124 578 l 2,147,148
 120 587 120 587 122 589 c 0,149,150
 113 608 113 608 89 608 c 1,151,-1
 89 618 l 1,105,-1
EndSplineSet
EndChar
StartChar: uni008C
Encoding: 140 140 139
Width: 790
Flags: W
LayerCount: 2
Fore
SplineSet
308 403 m 1,0,-1
 396 403 l 1,1,-1
 396 393 l 1,2,3
 374 393 374 393 371 379 c 0,4,5
 369 373 369 373 369 365 c 128,-1,6
 369 357 369 357 369.5 346.5 c 128,-1,7
 370 336 370 336 370 332 c 2,8,-1
 370 230 l 1,9,-1
 422 230 l 2,10,11
 443 230 443 230 446 232 c 0,12,13
 454 235 454 235 464 254 c 0,14,15
 468 263 468 263 469 263 c 0,16,17
 470 264 470 264 483 264 c 1,18,-1
 468 213 l 1,19,-1
 308 213 l 1,20,-1
 308 223 l 1,21,22
 329 223 329 223 333 237 c 0,23,24
 334 241 334 241 334.5 246.5 c 128,-1,25
 335 252 335 252 334.5 259 c 128,-1,26
 334 266 334 266 334 269 c 2,27,-1
 334 339 l 2,28,29
 334 342 334 342 334.5 351.5 c 128,-1,30
 335 361 335 361 335 368 c 128,-1,31
 335 375 335 375 333 380 c 0,32,33
 330 388 330 388 324.5 390 c 128,-1,34
 319 392 319 392 308 392 c 1,35,-1
 308 403 l 1,0,-1
490 189 m 1,36,-1
 578 189 l 1,37,-1
 578 179 l 1,38,39
 566 179 566 179 562 178 c 0,40,41
 556 175 556 175 553.5 168 c 128,-1,42
 551 161 551 161 551 156 c 128,-1,43
 551 151 551 151 551.5 140.5 c 128,-1,44
 552 130 552 130 552 128 c 2,45,-1
 552 107 l 1,46,-1
 552 88 l 2,47,48
 552 84 552 84 553 69 c 128,-1,49
 554 54 554 54 557 48 c 128,-1,50
 560 42 560 42 565 33 c 128,-1,51
 570 24 570 24 578.5 20 c 128,-1,52
 587 16 587 16 599 16 c 0,53,54
 610 16 610 16 620 22 c 0,55,56
 631 28 631 28 637 36.5 c 128,-1,57
 643 45 643 45 645.5 58 c 128,-1,58
 648 71 648 71 648.5 79 c 128,-1,59
 649 87 649 87 648.5 104 c 128,-1,60
 648 121 648 121 648 126 c 0,61,62
 648 128 648 128 648.5 138.5 c 128,-1,63
 649 149 649 149 649 155 c 128,-1,64
 649 161 649 161 646 168 c 128,-1,65
 643 175 643 175 637 178 c 0,66,67
 635 179 635 179 621 179 c 1,68,-1
 621 189 l 1,69,-1
 697 189 l 1,70,-1
 697 179 l 1,71,72
 684 179 684 179 680 177 c 0,73,74
 674 174 674 174 671.5 165.5 c 128,-1,75
 669 157 669 157 669 150 c 128,-1,76
 669 143 669 143 670 131.5 c 128,-1,77
 671 120 671 120 671 117 c 2,78,-1
 671 98 l 1,79,-1
 671 78 l 2,80,81
 671 73 671 73 669.5 61 c 128,-1,82
 668 49 668 49 665 42.5 c 128,-1,83
 662 36 662 36 656.5 27.5 c 128,-1,84
 651 19 651 19 642 13 c 0,85,86
 633 6 633 6 625 3 c 0,87,88
 614 -1 614 -1 600 -1 c 0,89,90
 570 -1 570 -1 548 12.5 c 128,-1,91
 526 26 526 26 519 54 c 0,92,93
 516 64 516 64 516 105 c 2,94,-1
 516 153 l 2,95,96
 516 171 516 171 507 177 c 0,97,98
 504 179 504 179 490 179 c 1,99,-1
 490 189 l 1,36,-1
176 535 m 1,100,101
 202 532 202 532 209 532 c 0,102,103
 220 533 220 533 229 538 c 0,104,105
 243 545 243 545 246 561.5 c 128,-1,106
 249 578 249 578 237 589 c 0,107,108
 226 600 226 600 200 600 c 0,109,110
 179 600 179 600 177 596 c 0,111,112
 176 595 176 595 176 579 c 2,113,-1
 176 535 l 1,100,101
114 618 m 1,114,115
 198 618 198 618 211 617 c 0,116,117
 245 615 245 615 260 606 c 0,118,119
 281 593 281 593 281.5 565.5 c 128,-1,120
 282 538 282 538 261 525 c 0,121,122
 254 521 254 521 246 518.5 c 128,-1,123
 238 516 238 516 228 515 c 128,-1,124
 218 514 218 514 211 514 c 2,125,-1
 192 514 l 1,126,-1
 176 514 l 1,127,-1
 176 465 l 2,128,129
 176 446 176 446 185 440 c 0,130,131
 188 438 188 438 202 439 c 1,132,-1
 202 428 l 1,133,-1
 114 428 l 1,134,-1
 114 438 l 1,135,136
 134 438 134 438 139 451 c 0,137,138
 141 456 141 456 141.5 462.5 c 128,-1,139
 142 469 142 469 141.5 478.5 c 128,-1,140
 141 488 141 488 141 491 c 2,141,-1
 141 562 l 2,142,143
 141 564 141 564 141.5 572 c 128,-1,144
 142 580 142 580 141.5 585.5 c 128,-1,145
 141 591 141 591 139 595 c 0,146,147
 136 603 136 603 130.5 605.5 c 128,-1,148
 125 608 125 608 114 608 c 1,149,-1
 114 618 l 1,114,115
EndSplineSet
EndChar
StartChar: uni008E
Encoding: 142 142 141
Width: 790
Flags: W
LayerCount: 2
Fore
SplineSet
347 277 m 1,0,1
 350 240 350 240 379 232 c 0,2,3
 392 227 392 227 409.5 232 c 128,-1,4
 427 237 427 237 427.5 253.5 c 128,-1,5
 428 270 428 270 405 284 c 0,6,7
 399 288 399 288 384.5 295.5 c 128,-1,8
 370 303 370 303 359.5 310 c 128,-1,9
 349 317 349 317 342 325 c 0,10,11
 323 350 323 350 338 375.5 c 128,-1,12
 353 401 353 401 382 403 c 0,13,14
 395 404 395 404 410 400 c 2,15,-1
 417 398 l 2,16,17
 424 395 424 395 427 394.5 c 128,-1,18
 430 394 430 394 432 398 c 128,-1,19
 434 402 434 402 435 403 c 128,-1,20
 436 404 436 404 447 404 c 1,21,-1
 447 338 l 1,22,-1
 434 338 l 1,23,24
 429 374 429 374 408 382 c 0,25,26
 394 389 394 389 377 383 c 128,-1,27
 360 377 360 377 362 359 c 0,28,29
 364 346 364 346 391 330 c 0,30,31
 396 327 396 327 403.5 323 c 128,-1,32
 411 319 411 319 416 316 c 2,33,-1
 428 308 l 2,34,35
 436 304 436 304 440.5 300 c 128,-1,36
 445 296 445 296 450 290 c 128,-1,37
 455 284 455 284 456.5 278.5 c 128,-1,38
 458 273 458 273 459.5 265.5 c 128,-1,39
 461 258 461 258 457 250 c 0,40,41
 451 229 451 229 430.5 219.5 c 128,-1,42
 410 210 410 210 387 213 c 0,43,44
 384 213 384 213 378.5 215 c 128,-1,45
 373 217 373 217 368 218.5 c 128,-1,46
 363 220 363 220 358.5 220.5 c 128,-1,47
 354 221 354 221 351 219 c 128,-1,48
 348 217 348 217 347 212 c 1,49,-1
 333 212 l 1,50,-1
 333 277 l 1,51,-1
 347 277 l 1,0,1
534 131 m 1,52,53
 537 165 537 165 561 181 c 0,54,55
 584 196 584 196 610.5 185.5 c 128,-1,56
 637 175 637 175 644 149 c 0,57,58
 646 142 646 142 646 135.5 c 128,-1,59
 646 129 646 129 644 122 c 128,-1,60
 642 115 642 115 640 109.5 c 128,-1,61
 638 104 638 104 634 97 c 2,62,-1
 626 86 l 2,63,64
 623 81 623 81 617 73.5 c 128,-1,65
 611 66 611 66 608 63.5 c 128,-1,66
 605 61 605 61 598 53.5 c 128,-1,67
 591 46 591 46 590 44 c 2,68,-1
 570 22 l 2,69,70
 574 22 574 22 587.5 21.5 c 128,-1,71
 601 21 601 21 610.5 21.5 c 128,-1,72
 620 22 620 22 628 24 c 0,73,74
 632 25 632 25 637 30 c 128,-1,75
 642 35 642 35 644 36 c 0,76,77
 645 37 645 37 657 37 c 1,78,-1
 643 -2 l 1,79,-1
 529 -2 l 1,80,81
 529 3 529 3 531.5 8 c 128,-1,82
 534 13 534 13 536.5 16 c 128,-1,83
 539 19 539 19 544.5 23.5 c 128,-1,84
 550 28 550 28 552 30 c 2,85,-1
 562 40 l 2,86,87
 571 49 571 49 574 52.5 c 128,-1,88
 577 56 577 56 585 64 c 128,-1,89
 593 72 593 72 596 77.5 c 128,-1,90
 599 83 599 83 604 90.5 c 128,-1,91
 609 98 609 98 611 105.5 c 128,-1,92
 613 113 613 113 613 121 c 0,93,94
 614 138 614 138 605 152.5 c 128,-1,95
 596 167 596 167 579 164 c 0,96,97
 563 161 563 161 555 146 c 0,98,99
 555 145 555 145 552 139.5 c 128,-1,100
 549 134 549 134 547 132 c 0,101,102
 545 131 545 131 534 131 c 1,52,53
149 492 m 1,103,104
 152 455 152 455 181 447 c 0,105,106
 194 442 194 442 211.5 447 c 128,-1,107
 229 452 229 452 229.5 468.5 c 128,-1,108
 230 485 230 485 207 499 c 0,109,110
 201 503 201 503 186.5 510.5 c 128,-1,111
 172 518 172 518 162 525 c 128,-1,112
 152 532 152 532 144 541 c 0,113,114
 125 566 125 566 140 591 c 128,-1,115
 155 616 155 616 185 619 c 0,116,117
 199 620 199 620 212 616 c 2,118,-1
 219 613 l 2,119,120
 226 610 226 610 229.5 610 c 128,-1,121
 233 610 233 610 234.5 613.5 c 128,-1,122
 236 617 236 617 237 618 c 128,-1,123
 238 619 238 619 250 619 c 1,124,-1
 250 553 l 1,125,-1
 236 553 l 1,126,127
 231 589 231 589 210 598 c 0,128,129
 196 605 196 605 179 598.5 c 128,-1,130
 162 592 162 592 165 574 c 0,131,132
 167 561 167 561 193 545 c 0,133,134
 198 542 198 542 206 538 c 2,135,-1
 218 531 l 2,136,137
 224 528 224 528 231.5 523.5 c 128,-1,138
 239 519 239 519 243 515 c 2,139,-1
 252 506 l 2,140,141
 258 500 258 500 259 494 c 2,142,-1
 262 481 l 2,143,144
 263 473 263 473 259 465 c 0,145,146
 253 444 253 444 232.5 434.5 c 128,-1,147
 212 425 212 425 189 428 c 0,148,149
 186 428 186 428 180 430 c 2,150,-1
 170 434 l 2,151,152
 166 435 166 435 161 435.5 c 128,-1,153
 156 436 156 436 153 434 c 128,-1,154
 150 432 150 432 149 427 c 1,155,-1
 135 427 l 1,156,-1
 135 492 l 1,157,-1
 149 492 l 1,103,104
EndSplineSet
EndChar
StartChar: uni008F
Encoding: 143 143 142
Width: 790
Flags: W
LayerCount: 2
Fore
SplineSet
347 277 m 1,0,1
 350 240 350 240 379 232 c 0,2,3
 392 227 392 227 409.5 232 c 128,-1,4
 427 237 427 237 427.5 253.5 c 128,-1,5
 428 270 428 270 405 284 c 0,6,7
 399 288 399 288 384.5 295.5 c 128,-1,8
 370 303 370 303 359.5 310 c 128,-1,9
 349 317 349 317 342 325 c 0,10,11
 323 350 323 350 338 375.5 c 128,-1,12
 353 401 353 401 382 403 c 0,13,14
 395 404 395 404 410 400 c 2,15,-1
 417 398 l 2,16,17
 424 395 424 395 427 394.5 c 128,-1,18
 430 394 430 394 432 398 c 128,-1,19
 434 402 434 402 435 403 c 128,-1,20
 436 404 436 404 447 404 c 1,21,-1
 447 338 l 1,22,-1
 434 338 l 1,23,24
 429 374 429 374 408 382 c 0,25,26
 394 389 394 389 377 383 c 128,-1,27
 360 377 360 377 362 359 c 0,28,29
 364 346 364 346 391 330 c 0,30,31
 396 327 396 327 403.5 323 c 128,-1,32
 411 319 411 319 416 316 c 2,33,-1
 428 308 l 2,34,35
 436 304 436 304 440.5 300 c 128,-1,36
 445 296 445 296 450 290 c 128,-1,37
 455 284 455 284 456.5 278.5 c 128,-1,38
 458 273 458 273 459.5 265.5 c 128,-1,39
 461 258 461 258 457 250 c 0,40,41
 451 229 451 229 430.5 219.5 c 128,-1,42
 410 210 410 210 387 213 c 0,43,44
 384 213 384 213 378.5 215 c 128,-1,45
 373 217 373 217 368 218.5 c 128,-1,46
 363 220 363 220 358.5 220.5 c 128,-1,47
 354 221 354 221 351 219 c 128,-1,48
 348 217 348 217 347 212 c 1,49,-1
 333 212 l 1,50,-1
 333 277 l 1,51,-1
 347 277 l 1,0,1
552 146 m 1,52,53
 543 152 543 152 542 157 c 0,54,55
 542 160 542 160 549 169 c 0,56,57
 562 186 562 186 582 189 c 0,58,59
 614 194 614 194 633 167.5 c 128,-1,60
 652 141 652 141 635 113 c 0,61,62
 629 103 629 103 616 95 c 1,63,64
 639 88 639 88 645.5 64 c 128,-1,65
 652 40 652 40 639 21 c 0,66,67
 621 -5 621 -5 585.5 -2 c 128,-1,68
 550 1 550 1 538 30 c 1,69,-1
 550 36 l 1,70,71
 554 25 554 25 561 20 c 0,72,73
 567 15 567 15 576 12 c 0,74,75
 595 7 595 7 607 19.5 c 128,-1,76
 619 32 619 32 619 52 c 0,77,78
 619 62 619 62 614 71.5 c 128,-1,79
 609 81 609 81 600 84 c 0,80,81
 593 87 593 87 569 87 c 1,82,-1
 569 99 l 1,83,84
 588 99 588 99 598 106 c 0,85,86
 609 113 609 113 612.5 127 c 128,-1,87
 616 141 616 141 611 153 c 0,88,89
 606 167 606 167 592.5 170.5 c 128,-1,90
 579 174 579 174 568 165 c 0,91,92
 561 160 561 160 552 146 c 1,52,53
149 492 m 1,93,94
 152 455 152 455 181 447 c 0,95,96
 194 442 194 442 211.5 447 c 128,-1,97
 229 452 229 452 229.5 468.5 c 128,-1,98
 230 485 230 485 207 499 c 0,99,100
 201 503 201 503 186.5 510.5 c 128,-1,101
 172 518 172 518 162 525 c 128,-1,102
 152 532 152 532 144 541 c 0,103,104
 125 566 125 566 140 591 c 128,-1,105
 155 616 155 616 185 619 c 0,106,107
 199 620 199 620 212 616 c 2,108,-1
 219 613 l 2,109,110
 226 610 226 610 229.5 610 c 128,-1,111
 233 610 233 610 234.5 613.5 c 128,-1,112
 236 617 236 617 237 618 c 128,-1,113
 238 619 238 619 250 619 c 1,114,-1
 250 553 l 1,115,-1
 236 553 l 1,116,117
 231 589 231 589 210 598 c 0,118,119
 196 605 196 605 179 598.5 c 128,-1,120
 162 592 162 592 165 574 c 0,121,122
 167 561 167 561 193 545 c 0,123,124
 198 542 198 542 206 538 c 2,125,-1
 218 531 l 2,126,127
 224 528 224 528 231.5 523.5 c 128,-1,128
 239 519 239 519 243 515 c 2,129,-1
 252 506 l 2,130,131
 258 500 258 500 259 494 c 2,132,-1
 262 481 l 2,133,134
 263 473 263 473 259 465 c 0,135,136
 253 444 253 444 232.5 434.5 c 128,-1,137
 212 425 212 425 189 428 c 0,138,139
 186 428 186 428 180 430 c 2,140,-1
 170 434 l 2,141,142
 166 435 166 435 161 435.5 c 128,-1,143
 156 436 156 436 153 434 c 128,-1,144
 150 432 150 432 149 427 c 1,145,-1
 135 427 l 1,146,-1
 135 492 l 1,147,-1
 149 492 l 1,93,94
EndSplineSet
EndChar
StartChar: uni0092
Encoding: 146 146 145
Width: 790
Flags: W
LayerCount: 2
Fore
SplineSet
292 403 m 1,0,-1
 381 403 l 1,1,-1
 381 393 l 1,2,3
 360 393 360 393 355 381 c 0,4,5
 353 376 353 376 353 369 c 128,-1,6
 353 362 353 362 353.5 353 c 128,-1,7
 354 344 354 344 354 341 c 0,8,9
 354 335 354 335 353.5 321.5 c 128,-1,10
 353 308 353 308 353 300 c 128,-1,11
 353 292 353 292 354.5 281 c 128,-1,12
 356 270 356 270 359 261 c 0,13,14
 364 248 364 248 374.5 239.5 c 128,-1,15
 385 231 385 231 398 230 c 0,16,17
 409 230 409 230 416 233 c 0,18,19
 426 237 426 237 433 244 c 128,-1,20
 440 251 440 251 443.5 258.5 c 128,-1,21
 447 266 447 266 449 278 c 128,-1,22
 451 290 451 290 451 297.5 c 128,-1,23
 451 305 451 305 450.5 319 c 128,-1,24
 450 333 450 333 450 338 c 0,25,26
 450 340 450 340 450.5 351 c 128,-1,27
 451 362 451 362 451 368 c 128,-1,28
 451 374 451 374 448 381.5 c 128,-1,29
 445 389 445 389 439 392 c 0,30,31
 436 393 436 393 424 393 c 1,32,-1
 424 403 l 1,33,-1
 499 403 l 1,34,-1
 499 393 l 1,35,36
 486 393 486 393 483 392 c 0,37,38
 477 389 477 389 474.5 380.5 c 128,-1,39
 472 372 472 372 471.5 364.5 c 128,-1,40
 471 357 471 357 472 345 c 128,-1,41
 473 333 473 333 473 330 c 2,42,-1
 473 312 l 1,43,-1
 473 292 l 2,44,45
 473 288 473 288 471.5 275.5 c 128,-1,46
 470 263 470 263 467 257 c 128,-1,47
 464 251 464 251 458.5 242.5 c 128,-1,48
 453 234 453 234 446 227 c 0,49,50
 439 221 439 221 427 217 c 0,51,52
 416 213 416 213 403 213 c 0,53,54
 374 213 374 213 351.5 226 c 128,-1,55
 329 239 329 239 321 266 c 0,56,57
 318 277 318 277 318 319 c 2,58,-1
 318 367 l 2,59,60
 318 386 318 386 308 391 c 0,61,62
 305 393 305 393 292 393 c 1,63,-1
 292 403 l 1,0,-1
534 131 m 1,64,65
 537 165 537 165 561 181 c 0,66,67
 584 196 584 196 610.5 185.5 c 128,-1,68
 637 175 637 175 644 149 c 0,69,70
 650 126 650 126 633 97 c 0,71,72
 628 89 628 89 622.5 81.5 c 128,-1,73
 617 74 617 74 609 64 c 2,74,-1
 598 51 l 1,75,-1
 582 36 l 2,76,77
 571 24 571 24 570 22 c 1,78,79
 574 22 574 22 587.5 21.5 c 128,-1,80
 601 21 601 21 610.5 21.5 c 128,-1,81
 620 22 620 22 628 24 c 0,82,83
 632 25 632 25 637 30 c 128,-1,84
 642 35 642 35 644 36 c 0,85,86
 645 37 645 37 657 37 c 1,87,-1
 643 -2 l 1,88,-1
 529 -2 l 1,89,90
 529 3 529 3 531.5 8 c 128,-1,91
 534 13 534 13 536.5 16 c 128,-1,92
 539 19 539 19 544.5 23.5 c 128,-1,93
 550 28 550 28 552 30 c 2,94,-1
 562 40 l 2,95,96
 572 49 572 49 574.5 52 c 128,-1,97
 577 55 577 55 585 63.5 c 128,-1,98
 593 72 593 72 596 77.5 c 128,-1,99
 599 83 599 83 604 91 c 128,-1,100
 609 99 609 99 611 106 c 128,-1,101
 613 113 613 113 613 121 c 0,102,103
 614 138 614 138 605 152.5 c 128,-1,104
 596 167 596 167 579 164 c 0,105,106
 563 161 563 161 553 144 c 0,107,108
 553 143 553 143 551 138 c 128,-1,109
 549 133 549 133 547 132 c 128,-1,110
 545 131 545 131 534 131 c 1,64,65
176 535 m 1,111,112
 202 532 202 532 209 532 c 0,113,114
 220 533 220 533 229 538 c 0,115,116
 243 545 243 545 246 561.5 c 128,-1,117
 249 578 249 578 237 589 c 0,118,119
 226 600 226 600 200 600 c 0,120,121
 179 600 179 600 177 596 c 0,122,123
 176 595 176 595 176 579 c 2,124,-1
 176 535 l 1,111,112
114 618 m 1,125,126
 198 618 198 618 211 617 c 0,127,128
 245 615 245 615 260 606 c 0,129,130
 281 593 281 593 281.5 565.5 c 128,-1,131
 282 538 282 538 261 525 c 0,132,133
 254 521 254 521 246 518.5 c 128,-1,134
 238 516 238 516 228 515 c 128,-1,135
 218 514 218 514 211 514 c 2,136,-1
 192 514 l 1,137,-1
 176 514 l 1,138,-1
 176 465 l 2,139,140
 176 446 176 446 185 440 c 0,141,142
 188 438 188 438 202 439 c 1,143,-1
 202 428 l 1,144,-1
 114 428 l 1,145,-1
 114 438 l 1,146,147
 134 438 134 438 139 451 c 0,148,149
 141 456 141 456 141.5 462.5 c 128,-1,150
 142 469 142 469 141.5 478.5 c 128,-1,151
 141 488 141 488 141 491 c 2,152,-1
 141 562 l 2,153,154
 141 564 141 564 141.5 572 c 128,-1,155
 142 580 142 580 141.5 585.5 c 128,-1,156
 141 591 141 591 139 595 c 0,157,158
 136 603 136 603 130.5 605.5 c 128,-1,159
 125 608 125 608 114 608 c 1,160,-1
 114 618 l 1,125,126
EndSplineSet
EndChar
StartChar: uni0095
Encoding: 149 149 148
Width: 790
Flags: W
LayerCount: 2
Fore
SplineSet
329 295 m 1,0,-1
 417 295 l 1,1,-1
 417 285 l 1,2,3
 405 285 405 285 403 284 c 128,-1,4
 401 283 401 283 399.5 280.5 c 128,-1,5
 398 278 398 278 398 276 c 2,6,-1
 398 270 l 2,7,8
 398 267 398 267 399.5 264 c 128,-1,9
 401 261 401 261 402 258.5 c 128,-1,10
 403 256 403 256 404 253 c 128,-1,11
 405 250 405 250 406 249 c 2,12,-1
 432 186 l 2,13,14
 444 157 444 157 444 154 c 2,15,-1
 445 154 l 1,16,17
 447 164 447 164 458 185.5 c 128,-1,18
 469 207 469 207 471 219 c 0,19,20
 471 222 471 222 463 243 c 0,21,22
 462 245 462 245 458 254 c 2,23,-1
 453 266 l 2,24,25
 451 271 451 271 446.5 276 c 128,-1,26
 442 281 442 281 437 284 c 0,27,28
 434 285 434 285 420 285 c 1,29,-1
 420 295 l 1,30,-1
 509 295 l 1,31,-1
 509 285 l 1,32,33
 497 285 497 285 496 284 c 0,34,35
 492 282 492 282 490.5 279 c 128,-1,36
 489 276 489 276 490 271.5 c 128,-1,37
 491 267 491 267 492 263.5 c 128,-1,38
 493 260 493 260 495.5 254.5 c 128,-1,39
 498 249 498 249 499 248 c 2,40,-1
 524 185 l 2,41,42
 535 157 535 157 536 154 c 2,43,-1
 537 154 l 1,44,45
 538 159 538 159 551 188 c 2,46,-1
 576 248 l 2,47,48
 576 249 576 249 577 251.5 c 128,-1,49
 578 254 578 254 579 255.5 c 128,-1,50
 580 257 580 257 581 260 c 128,-1,51
 582 263 582 263 582.5 265 c 128,-1,52
 583 267 583 267 583 270 c 2,53,-1
 583 274 l 2,54,55
 583 276 583 276 582 278 c 128,-1,56
 581 280 581 280 579.5 281.5 c 128,-1,57
 578 283 578 283 576 284 c 128,-1,58
 574 285 574 285 562 285 c 1,59,-1
 562 295 l 1,60,-1
 638 295 l 1,61,-1
 638 285 l 1,62,63
 625 285 625 285 622 284 c 0,64,65
 618 282 618 282 614.5 279.5 c 128,-1,66
 611 277 611 277 608 272 c 128,-1,67
 605 267 605 267 603.5 264 c 128,-1,68
 602 261 602 261 599.5 254.5 c 128,-1,69
 597 248 597 248 597 246 c 2,70,-1
 556 149 l 1,71,-1
 543 118 l 2,72,73
 538 107 538 107 537 107 c 0,74,75
 535 106 535 106 528.5 105.5 c 128,-1,76
 522 105 522 105 519.5 106 c 128,-1,77
 517 107 517 107 513 119 c 2,78,-1
 498 153 l 2,79,80
 483 189 483 189 483 192 c 2,81,-1
 482 192 l 1,82,83
 481 188 481 188 467 155 c 2,84,-1
 452 119 l 2,85,86
 447 107 447 107 445 106 c 0,87,88
 440 102 440 102 435.5 104 c 128,-1,89
 431 106 431 106 428.5 107 c 128,-1,90
 426 108 426 108 423 113 c 128,-1,91
 420 118 420 118 419 121.5 c 128,-1,92
 418 125 418 125 415.5 130.5 c 128,-1,93
 413 136 413 136 412 138 c 0,94,95
 409 145 409 145 390 193.5 c 128,-1,96
 371 242 371 242 359 266 c 1,97,-1
 361 266 l 1,98,99
 350 284 350 284 329 285 c 1,100,-1
 329 295 l 1,0,-1
182 510 m 1,101,-1
 226 510 l 1,102,-1
 243 509 l 1,103,-1
 249 497 l 1,104,-1
 262 470 l 1,105,-1
 312 367 l 1,106,-1
 363 471 l 1,107,-1
 376 499 l 1,108,-1
 382 509 l 1,109,-1
 396 510 l 1,110,-1
 432 510 l 1,111,-1
 432 500 l 1,112,113
 412 500 412 500 407 487 c 0,114,115
 405 483 405 483 405 477.5 c 128,-1,116
 405 472 405 472 405.5 464 c 128,-1,117
 406 456 406 456 406 454 c 2,118,-1
 406 383 l 2,119,120
 406 380 406 380 405.5 371 c 128,-1,121
 405 362 405 362 405 355.5 c 128,-1,122
 405 349 405 349 407 344 c 0,123,124
 412 331 412 331 432 331 c 1,125,-1
 432 321 l 1,126,-1
 345 321 l 1,127,-1
 345 331 l 1,128,129
 363 331 363 331 368 340 c 0,130,131
 371 345 371 345 371 372 c 2,132,-1
 371 441 l 1,133,-1
 370 441 l 1,134,135
 368 436 368 436 354 407 c 2,136,-1
 332 360 l 2,137,138
 332 359 332 359 325 344 c 128,-1,139
 318 329 318 329 314 323 c 0,140,141
 311 319 311 319 295 321 c 0,142,143
 292 322 292 322 289 327 c 128,-1,144
 286 332 286 332 283 339.5 c 128,-1,145
 280 347 280 347 280 348 c 2,146,-1
 253 404 l 2,147,148
 240 431 240 431 238 436 c 1,149,-1
 237 436 l 1,150,-1
 237 368 l 2,151,152
 237 343 237 343 243 336 c 0,153,154
 248 331 248 331 264 331 c 1,155,-1
 264 321 l 1,156,-1
 189 321 l 1,157,-1
 189 331 l 1,158,159
 210 331 210 331 214 345 c 0,160,161
 215 350 215 350 215.5 355.5 c 128,-1,162
 216 361 216 361 215.5 368.5 c 128,-1,163
 215 376 215 376 215 379 c 2,164,-1
 215 449 l 2,165,166
 215 452 215 452 216 460.5 c 128,-1,167
 217 469 217 469 216.5 475.5 c 128,-1,168
 216 482 216 482 214 486 c 0,169,170
 207 500 207 500 182 500 c 1,171,-1
 182 510 l 1,101,-1
EndSplineSet
EndChar
StartChar: uni0097
Encoding: 151 151 150
Width: 790
Flags: W
LayerCount: 2
Fore
SplineSet
585 137 m 1,0,-1
 561 78 l 1,1,-1
 610 78 l 1,2,-1
 595 116 l 1,3,-1
 585 137 l 1,0,-1
485 7 m 1,4,5
 497 7 497 7 505.5 13.5 c 128,-1,6
 514 20 514 20 517 26 c 128,-1,7
 520 32 520 32 526 46 c 2,8,-1
 568 147 l 1,9,-1
 580 176 l 2,10,11
 584 186 584 186 586 187 c 0,12,13
 590 189 590 189 593 189 c 128,-1,14
 596 189 596 189 598.5 187.5 c 128,-1,15
 601 186 601 186 603 184.5 c 128,-1,16
 605 183 605 183 606 180 c 2,17,-1
 609 175 l 2,18,19
 610 173 610 173 611.5 169 c 128,-1,20
 613 165 613 165 614 164 c 2,21,-1
 655 65 l 1,22,-1
 667 37 l 2,23,24
 671 28 671 28 669 26 c 0,25,26
 678 15 678 15 684 11.5 c 128,-1,27
 690 8 690 8 702 8 c 1,28,-1
 702 -2 l 1,29,-1
 613 -2 l 1,30,-1
 613 7 l 1,31,32
 624 7 624 7 628 9 c 0,33,34
 631 11 631 11 632.5 13.5 c 128,-1,35
 634 16 634 16 633 20.5 c 128,-1,36
 632 25 632 25 631 28 c 128,-1,37
 630 31 630 31 628 36 c 2,38,-1
 625 41 l 2,39,40
 625 42 625 42 623 47 c 2,41,-1
 620 54 l 2,42,43
 619 57 619 57 616.5 59.5 c 128,-1,44
 614 62 614 62 611 62 c 2,45,-1
 571 62 l 2,46,47
 557 62 557 62 555.5 60.5 c 128,-1,48
 554 59 554 59 550 49 c 2,49,-1
 546 42 l 2,50,51
 544 37 544 37 543 33.5 c 128,-1,52
 542 30 542 30 540.5 25.5 c 128,-1,53
 539 21 539 21 540 17 c 128,-1,54
 541 13 541 13 544 10 c 0,55,56
 546 8 546 8 560 8 c 1,57,-1
 560 -2 l 1,58,-1
 485 -2 l 1,59,-1
 485 7 l 1,4,5
374 315 m 1,60,61
 400 312 400 312 407 312 c 0,62,63
 418 313 418 313 428 318 c 0,64,65
 441 325 441 325 444 342 c 128,-1,66
 447 359 447 359 436 369 c 0,67,68
 425 380 425 380 398 380 c 0,69,70
 377 380 377 380 374 377 c 0,71,72
 373 376 373 376 374 360 c 2,73,-1
 374 315 l 1,60,61
312 398 m 1,74,75
 396 398 396 398 409 397 c 0,76,77
 444 395 444 395 459 386 c 0,78,79
 479 373 479 373 479 345.5 c 128,-1,80
 479 318 479 318 459 306 c 0,81,82
 452 302 452 302 443.5 299 c 128,-1,83
 435 296 435 296 425.5 295 c 128,-1,84
 416 294 416 294 409 294 c 128,-1,85
 402 294 402 294 390 294.5 c 128,-1,86
 378 295 378 295 374 295 c 1,87,-1
 374 245 l 2,88,89
 374 226 374 226 383 221 c 0,90,91
 386 219 386 219 400 219 c 1,92,-1
 400 208 l 1,93,-1
 312 208 l 1,94,-1
 312 218 l 1,95,96
 333 218 333 218 337 232 c 0,97,98
 338 236 338 236 338.5 242 c 128,-1,99
 339 248 339 248 338.5 255.5 c 128,-1,100
 338 263 338 263 338 266 c 2,101,-1
 338 336 l 2,102,103
 338 339 338 339 339 348 c 128,-1,104
 340 357 340 357 339.5 363.5 c 128,-1,105
 339 370 339 370 337 375 c 0,106,107
 334 383 334 383 328.5 385.5 c 128,-1,108
 323 388 323 388 312 388 c 1,109,-1
 312 398 l 1,74,75
111 618 m 1,110,-1
 229 618 l 1,111,-1
 258 618 l 1,112,-1
 270 617 l 1,113,-1
 275 603 l 1,114,-1
 286 567 l 1,115,116
 273 567 273 567 271 568 c 2,117,-1
 266 578 l 2,118,119
 256 597 256 597 249 599 c 0,120,121
 246 600 246 600 224 600 c 2,122,-1
 172 600 l 1,123,-1
 172 532 l 1,124,-1
 213 532 l 2,125,126
 229 532 229 532 235 541 c 0,127,128
 238 545 238 545 237 558 c 1,129,-1
 251 558 l 1,130,-1
 251 488 l 1,131,-1
 237 488 l 1,132,133
 237 501 237 501 235 506 c 0,134,135
 229 515 229 515 213 514 c 2,136,-1
 172 514 l 1,137,-1
 172 446 l 1,138,-1
 224 446 l 2,139,140
 246 446 246 446 249 447 c 0,141,142
 257 450 257 450 266 469 c 2,143,-1
 271 478 l 2,144,145
 272 479 272 479 285 479 c 1,146,-1
 274 443 l 1,147,-1
 269 429 l 1,148,-1
 258 428 l 1,149,-1
 228 428 l 1,150,-1
 111 428 l 1,151,-1
 111 438 l 1,152,153
 131 438 131 438 136 451 c 0,154,155
 138 456 138 456 138 462.5 c 128,-1,156
 138 469 138 469 137.5 478.5 c 128,-1,157
 137 488 137 488 137 491 c 2,158,-1
 137 562 l 2,159,160
 137 564 137 564 137.5 572 c 128,-1,161
 138 580 138 580 137.5 585.5 c 128,-1,162
 137 591 137 591 136 595 c 0,163,164
 133 603 133 603 127 605.5 c 128,-1,165
 121 608 121 608 111 608 c 1,166,-1
 111 618 l 1,110,-1
EndSplineSet
EndChar
StartChar: uni009E
Encoding: 158 158 157
Width: 790
Flags: W
LayerCount: 2
Fore
SplineSet
359 295 m 1,0,-1
 402 295 l 1,1,-1
 419 294 l 1,2,-1
 425 282 l 1,3,-1
 438 255 l 1,4,-1
 488 151 l 1,5,-1
 539 256 l 1,6,-1
 552 283 l 1,7,-1
 558 294 l 1,8,-1
 572 295 l 1,9,-1
 608 295 l 1,10,-1
 608 285 l 1,11,12
 588 285 588 285 583 272 c 0,13,14
 581 268 581 268 581 262 c 128,-1,15
 581 256 581 256 581.5 248.5 c 128,-1,16
 582 241 582 241 582 238 c 2,17,-1
 582 168 l 2,18,19
 582 165 582 165 581.5 156 c 128,-1,20
 581 147 581 147 581 140.5 c 128,-1,21
 581 134 581 134 583 128 c 0,22,23
 588 115 588 115 608 115 c 1,24,-1
 608 106 l 1,25,-1
 520 106 l 1,26,-1
 520 115 l 1,27,28
 538 115 538 115 544 124 c 0,29,30
 546 127 546 127 546.5 131.5 c 128,-1,31
 547 136 547 136 547 140 c 2,32,-1
 547 148 l 1,33,-1
 547 156 l 1,34,-1
 547 225 l 1,35,-1
 546 225 l 1,36,37
 545 220 545 220 528 187 c 2,38,-1
 500 128 l 2,39,40
 499 126 499 126 497 122.5 c 128,-1,41
 495 119 495 119 494 117 c 2,42,-1
 492 112 l 2,43,44
 490 109 490 109 488 108 c 128,-1,45
 486 107 486 107 483.5 106 c 128,-1,46
 481 105 481 105 478 105 c 128,-1,47
 475 105 475 105 471 106 c 0,48,49
 468 107 468 107 465 112 c 128,-1,50
 462 117 462 117 459.5 124.5 c 128,-1,51
 457 132 457 132 456 134 c 0,52,53
 451 144 451 144 443 161.5 c 128,-1,54
 435 179 435 179 431 187 c 0,55,56
 415 219 415 219 414 224 c 1,57,-1
 413 224 l 1,58,-1
 413 157 l 2,59,60
 413 130 413 130 416 125 c 0,61,62
 421 115 421 115 439 115 c 1,63,-1
 439 106 l 1,64,-1
 365 106 l 1,65,-1
 365 115 l 1,66,67
 386 115 386 115 390 128 c 0,68,69
 392 132 392 132 392 137.5 c 128,-1,70
 392 143 392 143 391.5 150.5 c 128,-1,71
 391 158 391 158 391 161 c 2,72,-1
 391 235 l 2,73,74
 391 238 391 238 392 246 c 128,-1,75
 393 254 393 254 392.5 260.5 c 128,-1,76
 392 267 392 267 390 271 c 0,77,78
 383 285 383 285 359 285 c 1,79,-1
 359 295 l 1,0,-1
286 490 m 1,80,-1
 286 445 l 2,81,82
 286 429 286 429 287 428 c 0,83,84
 290 425 290 425 310 425 c 0,85,86
 336 425 336 425 348 436 c 0,87,88
 358 446 358 446 356 462 c 128,-1,89
 354 478 354 478 342 485 c 0,90,91
 333 490 333 490 321 492 c 0,92,93
 313 493 313 493 309 492 c 2,94,-1
 298 491 l 2,95,96
 290 490 290 490 286 490 c 1,80,-1
224 510 m 1,97,-1
 304 510 l 2,98,99
 351 510 351 510 371 497 c 0,100,101
 392 484 392 484 391.5 457 c 128,-1,102
 391 430 391 430 370 417 c 0,103,104
 361 412 361 412 349 409.5 c 128,-1,105
 337 407 337 407 330 406.5 c 128,-1,106
 323 406 323 406 306 406.5 c 128,-1,107
 289 407 289 407 286 407 c 2,108,-1
 286 358 l 2,109,110
 286 339 286 339 294 333 c 0,111,112
 298 330 298 330 312 331 c 1,113,-1
 312 321 l 1,114,-1
 224 321 l 1,115,-1
 224 331 l 1,116,117
 244 331 244 331 249 344 c 0,118,119
 251 349 251 349 251.5 355.5 c 128,-1,120
 252 362 252 362 251 371 c 128,-1,121
 250 380 250 380 250 383 c 2,122,-1
 250 454 l 2,123,124
 250 456 250 456 250.5 464 c 128,-1,125
 251 472 251 472 251 477.5 c 128,-1,126
 251 483 251 483 249 487 c 0,127,128
 244 500 244 500 224 500 c 1,129,-1
 224 510 l 1,97,-1
EndSplineSet
EndChar
StartChar: sterling
Encoding: 163 163 162
Width: 453
Flags: W
LayerCount: 2
Fore
SplineSet
25 -8 m 1,0,-1
 36 -15 l 1,1,-1
 25 -8 l 1,0,-1
32 310 m 1,2,-1
 36 306 l 1,3,-1
 32 310 l 1,2,-1
134 306 m 1,4,-1
 134 318 l 2,5,6
 133 355 133 355 134 376.5 c 128,-1,7
 135 398 135 398 141.5 430 c 128,-1,8
 148 462 148 462 160 484 c 0,9,10
 196 547 196 547 266 572.5 c 128,-1,11
 336 598 336 598 401 570 c 0,12,13
 404 569 404 569 417.5 568 c 128,-1,14
 431 567 431 567 435 564 c 0,15,16
 447 550 447 550 383 505 c 1,17,18
 360 533 360 533 327.5 546 c 128,-1,19
 295 559 295 559 262.5 548 c 128,-1,20
 230 537 230 537 214 501 c 0,21,22
 207 485 207 485 202 467 c 128,-1,23
 197 449 197 449 195.5 426 c 128,-1,24
 194 403 194 403 194 388 c 128,-1,25
 194 373 194 373 194.5 346.5 c 128,-1,26
 195 320 195 320 195 310 c 1,27,-1
 208 310 l 2,28,29
 335 310 335 310 394 325 c 1,30,31
 393 316 393 316 390.5 309.5 c 128,-1,32
 388 303 388 303 382 300.5 c 128,-1,33
 376 298 376 298 372 297 c 128,-1,34
 368 296 368 296 358 295 c 128,-1,35
 348 294 348 294 343 293 c 0,36,37
 304 288 304 288 191 289 c 1,38,-1
 191 266 l 1,39,-1
 191 242 l 1,40,-1
 191 221 l 2,41,42
 191 205 191 205 190 198 c 2,43,-1
 186 177 l 2,44,45
 183 164 183 164 179.5 153.5 c 128,-1,46
 176 143 176 143 170 133 c 0,47,48
 162 115 162 115 140 88 c 2,49,-1
 112 54 l 1,50,51
 135 54 135 54 215.5 43.5 c 128,-1,52
 296 33 296 33 336 41 c 0,53,54
 349 44 349 44 363.5 59 c 128,-1,55
 378 74 378 74 391.5 84.5 c 128,-1,56
 405 95 405 95 419 90 c 1,57,58
 381 9 381 9 339 -8 c 0,59,60
 330 -11 330 -11 319 -11 c 128,-1,61
 308 -11 308 -11 300 -10 c 2,62,-1
 279 -6 l 2,63,64
 266 -3 266 -3 260 -2 c 0,65,66
 203 7 203 7 148 6 c 0,67,68
 138 6 138 6 91 -5 c 128,-1,69
 44 -16 44 -16 25 -8 c 1,70,71
 36 8 36 8 70.5 44 c 128,-1,72
 105 80 105 80 118 104 c 0,73,74
 127 122 127 122 132.5 148.5 c 128,-1,75
 138 175 138 175 138.5 190 c 128,-1,76
 139 205 139 205 138 241.5 c 128,-1,77
 137 278 137 278 137 285 c 1,78,-1
 25 285 l 1,79,80
 30 293 30 293 38.5 298 c 128,-1,81
 47 303 47 303 61 305 c 128,-1,82
 75 307 75 307 86 307 c 128,-1,83
 97 307 97 307 112.5 306.5 c 128,-1,84
 128 306 128 306 134 306 c 1,4,-1
EndSplineSet
EndChar
StartChar: currency
Encoding: 164 164 163
Width: 663
Flags: W
LayerCount: 2
Fore
SplineSet
307 486 m 0,0,1
 270 480 270 480 239 459 c 0,2,3
 203 436 203 436 184 400.5 c 128,-1,4
 165 365 165 365 163.5 328.5 c 128,-1,5
 162 292 162 292 176 255.5 c 128,-1,6
 190 219 190 219 215 192.5 c 128,-1,7
 240 166 240 166 277.5 152.5 c 128,-1,8
 315 139 315 139 358 145 c 0,9,10
 393 151 393 151 420.5 167 c 128,-1,11
 448 183 448 183 464 205.5 c 128,-1,12
 480 228 480 228 490 256 c 128,-1,13
 500 284 500 284 498.5 312.5 c 128,-1,14
 497 341 497 341 489.5 369 c 128,-1,15
 482 397 482 397 465.5 420 c 128,-1,16
 449 443 449 443 426.5 460 c 128,-1,17
 404 477 404 477 373 484.5 c 128,-1,18
 342 492 342 492 307 486 c 0,0,1
137 541 m 1,19,-1
 199 489 l 1,20,-1
 253 515 l 1,21,-1
 347 530 l 1,22,-1
 426 508 l 1,23,-1
 466 489 l 1,24,-1
 524 541 l 1,25,-1
 527 541 l 1,26,-1
 557 509 l 2,27,28
 555 508 555 508 547 503 c 2,29,-1
 536 494 l 1,30,-1
 525 484 l 2,31,32
 518 478 518 478 514 473.5 c 128,-1,33
 510 469 510 469 506 463.5 c 128,-1,34
 502 458 502 458 501 453 c 0,35,36
 500 446 500 446 506 436 c 2,37,-1
 520 414 l 2,38,39
 528 401 528 401 530 397 c 0,40,41
 549 354 549 354 545 296 c 0,42,43
 543 255 543 255 521 216 c 0,44,45
 520 213 520 213 513.5 205 c 128,-1,46
 507 197 507 197 503.5 190.5 c 128,-1,47
 500 184 500 184 501 179 c 0,48,49
 505 159 505 159 557 122 c 1,50,-1
 527 90 l 1,51,-1
 524 90 l 2,52,53
 521 93 521 93 508.5 107.5 c 128,-1,54
 496 122 496 122 485.5 131 c 128,-1,55
 475 140 475 140 466 142 c 0,56,57
 460 143 460 143 454 140 c 128,-1,58
 448 137 448 137 440 131.5 c 128,-1,59
 432 126 432 126 430 125 c 0,60,61
 398 107 398 107 362 102 c 0,62,63
 306 94 306 94 256 115 c 0,64,65
 251 117 251 117 239.5 124.5 c 128,-1,66
 228 132 228 132 217 137 c 128,-1,67
 206 142 206 142 199 142 c 0,68,69
 190 140 190 140 179.5 131 c 128,-1,70
 169 122 169 122 156 107 c 128,-1,71
 143 92 143 92 141 90 c 2,72,-1
 137 90 l 1,73,-1
 108 122 l 2,74,75
 109 123 109 123 116 128 c 2,76,-1
 126 134 l 1,77,-1
 136 142 l 2,78,79
 142 147 142 147 146 151 c 2,80,-1
 154 160 l 2,81,82
 158 165 158 165 160.5 169.5 c 128,-1,83
 163 174 163 174 164 178 c 0,84,85
 165 184 165 184 159.5 194 c 128,-1,86
 154 204 154 204 146.5 215 c 128,-1,87
 139 226 139 226 137 230 c 0,88,89
 116 277 116 277 119 335 c 0,90,91
 123 377 123 377 144 414 c 0,92,93
 145 417 145 417 151.5 425 c 128,-1,94
 158 433 158 433 161.5 440 c 128,-1,95
 165 447 165 447 164 452 c 0,96,97
 162 460 162 460 152 471 c 128,-1,98
 142 482 142 482 127 493.5 c 128,-1,99
 112 505 112 505 108 509 c 1,100,-1
 108 512 l 1,101,-1
 137 541 l 1,19,-1
EndSplineSet
EndChar
StartChar: uni00AD
Encoding: 173 173 172
Width: 289
Flags: W
LayerCount: 2
Fore
SplineSet
32 198 m 1,0,-1
 256 198 l 1,1,-1
 256 147 l 1,2,-1
 32 147 l 1,3,-1
 32 198 l 1,0,-1
EndSplineSet
EndChar
StartChar: degree
Encoding: 176 176 175
Width: 405
Flags: W
LayerCount: 2
Fore
SplineSet
181 550 m 0,0,1
 153 545 153 545 133 529 c 128,-1,2
 113 513 113 513 105 491.5 c 128,-1,3
 97 470 97 470 95.5 446 c 128,-1,4
 94 422 94 422 103 399.5 c 128,-1,5
 112 377 112 377 127 359.5 c 128,-1,6
 142 342 142 342 166 334 c 128,-1,7
 190 326 190 326 218 332 c 0,8,9
 246 337 246 337 267 353 c 128,-1,10
 288 369 288 369 296 390 c 128,-1,11
 304 411 304 411 305.5 435.5 c 128,-1,12
 307 460 307 460 298 482 c 128,-1,13
 289 504 289 504 274 522 c 128,-1,14
 259 540 259 540 234 548 c 128,-1,15
 209 556 209 556 181 550 c 0,0,1
179 591 m 0,16,17
 217 599 217 599 250.5 588 c 128,-1,18
 284 577 284 577 304.5 553 c 128,-1,19
 325 529 325 529 338 498 c 128,-1,20
 351 467 351 467 349 434 c 128,-1,21
 347 401 347 401 336 371.5 c 128,-1,22
 325 342 325 342 297 320 c 128,-1,23
 269 298 269 298 230 291 c 0,24,25
 190 284 190 284 156 295 c 128,-1,26
 122 306 122 306 101 329 c 128,-1,27
 80 352 80 352 67 383 c 128,-1,28
 54 414 54 414 56 447.5 c 128,-1,29
 58 481 58 481 69.5 510.5 c 128,-1,30
 81 540 81 540 109.5 562 c 128,-1,31
 138 584 138 584 179 591 c 0,16,17
EndSplineSet
EndChar
StartChar: periodcentered
Encoding: 183 183 182
Width: 163
Flags: W
LayerCount: 2
Fore
SplineSet
117 291 m 0,0,1
 136 282 136 282 135 280 c 0,2,3
 127 272 127 272 111 251 c 0,4,5
 87 220 87 220 85 215 c 1,6,-1
 55 253 l 1,7,-1
 31 278 l 1,8,9
 59 293 59 293 75 332 c 1,10,11
 80 331 80 331 98 312 c 128,-1,12
 116 293 116 293 117 291 c 0,0,1
EndSplineSet
EndChar
StartChar: cedilla
Encoding: 184 184 183
Width: 308
Flags: W
LayerCount: 2
Fore
SplineSet
116 -73 m 1,0,-1
 119 -77 l 1,1,-1
 116 -73 l 1,0,-1
119 -73 m 1,2,3
 153 9 153 9 195 10 c 1,4,-1
 170 -33 l 1,5,6
 200 -46 200 -46 218 -68.5 c 128,-1,7
 236 -91 236 -91 233.5 -118.5 c 128,-1,8
 231 -146 231 -146 203 -168 c 0,9,10
 160 -204 160 -204 76 -204 c 1,11,-1
 76 -181 l 1,12,13
 139 -181 139 -181 169 -154 c 0,14,15
 186 -140 186 -140 186.5 -122 c 128,-1,16
 187 -104 187 -104 169 -90 c 0,17,18
 163 -85 163 -85 154.5 -82.5 c 128,-1,19
 146 -80 146 -80 135 -77.5 c 128,-1,20
 124 -75 124 -75 119 -73 c 1,2,3
EndSplineSet
EndChar
StartChar: ordmasculine
Encoding: 186 186 185
Width: 289
Flags: W
LayerCount: 2
Fore
SplineSet
119 572 m 128,-1,1
 92 566 92 566 79 544 c 128,-1,2
 66 522 66 522 68.5 495.5 c 128,-1,3
 71 469 71 469 81.5 444.5 c 128,-1,4
 92 420 92 420 114.5 406.5 c 128,-1,5
 137 393 137 393 163 399 c 0,6,7
 191 405 191 405 204.5 427.5 c 128,-1,8
 218 450 218 450 216.5 476 c 128,-1,9
 215 502 215 502 204 526.5 c 128,-1,10
 193 551 193 551 169.5 564.5 c 128,-1,0
 146 578 146 578 119 572 c 128,-1,1
127 590 m 0,11,12
 197 601 197 601 236 548 c 0,13,14
 268 502 268 502 252 450 c 0,15,16
 234 394 234 394 166 384 c 0,17,18
 135 379 135 379 103.5 388 c 128,-1,19
 72 397 72 397 53 419 c 0,20,21
 25 454 25 454 28 490 c 128,-1,22
 31 526 31 526 59.5 555 c 128,-1,23
 88 584 88 584 127 590 c 0,11,12
EndSplineSet
EndChar
StartChar: Oslash
Encoding: 216 216 195
Width: 684
Flags: W
LayerCount: 2
Fore
SplineSet
163 133 m 1,0,1
 181 141 181 141 200.5 159.5 c 128,-1,2
 220 178 220 178 242.5 203 c 128,-1,3
 265 228 265 228 275 238 c 2,4,-1
 415 375 l 2,5,6
 421 381 421 381 439 396 c 2,7,-1
 466 420 l 2,8,9
 475 428 475 428 487.5 442 c 128,-1,10
 500 456 500 456 510 469 c 1,11,12
 498 477 498 477 472.5 497 c 128,-1,13
 447 517 447 517 433 526 c 128,-1,14
 419 535 419 535 395.5 545 c 128,-1,15
 372 555 372 555 347 559 c 0,16,17
 308 564 308 564 264 551 c 0,18,19
 208 536 208 536 171 501 c 128,-1,20
 134 466 134 466 121 421.5 c 128,-1,21
 108 377 108 377 109.5 325.5 c 128,-1,22
 111 274 111 274 125.5 225 c 128,-1,23
 140 176 140 176 163 133 c 1,0,1
527 448 m 1,24,25
 505 437 505 437 482 414.5 c 128,-1,26
 459 392 459 392 434 363.5 c 128,-1,27
 409 335 409 335 394 322 c 0,28,29
 369 301 369 301 344 277 c 2,30,-1
 286 217 l 1,31,-1
 239 169 l 2,32,33
 238 168 238 168 222 154.5 c 128,-1,34
 206 141 206 141 198.5 130.5 c 128,-1,35
 191 120 191 120 191 111 c 0,36,37
 192 107 192 107 194.5 103 c 128,-1,38
 197 99 197 99 200 95.5 c 128,-1,39
 203 92 203 92 208 88 c 2,40,-1
 215 82 l 2,41,42
 218 79 218 79 224.5 74.5 c 128,-1,43
 231 70 231 70 234 68.5 c 128,-1,44
 237 67 237 67 243 63 c 128,-1,45
 249 59 249 59 250 58 c 0,46,47
 305 24 305 24 366.5 21 c 128,-1,48
 428 18 428 18 484 52 c 0,49,50
 534 83 534 83 558 132.5 c 128,-1,51
 582 182 582 182 581.5 237.5 c 128,-1,52
 581 293 581 293 566.5 346.5 c 128,-1,53
 552 400 552 400 527 448 c 1,24,25
633 599 m 1,54,-1
 654 581 l 1,55,-1
 654 577 l 1,56,-1
 567 498 l 1,57,-1
 567 494 l 1,58,59
 623 452 623 452 640.5 376.5 c 128,-1,60
 658 301 658 301 640 226.5 c 128,-1,61
 622 152 622 152 580 101 c 0,62,63
 528 37 528 37 450 8.5 c 128,-1,64
 372 -20 372 -20 289 -8 c 0,65,66
 244 -2 244 -2 202.5 17 c 128,-1,67
 161 36 161 36 137 68 c 1,68,-1
 134 68 l 1,69,-1
 55 -15 l 1,70,-1
 51 -15 l 1,71,72
 26 16 26 16 119 82 c 1,73,-1
 119 86 l 1,74,75
 83 116 83 116 56 191 c 0,76,77
 26 278 26 278 50.5 366.5 c 128,-1,78
 75 455 75 455 144 515 c 0,79,80
 184 548 184 548 238.5 568.5 c 128,-1,81
 293 589 293 589 349 592.5 c 128,-1,82
 405 596 405 596 459.5 575.5 c 128,-1,83
 514 555 514 555 549 512 c 1,84,-1
 553 512 l 1,85,-1
 633 599 l 1,54,-1
EndSplineSet
EndChar
StartChar: Thorn
Encoding: 222 222 196
Width: 491
Flags: W
LayerCount: 2
Fore
SplineSet
155 141 m 1,0,1
 163 140 163 140 186 137.5 c 128,-1,2
 209 135 209 135 220 134 c 128,-1,3
 231 133 231 133 248.5 134 c 128,-1,4
 266 135 266 135 282 139 c 0,5,6
 330 151 330 151 359.5 190.5 c 128,-1,7
 389 230 389 230 393.5 276.5 c 128,-1,8
 398 323 398 323 378 368 c 0,9,10
 356 414 356 414 314 438 c 0,11,12
 268 464 268 464 203 462 c 0,13,14
 167 460 167 460 159 449 c 0,15,16
 153 441 153 441 151 426 c 128,-1,17
 149 411 149 411 150 386 c 2,18,-1
 152 361 l 2,19,20
 152 324 152 324 153.5 250.5 c 128,-1,21
 155 177 155 177 155 141 c 1,0,1
18 581 m 1,22,-1
 224 581 l 1,23,-1
 224 563 l 1,24,25
 187 559 187 559 171.5 539 c 128,-1,26
 156 519 156 519 155 480 c 1,27,28
 223 492 223 492 296.5 474.5 c 128,-1,29
 370 457 370 457 415 411 c 0,30,31
 452 373 452 373 461 326 c 128,-1,32
 470 279 470 279 453.5 239.5 c 128,-1,33
 437 200 437 200 400 168 c 0,34,35
 362 136 362 136 314 124 c 0,36,37
 237 104 237 104 155 115 c 1,38,39
 155 62 155 62 173 38.5 c 128,-1,40
 191 15 191 15 242 14 c 1,41,-1
 242 -5 l 1,42,-1
 32 -5 l 1,43,-1
 32 10 l 1,44,45
 42 12 42 12 50.5 15.5 c 128,-1,46
 59 19 59 19 65 23 c 128,-1,47
 71 27 71 27 76 34 c 2,48,-1
 83 44 l 2,49,50
 86 48 86 48 88.5 57.5 c 128,-1,51
 91 67 91 67 91.5 71 c 128,-1,52
 92 75 92 75 93 86.5 c 128,-1,53
 94 98 94 98 94 102 c 2,54,-1
 94 119 l 1,55,-1
 94 137 l 2,56,57
 94 155 94 155 87 444 c 0,58,59
 87 447 87 447 86.5 460.5 c 128,-1,60
 86 474 86 474 86 477.5 c 128,-1,61
 86 481 86 481 85 493.5 c 128,-1,62
 84 506 84 506 82.5 509.5 c 128,-1,63
 81 513 81 513 79 523 c 128,-1,64
 77 533 77 533 73 536.5 c 128,-1,65
 69 540 69 540 64 546.5 c 128,-1,66
 59 553 59 553 52.5 555.5 c 128,-1,67
 46 558 46 558 38 560 c 0,68,69
 28 562 28 562 18 563 c 1,70,-1
 18 581 l 1,22,-1
EndSplineSet
EndChar
StartChar: aacute
Encoding: 225 225 199
Width: 344
Flags: W
LayerCount: 2
Fore
SplineSet
143 428 m 2,0,1
 141 424 141 424 141 421 c 0,2,3
 141 408 141 408 154 408 c 0,4,5
 164 408 164 408 168 418 c 2,6,-1
 225 511 l 2,7,8
 227 513 227 513 227 516 c 0,9,10
 227 525 227 525 213 532 c 0,11,12
 204 535 204 535 198 535 c 0,13,14
 189 535 189 535 188 529 c 2,15,-1
 143 428 l 2,0,1
230 316 m 0,16,17
 241 306 241 306 251 290 c 0,18,19
 261 271 261 271 263 246 c 0,20,21
 265 208 265 208 264 189 c 0,22,23
 264 177 264 177 261.5 144.5 c 128,-1,24
 259 112 259 112 259 95 c 0,25,26
 259 69 259 69 260 56 c 0,27,28
 260 48 260 48 263 40 c 0,29,30
 265 32 265 32 272 26 c 0,31,32
 279 19 279 19 285 18 c 2,33,-1
 291 18 l 2,34,35
 292 18 292 18 298 21 c 2,36,-1
 318 27 l 1,37,-1
 320 27 l 2,38,39
 322 27 322 27 323 26 c 2,40,-1
 325 25 l 1,41,-1
 325 24 l 2,42,43
 326 23 326 23 326 22 c 2,44,-1
 326 18 l 1,45,-1
 326 15 l 1,46,-1
 324 13 l 2,47,48
 322 11 322 11 321 11 c 2,49,-1
 253 -13 l 2,50,51
 249 -15 249 -15 248 -15 c 2,52,-1
 244 -15 l 2,53,54
 243 -15 243 -15 241 -13 c 0,55,56
 235 -10 235 -10 231 -6 c 0,57,58
 222 3 222 3 219 8 c 0,59,60
 214 16 214 16 211 32 c 1,61,62
 178 12 178 12 168 8 c 0,63,64
 145 -3 145 -3 120.5 -9 c 128,-1,65
 96 -15 96 -15 75 -14 c 0,66,67
 66 -14 66 -14 60 -11 c 0,68,69
 51 -7 51 -7 46 -4 c 0,70,71
 40 2 40 2 38 9 c 0,72,73
 36 14 36 14 34 23 c 0,74,75
 31 38 31 38 31 55 c 0,76,77
 31 71 31 71 36 90 c 0,78,79
 38 96 38 96 41 102 c 0,80,81
 43 105 43 105 45 107 c 0,82,83
 46 108 46 108 47.5 109 c 128,-1,84
 49 110 49 110 50 111 c 0,85,86
 79 127 79 127 115 137 c 0,87,88
 146 146 146 146 188 152 c 2,89,-1
 210 155 l 1,90,-1
 212 207 l 2,91,92
 214 233 214 233 212 246 c 0,93,94
 209 267 209 267 197 282 c 0,95,96
 190 290 190 290 177 299 c 0,97,98
 158 312 158 312 147 314 c 0,99,100
 133 316 133 316 119 311 c 0,101,102
 108 306 108 306 100 298 c 0,103,104
 94 291 94 291 95 281 c 0,105,106
 95 271 95 271 96 265 c 1,107,-1
 49 244 l 1,108,-1
 47 252 l 2,109,110
 45 263 45 263 45 268 c 0,111,112
 45 276 45 276 50 284 c 0,113,114
 55 293 55 293 71 302 c 0,115,116
 92 315 92 315 112.5 323.5 c 128,-1,117
 133 332 133 332 163 338 c 2,118,-1
 182 341 l 2,119,120
 188 341 188 341 201 335 c 0,121,122
 220 325 220 325 230 316 c 0,16,17
96 19 m 0,123,124
 105 12 105 12 120 12 c 0,125,126
 132 12 132 12 146 15 c 0,127,128
 159 19 159 19 176 26 c 0,129,130
 197 35 197 35 209 47 c 1,131,132
 207 77 207 77 207 92 c 0,133,134
 207 119 207 119 208 132 c 1,135,136
 200 134 200 134 198 134 c 0,137,138
 188 135 188 135 164 133 c 0,139,140
 134 128 134 128 130 127 c 0,141,142
 108 120 108 120 95 108 c 0,143,144
 86 99 86 99 81 79 c 0,145,146
 77 64 77 64 80 47 c 0,147,148
 81 39 81 39 86 32 c 0,149,150
 92 21 92 21 96 19 c 0,123,124
EndSplineSet
EndChar
StartChar: ae
Encoding: 230 230 204
Width: 510
Flags: W
LayerCount: 2
Fore
SplineSet
271 191 m 1,0,1
 303 199 303 199 383 216 c 0,2,3
 385 216 385 216 393 217 c 128,-1,4
 401 218 401 218 406.5 219 c 128,-1,5
 412 220 412 220 418 223 c 128,-1,6
 424 226 424 226 426 229 c 0,7,8
 440 250 440 250 408.5 280 c 128,-1,9
 377 310 377 310 354 315 c 0,10,11
 329 321 329 321 311.5 310 c 128,-1,12
 294 299 294 299 286 277 c 128,-1,13
 278 255 278 255 274.5 234 c 128,-1,14
 271 213 271 213 271 191 c 1,0,1
220 141 m 1,15,-1
 205 141 l 1,16,-1
 188 141 l 2,17,18
 183 141 183 141 172.5 140.5 c 128,-1,19
 162 140 162 140 156 138.5 c 128,-1,20
 150 137 150 137 141 135 c 128,-1,21
 132 133 132 133 125 130 c 128,-1,22
 118 127 118 127 112 122 c 0,23,24
 92 108 92 108 87.5 81.5 c 128,-1,25
 83 55 83 55 102 37 c 0,26,27
 112 29 112 29 125 27.5 c 128,-1,28
 138 26 138 26 154.5 32.5 c 128,-1,29
 171 39 171 39 179 42.5 c 128,-1,30
 187 46 187 46 203 56 c 0,31,32
 204 57 204 57 209.5 59.5 c 128,-1,33
 215 62 215 62 218 64 c 2,34,-1
 224 69 l 2,35,36
 228 72 228 72 228 76 c 0,37,38
 231 86 231 86 225.5 110 c 128,-1,39
 220 134 220 134 220 141 c 1,15,-1
57 238 m 1,40,41
 53 269 53 269 78 297.5 c 128,-1,42
 103 326 103 326 139.5 339 c 128,-1,43
 176 352 176 352 206 344 c 0,44,45
 215 341 215 341 234.5 324 c 128,-1,46
 254 307 254 307 264 306 c 0,47,48
 276 306 276 306 300 324.5 c 128,-1,49
 324 343 324 343 336 345 c 0,50,51
 390 354 390 354 438.5 312.5 c 128,-1,52
 487 271 487 271 495 216 c 1,53,54
 440 209 440 209 339 187 c 0,55,56
 336 186 336 186 320.5 183 c 128,-1,57
 305 180 305 180 295.5 177.5 c 128,-1,58
 286 175 286 175 279 169 c 0,59,60
 268 162 268 162 276 130 c 0,61,62
 289 73 289 73 339 43 c 0,63,64
 360 32 360 32 380.5 31 c 128,-1,65
 401 30 401 30 417 36 c 128,-1,66
 433 42 433 42 455 55 c 0,67,68
 479 66 479 66 481 56 c 0,69,70
 484 35 484 35 415 7 c 0,71,72
 392 -2 392 -2 367 -5 c 128,-1,73
 342 -8 342 -8 317.5 -4.5 c 128,-1,74
 293 -1 293 -1 273 14 c 128,-1,75
 253 29 253 29 242 54 c 1,76,77
 229 48 229 48 194 28.5 c 128,-1,78
 159 9 159 9 132.5 1 c 128,-1,79
 106 -7 106 -7 80 -4 c 0,80,81
 56 -1 56 -1 42.5 21.5 c 128,-1,82
 29 44 29 44 30.5 72 c 128,-1,83
 32 100 32 100 49 117 c 0,84,85
 60 129 60 129 86.5 138.5 c 128,-1,86
 113 148 113 148 126.5 151 c 128,-1,87
 140 154 140 154 170 160 c 0,88,89
 172 161 172 161 183 162.5 c 128,-1,90
 194 164 194 164 199 165 c 128,-1,91
 204 166 204 166 209.5 171.5 c 128,-1,92
 215 177 215 177 216 183 c 0,93,94
 221 212 221 212 215.5 243.5 c 128,-1,95
 210 275 210 275 191 290 c 0,96,97
 173 305 173 305 152.5 308 c 128,-1,98
 132 311 132 311 119.5 298 c 128,-1,99
 107 285 107 285 112 259 c 1,100,-1
 57 238 l 1,40,41
EndSplineSet
EndChar
StartChar: ecircumflex
Encoding: 234 234 208
Width: 338
Flags: W
LayerCount: 2
Fore
SplineSet
67 408 m 1,0,-1
 83 442 l 2,1,2
 92 461 92 461 100 473 c 2,3,-1
 119 507 l 2,4,5
 131 529 131 529 137 539 c 2,6,-1
 150 559 l 2,7,8
 154 565 154 565 164.5 571 c 128,-1,9
 175 577 175 577 189 575 c 0,10,11
 196 574 196 574 201.5 569 c 128,-1,12
 207 564 207 564 210 560 c 128,-1,13
 213 556 213 556 217.5 547 c 128,-1,14
 222 538 222 538 224 535 c 2,15,-1
 246 497 l 1,16,-1
 273 447 l 2,17,18
 284 427 284 427 293 408 c 1,19,20
 272 409 272 409 252 425.5 c 128,-1,21
 232 442 232 442 208 471 c 2,22,-1
 178 508 l 1,23,24
 162 477 162 477 128.5 443 c 128,-1,25
 95 409 95 409 67 408 c 1,0,-1
48 247 m 0,26,27
 74 294 74 294 126 319 c 0,28,29
 158 334 158 334 191 331 c 0,30,31
 232 327 232 327 266 296 c 0,32,33
 284 280 284 280 297 257 c 0,34,35
 301 251 301 251 302 251 c 2,36,-1
 308 245 l 2,37,38
 309 244 309 244 310.5 243 c 128,-1,39
 312 242 312 242 313 242 c 0,40,41
 316 241 316 241 317 238 c 2,42,-1
 317 235 l 2,43,44
 317 233 317 233 316 233 c 2,45,-1
 314 231 l 1,46,-1
 311 231 l 1,47,-1
 250 218 l 1,48,-1
 78 184 l 1,49,50
 75 145 75 145 87 111 c 0,51,52
 96 87 96 87 112 66 c 0,53,54
 127 47 127 47 151 35 c 0,55,56
 178 22 178 22 210 24 c 0,57,58
 234 25 234 25 268 39 c 0,59,60
 293 50 293 50 304 58 c 1,61,-1
 310 50 l 1,62,63
 286 32 286 32 258 17 c 0,64,65
 220 -3 220 -3 176 -6 c 0,66,67
 131 -9 131 -9 94 14 c 0,68,69
 57 38 57 38 39 82 c 0,70,71
 24 119 24 119 26 168 c 0,72,73
 29 214 29 214 48 247 c 0,26,27
211 294 m 0,74,75
 182 315 182 315 153 314 c 0,76,77
 131 314 131 314 114 299 c 0,78,79
 99 286 99 286 93 268 c 0,80,81
 88 256 88 256 83 235 c 0,82,83
 80 223 80 223 78 198 c 1,84,-1
 222 229 l 2,85,86
 224 229 224 229 227 230 c 128,-1,87
 230 231 230 231 232 231 c 2,88,-1
 241 234 l 2,89,90
 244 235 244 235 245 238 c 0,91,92
 247 242 247 242 247 243 c 2,93,-1
 247 248 l 2,94,95
 247 249 247 249 245 252 c 0,96,97
 233 278 233 278 211 294 c 0,74,75
EndSplineSet
EndChar
StartChar: edieresis
Encoding: 235 235 209
Width: 338
Flags: W
LayerCount: 2
Fore
SplineSet
277 468 m 0,0,1
 293 461 293 461 292 460 c 0,2,3
 285 453 285 453 272 437 c 0,4,5
 253 412 253 412 251 408 c 1,6,-1
 227 438 l 1,7,-1
 208 458 l 1,8,9
 230 470 230 470 243 501 c 1,10,11
 247 500 247 500 261.5 485 c 128,-1,12
 276 470 276 470 277 468 c 0,0,1
137 468 m 0,13,14
 153 461 153 461 152 460 c 0,15,16
 145 453 145 453 132 437 c 0,17,18
 113 412 113 412 111 408 c 1,19,-1
 87 438 l 1,20,-1
 68 458 l 1,21,22
 90 470 90 470 103 501 c 1,23,24
 107 500 107 500 121.5 485 c 128,-1,25
 136 470 136 470 137 468 c 0,13,14
48 247 m 0,26,27
 74 294 74 294 126 319 c 0,28,29
 158 334 158 334 191 331 c 0,30,31
 232 327 232 327 266 296 c 0,32,33
 284 280 284 280 297 257 c 0,34,35
 301 251 301 251 302 251 c 2,36,-1
 308 245 l 2,37,38
 309 244 309 244 310.5 243 c 128,-1,39
 312 242 312 242 313 242 c 0,40,41
 316 241 316 241 317 238 c 2,42,-1
 317 235 l 2,43,44
 317 233 317 233 316 233 c 2,45,-1
 314 231 l 1,46,-1
 311 231 l 1,47,-1
 250 218 l 1,48,-1
 78 184 l 1,49,50
 75 145 75 145 87 111 c 0,51,52
 96 87 96 87 112 66 c 0,53,54
 127 47 127 47 151 35 c 0,55,56
 178 22 178 22 210 24 c 0,57,58
 234 25 234 25 268 39 c 0,59,60
 293 50 293 50 304 58 c 1,61,-1
 310 50 l 1,62,63
 286 32 286 32 258 17 c 0,64,65
 220 -3 220 -3 176 -6 c 0,66,67
 131 -9 131 -9 94 14 c 0,68,69
 57 38 57 38 39 82 c 0,70,71
 24 119 24 119 26 168 c 0,72,73
 29 214 29 214 48 247 c 0,26,27
211 294 m 0,74,75
 182 315 182 315 153 314 c 0,76,77
 131 314 131 314 114 299 c 0,78,79
 99 286 99 286 93 268 c 0,80,81
 88 256 88 256 83 235 c 0,82,83
 80 223 80 223 78 198 c 1,84,-1
 222 229 l 2,85,86
 224 229 224 229 227 230 c 128,-1,87
 230 231 230 231 232 231 c 2,88,-1
 241 234 l 2,89,90
 244 235 244 235 245 238 c 0,91,92
 247 242 247 242 247 243 c 2,93,-1
 247 248 l 2,94,95
 247 249 247 249 245 252 c 0,96,97
 233 278 233 278 211 294 c 0,74,75
EndSplineSet
EndChar
StartChar: iacute
Encoding: 237 237 211
Width: 220
Flags: W
LayerCount: 2
Fore
SplineSet
91 435 m 2,0,1
 89 431 89 431 89 428 c 0,2,3
 89 415 89 415 102 415 c 0,4,5
 112 415 112 415 116 425 c 2,6,-1
 173 518 l 2,7,8
 175 520 175 520 175 523 c 0,9,10
 175 532 175 532 161 539 c 0,11,12
 152 542 152 542 146 542 c 0,13,14
 137 542 137 542 136 536 c 2,15,-1
 91 435 l 2,0,1
81 317 m 0,16,17
 107 332 107 332 128 350 c 0,18,19
 129 350 129 350 129 351 c 2,20,-1
 130 352 l 2,21,22
 131 353 131 353 133 353 c 2,23,-1
 136 353 l 1,24,-1
 138 351 l 2,25,26
 141 350 141 350 141 346 c 0,27,28
 141 345 141 345 140.5 342.5 c 128,-1,29
 140 340 140 340 140 339 c 0,30,31
 136 314 136 314 132 268 c 0,32,33
 129 230 129 230 130 153 c 0,34,35
 130 108 130 108 132 62 c 0,36,37
 132 51 132 51 135 41 c 0,38,39
 138 30 138 30 145 22 c 0,40,41
 151 16 151 16 153 15 c 0,42,43
 157 14 157 14 164 14 c 2,44,-1
 190 15 l 1,45,-1
 198 15 l 2,46,47
 199 15 199 15 200 13 c 0,48,49
 203 10 203 10 203 9 c 2,50,-1
 202 8 l 1,51,-1
 202 6 l 1,52,-1
 201 5 l 2,53,54
 200 4 200 4 200 3 c 0,55,56
 198 1 198 1 197 1 c 2,57,-1
 193 1 l 2,58,59
 139 1 139 1 112 0 c 0,60,61
 83 -1 83 -1 29 -5 c 1,62,-1
 26 -5 l 1,63,-1
 25 -3 l 2,64,65
 24 -2 24 -2 24 -1 c 2,66,-1
 24 2 l 1,67,-1
 24 5 l 2,68,69
 24 6 24 6 25 7 c 2,70,-1
 26 9 l 1,71,-1
 29 9 l 1,72,-1
 57 12 l 2,73,74
 59 12 59 12 62.5 14 c 128,-1,75
 66 16 66 16 67 18 c 0,76,77
 69 22 69 22 69 24 c 0,78,79
 69 25 69 25 69.5 26.5 c 128,-1,80
 70 28 70 28 70 29 c 0,81,82
 74 75 74 75 76 123 c 0,83,84
 78 184 78 184 73 246 c 0,85,86
 73 251 73 251 71 260 c 128,-1,87
 69 269 69 269 64 273 c 0,88,89
 57 280 57 280 51 280 c 0,90,91
 43 280 43 280 37 277 c 2,92,-1
 34 276 l 1,93,-1
 33 276 l 2,94,95
 32 275 32 275 31 275 c 2,96,-1
 27 275 l 2,97,98
 25 275 25 275 26 278 c 2,99,-1
 26 281 l 1,100,-1
 26 285 l 1,101,-1
 26 288 l 1,102,-1
 27 290 l 2,103,104
 29 292 29 292 30 292 c 2,105,-1
 34 293 l 2,106,107
 54 302 54 302 81 317 c 0,16,17
EndSplineSet
EndChar
StartChar: icircumflex
Encoding: 238 238 212
Width: 220
Flags: W
LayerCount: 2
Fore
SplineSet
-7 413 m 1,0,-1
 9 447 l 2,1,2
 18 466 18 466 26 478 c 2,3,-1
 45 512 l 2,4,5
 57 534 57 534 63 544 c 2,6,-1
 76 564 l 2,7,8
 80 570 80 570 90.5 576 c 128,-1,9
 101 582 101 582 115 580 c 0,10,11
 122 579 122 579 127.5 574 c 128,-1,12
 133 569 133 569 136 565 c 128,-1,13
 139 561 139 561 143.5 552 c 128,-1,14
 148 543 148 543 150 540 c 2,15,-1
 172 502 l 1,16,-1
 199 452 l 2,17,18
 210 432 210 432 219 413 c 1,19,20
 198 414 198 414 178 430.5 c 128,-1,21
 158 447 158 447 134 476 c 2,22,-1
 104 513 l 1,23,24
 88 482 88 482 54.5 448 c 128,-1,25
 21 414 21 414 -7 413 c 1,0,-1
81 317 m 0,26,27
 107 332 107 332 128 350 c 0,28,29
 129 350 129 350 129 351 c 2,30,-1
 130 352 l 2,31,32
 131 353 131 353 133 353 c 2,33,-1
 136 353 l 1,34,-1
 138 351 l 2,35,36
 141 350 141 350 141 346 c 0,37,38
 141 345 141 345 140.5 342.5 c 128,-1,39
 140 340 140 340 140 339 c 0,40,41
 136 314 136 314 132 268 c 0,42,43
 129 230 129 230 130 153 c 0,44,45
 130 108 130 108 132 62 c 0,46,47
 132 51 132 51 135 41 c 0,48,49
 138 30 138 30 145 22 c 0,50,51
 151 16 151 16 153 15 c 0,52,53
 157 14 157 14 164 14 c 2,54,-1
 190 15 l 1,55,-1
 198 15 l 2,56,57
 199 15 199 15 200 13 c 0,58,59
 203 10 203 10 203 9 c 2,60,-1
 202 8 l 1,61,-1
 202 6 l 1,62,-1
 201 5 l 2,63,64
 200 4 200 4 200 3 c 0,65,66
 198 1 198 1 197 1 c 2,67,-1
 193 1 l 2,68,69
 139 1 139 1 112 0 c 0,70,71
 83 -1 83 -1 29 -5 c 1,72,-1
 26 -5 l 1,73,-1
 25 -3 l 2,74,75
 24 -2 24 -2 24 -1 c 2,76,-1
 24 2 l 1,77,-1
 24 5 l 2,78,79
 24 6 24 6 25 7 c 2,80,-1
 26 9 l 1,81,-1
 29 9 l 1,82,-1
 57 12 l 2,83,84
 59 12 59 12 62.5 14 c 128,-1,85
 66 16 66 16 67 18 c 0,86,87
 69 22 69 22 69 24 c 0,88,89
 69 25 69 25 69.5 26.5 c 128,-1,90
 70 28 70 28 70 29 c 0,91,92
 74 75 74 75 76 123 c 0,93,94
 78 184 78 184 73 246 c 0,95,96
 73 251 73 251 71 260 c 128,-1,97
 69 269 69 269 64 273 c 0,98,99
 57 280 57 280 51 280 c 0,100,101
 43 280 43 280 37 277 c 2,102,-1
 34 276 l 1,103,-1
 33 276 l 2,104,105
 32 275 32 275 31 275 c 2,106,-1
 27 275 l 2,107,108
 25 275 25 275 26 278 c 2,109,-1
 26 281 l 1,110,-1
 26 285 l 1,111,-1
 26 288 l 1,112,-1
 27 290 l 2,113,114
 29 292 29 292 30 292 c 2,115,-1
 34 293 l 2,116,117
 54 302 54 302 81 317 c 0,26,27
EndSplineSet
EndChar
StartChar: idieresis
Encoding: 239 239 213
Width: 220
Flags: W
LayerCount: 2
Fore
SplineSet
195 476 m 0,0,1
 211 469 211 469 210 468 c 0,2,3
 203 461 203 461 190 445 c 0,4,5
 171 420 171 420 169 416 c 1,6,-1
 145 446 l 1,7,-1
 126 466 l 1,8,9
 148 478 148 478 161 509 c 1,10,11
 165 508 165 508 179.5 493 c 128,-1,12
 194 478 194 478 195 476 c 0,0,1
55 476 m 0,13,14
 71 469 71 469 70 468 c 0,15,16
 63 461 63 461 50 445 c 0,17,18
 31 420 31 420 29 416 c 1,19,-1
 5 446 l 1,20,-1
 -14 466 l 1,21,22
 8 478 8 478 21 509 c 1,23,24
 25 508 25 508 39.5 493 c 128,-1,25
 54 478 54 478 55 476 c 0,13,14
81 317 m 0,26,27
 107 332 107 332 128 350 c 0,28,29
 129 350 129 350 129 351 c 2,30,-1
 130 352 l 2,31,32
 131 353 131 353 133 353 c 2,33,-1
 136 353 l 1,34,-1
 138 351 l 2,35,36
 141 350 141 350 141 346 c 0,37,38
 141 345 141 345 140.5 342.5 c 128,-1,39
 140 340 140 340 140 339 c 0,40,41
 136 314 136 314 132 268 c 0,42,43
 129 230 129 230 130 153 c 0,44,45
 130 108 130 108 132 62 c 0,46,47
 132 51 132 51 135 41 c 0,48,49
 138 30 138 30 145 22 c 0,50,51
 151 16 151 16 153 15 c 0,52,53
 157 14 157 14 164 14 c 2,54,-1
 190 15 l 1,55,-1
 198 15 l 2,56,57
 199 15 199 15 200 13 c 0,58,59
 203 10 203 10 203 9 c 2,60,-1
 202 8 l 1,61,-1
 202 6 l 1,62,-1
 201 5 l 2,63,64
 200 4 200 4 200 3 c 0,65,66
 198 1 198 1 197 1 c 2,67,-1
 193 1 l 2,68,69
 139 1 139 1 112 0 c 0,70,71
 83 -1 83 -1 29 -5 c 1,72,-1
 26 -5 l 1,73,-1
 25 -3 l 2,74,75
 24 -2 24 -2 24 -1 c 2,76,-1
 24 2 l 1,77,-1
 24 5 l 2,78,79
 24 6 24 6 25 7 c 2,80,-1
 26 9 l 1,81,-1
 29 9 l 1,82,-1
 57 12 l 2,83,84
 59 12 59 12 62.5 14 c 128,-1,85
 66 16 66 16 67 18 c 0,86,87
 69 22 69 22 69 24 c 0,88,89
 69 25 69 25 69.5 26.5 c 128,-1,90
 70 28 70 28 70 29 c 0,91,92
 74 75 74 75 76 123 c 0,93,94
 78 184 78 184 73 246 c 0,95,96
 73 251 73 251 71 260 c 128,-1,97
 69 269 69 269 64 273 c 0,98,99
 57 280 57 280 51 280 c 0,100,101
 43 280 43 280 37 277 c 2,102,-1
 34 276 l 1,103,-1
 33 276 l 2,104,105
 32 275 32 275 31 275 c 2,106,-1
 27 275 l 2,107,108
 25 275 25 275 26 278 c 2,109,-1
 26 281 l 1,110,-1
 26 285 l 1,111,-1
 26 288 l 1,112,-1
 27 290 l 2,113,114
 29 292 29 292 30 292 c 2,115,-1
 34 293 l 2,116,117
 54 302 54 302 81 317 c 0,26,27
EndSplineSet
EndChar
StartChar: eth
Encoding: 240 240 214
Width: 471
Flags: W
LayerCount: 2
Fore
SplineSet
199 323 m 0,0,1
 168 317 168 317 146.5 295.5 c 128,-1,2
 125 274 125 274 117.5 244.5 c 128,-1,3
 110 215 110 215 110.5 181 c 128,-1,4
 111 147 111 147 124 115 c 128,-1,5
 137 83 137 83 155 58.5 c 128,-1,6
 173 34 173 34 200.5 21.5 c 128,-1,7
 228 9 228 9 260 16 c 0,8,9
 293 22 293 22 316 44 c 128,-1,10
 339 66 339 66 346.5 95.5 c 128,-1,11
 354 125 354 125 354 158.5 c 128,-1,12
 354 192 354 192 341 224 c 128,-1,13
 328 256 328 256 309 280.5 c 128,-1,14
 290 305 290 305 261 317 c 128,-1,15
 232 329 232 329 199 323 c 0,0,1
108 613 m 1,16,17
 126 624 126 624 146.5 617 c 128,-1,18
 167 610 167 610 181 598 c 128,-1,19
 195 586 195 586 214 572.5 c 128,-1,20
 233 559 233 559 250 557 c 0,21,22
 256 556 256 556 260.5 558.5 c 128,-1,23
 265 561 265 561 275 567 c 128,-1,24
 285 573 285 573 286 573 c 0,25,26
 288 575 288 575 322.5 595 c 128,-1,27
 357 615 357 615 376 624 c 1,28,-1
 387 603 l 1,29,-1
 267 534 l 1,30,31
 342 460 342 460 384.5 362.5 c 128,-1,32
 427 265 427 265 418 169 c 0,33,34
 413 116 413 116 385 74.5 c 128,-1,35
 357 33 357 33 317 12 c 128,-1,36
 277 -9 277 -9 226.5 -7.5 c 128,-1,37
 176 -6 176 -6 130 23 c 0,38,39
 93 47 93 47 74.5 83 c 128,-1,40
 56 119 56 119 55 156.5 c 128,-1,41
 54 194 54 194 68 231 c 128,-1,42
 82 268 82 268 107.5 295.5 c 128,-1,43
 133 323 133 323 171.5 337.5 c 128,-1,44
 210 352 210 352 253 345 c 0,45,46
 293 338 293 338 336 302 c 1,47,48
 330 375 330 375 271 465 c 0,49,50
 270 466 270 466 267.5 471 c 128,-1,51
 265 476 265 476 263 479 c 2,52,-1
 258 487 l 1,53,-1
 252 495 l 2,54,55
 249 498 249 498 245.5 501 c 128,-1,56
 242 504 242 504 238.5 505.5 c 128,-1,57
 235 507 235 507 231 507 c 0,58,59
 216 508 216 508 195 496 c 128,-1,60
 174 484 174 484 149.5 466.5 c 128,-1,61
 125 449 125 449 116 444 c 1,62,-1
 105 465 l 1,63,-1
 216 530 l 1,64,65
 175 582 175 582 108 610 c 1,66,-1
 108 613 l 1,16,17
EndSplineSet
EndChar
StartChar: ocircumflex
Encoding: 244 244 218
Width: 411
Flags: W
LayerCount: 2
Fore
SplineSet
101 409 m 1,0,-1
 117 443 l 2,1,2
 126 462 126 462 134 474 c 2,3,-1
 153 508 l 2,4,5
 165 530 165 530 171 540 c 2,6,-1
 184 560 l 2,7,8
 188 566 188 566 198.5 572 c 128,-1,9
 209 578 209 578 223 576 c 0,10,11
 230 575 230 575 235.5 570 c 128,-1,12
 241 565 241 565 244 561 c 128,-1,13
 247 557 247 557 251.5 548 c 128,-1,14
 256 539 256 539 258 536 c 2,15,-1
 280 498 l 1,16,-1
 307 448 l 2,17,18
 318 428 318 428 327 409 c 1,19,20
 306 410 306 410 286 426.5 c 128,-1,21
 266 443 266 443 242 472 c 2,22,-1
 212 509 l 1,23,24
 196 478 196 478 162.5 444 c 128,-1,25
 129 410 129 410 101 409 c 1,0,-1
133 331 m 0,26,27
 181 352 181 352 229 348 c 0,28,29
 279 343 279 343 319 314 c 0,30,31
 368 277 368 277 382 218 c 0,32,33
 397 158 397 158 373 104 c 0,34,35
 354 57 354 57 312 27 c 0,36,37
 255 -12 255 -12 182 -1 c 0,38,39
 116 9 116 9 72 56 c 0,40,41
 26 104 26 104 24 169 c 0,42,43
 24 223 24 223 54 267 c 0,44,45
 83 308 83 308 133 331 c 0,26,27
193 328 m 0,46,47
 165 328 165 328 143 316 c 0,48,49
 119 303 119 303 104 282 c 0,50,51
 78 247 78 247 78 196 c 0,52,53
 78 148 78 148 98 107 c 0,54,55
 116 66 116 66 149 41 c 0,56,57
 186 12 186 12 227 14 c 0,58,59
 253 15 253 15 276 32 c 0,60,61
 294 44 294 44 306 64 c 0,62,63
 331 104 331 104 333 150 c 0,64,65
 334 203 334 203 305 253 c 0,66,67
 283 288 283 288 259 305 c 0,68,69
 227 328 227 328 193 328 c 0,46,47
EndSplineSet
EndChar
StartChar: oslash
Encoding: 248 248 222
Width: 433
Flags: W
LayerCount: 2
Fore
SplineSet
116 93 m 1,0,1
 127 98 127 98 138 106.5 c 128,-1,2
 149 115 149 115 156 121.5 c 128,-1,3
 163 128 163 128 175 141 c 128,-1,4
 187 154 187 154 191 158 c 2,5,-1
 271 238 l 2,6,7
 272 239 272 239 278 244.5 c 128,-1,8
 284 250 284 250 287 252.5 c 128,-1,9
 290 255 290 255 292.5 260 c 128,-1,10
 295 265 295 265 295 270 c 0,11,12
 295 285 295 285 264 305 c 0,13,14
 235 323 235 323 202 324 c 128,-1,15
 169 325 169 325 141 304 c 0,16,17
 64 245 64 245 116 93 c 1,0,1
314 249 m 1,18,19
 303 244 303 244 292 236 c 128,-1,20
 281 228 281 228 273.5 221 c 128,-1,21
 266 214 266 214 254.5 201.5 c 128,-1,22
 243 189 243 189 239 183 c 2,23,-1
 159 107 l 2,24,25
 157 106 157 106 151.5 101 c 128,-1,26
 146 96 146 96 143.5 93 c 128,-1,27
 141 90 141 90 137.5 85 c 128,-1,28
 134 80 134 80 134 75 c 0,29,30
 132 64 132 64 155 43 c 128,-1,31
 178 22 178 22 208.5 18.5 c 128,-1,32
 239 15 239 15 267 28 c 0,33,34
 307 46 307 46 323 87 c 128,-1,35
 339 128 339 128 334.5 168.5 c 128,-1,36
 330 209 330 209 314 249 c 1,18,19
36 3 m 1,37,-1
 47 -8 l 1,38,-1
 36 3 l 1,37,-1
36 6 m 2,39,40
 38 8 38 8 48 17 c 128,-1,41
 58 26 58 26 63.5 33 c 128,-1,42
 69 40 69 40 71 46 c 128,-1,43
 73 52 73 52 71 57 c 128,-1,44
 69 62 69 62 63.5 69.5 c 128,-1,45
 58 77 58 77 57 79 c 0,46,47
 42 105 42 105 38 141 c 0,48,49
 32 182 32 182 44 222 c 128,-1,50
 56 262 56 262 84 291 c 0,51,52
 117 326 117 326 168 339 c 128,-1,53
 219 352 219 352 267 340 c 0,54,55
 274 339 274 339 300 325 c 128,-1,56
 326 311 326 311 336 313 c 0,57,58
 343 314 343 314 351.5 320 c 128,-1,59
 360 326 360 326 369 334.5 c 128,-1,60
 378 343 378 343 383 346 c 1,61,-1
 394 328 l 1,62,-1
 351 292 l 1,63,-1
 351 289 l 1,64,65
 390 254 390 254 397.5 204.5 c 128,-1,66
 405 155 405 155 386 112 c 128,-1,67
 367 69 367 69 328.5 36 c 128,-1,68
 290 3 290 3 242 -4 c 0,69,70
 197 -10 197 -10 144 9 c 0,71,72
 141 10 141 10 122 20.5 c 128,-1,73
 103 31 103 31 94 30 c 0,74,75
 87 29 87 29 79 22.5 c 128,-1,76
 71 16 71 16 61.5 5 c 128,-1,77
 52 -6 52 -6 51 -8 c 2,78,-1
 47 -8 l 1,79,-1
 36 3 l 1,80,-1
 36 6 l 2,39,40
EndSplineSet
EndChar
StartChar: ugrave
Encoding: 249 249 223
Width: 449
Flags: W
LayerCount: 2
Fore
SplineSet
242 430 m 2,0,1
 244 426 244 426 244 423 c 0,2,3
 244 410 244 410 231 410 c 0,4,5
 221 410 221 410 217 420 c 2,6,-1
 160 513 l 2,7,8
 158 515 158 515 158 518 c 0,9,10
 158 527 158 527 172 534 c 0,11,12
 181 537 181 537 187 537 c 0,13,14
 196 537 196 537 197 531 c 2,15,-1
 242 430 l 2,0,1
130 239 m 0,16,17
 128 213 128 213 128 163 c 128,-1,18
 128 113 128 113 133 89 c 0,19,20
 137 74 137 74 141 66 c 0,21,22
 148 54 148 54 156 47 c 0,23,24
 173 33 173 33 199 33 c 0,25,26
 222 32 222 32 253 43 c 0,27,28
 278 52 278 52 310 71 c 1,29,30
 312 115 312 115 314 200 c 0,31,32
 314 211 314 211 314.5 234 c 128,-1,33
 315 257 315 257 315 268 c 0,34,35
 315 278 315 278 313 284 c 0,36,37
 310 292 310 292 304 295 c 0,38,39
 299 299 299 299 290 301 c 2,40,-1
 274 301 l 1,41,-1
 267 301 l 1,42,-1
 264 301 l 1,43,-1
 263 301 l 1,44,-1
 261 302 l 1,45,-1
 260 302 l 1,46,-1
 259 303 l 1,47,-1
 259 304 l 1,48,-1
 259 306 l 1,49,-1
 260 310 l 1,50,-1
 261 311 l 1,51,-1
 261 312 l 2,52,53
 261 313 261 313 262 314 c 128,-1,54
 263 315 263 315 264 315 c 128,-1,55
 265 315 265 315 265 315.5 c 128,-1,56
 265 316 265 316 266 316 c 0,57,58
 284 319 284 319 318 326 c 0,59,60
 340 331 340 331 371 339 c 1,61,-1
 372 340 l 1,62,-1
 373 340 l 1,63,-1
 375 339 l 2,64,65
 376 338 376 338 376 337 c 2,66,-1
 376 334 l 1,67,-1
 376 330 l 2,68,69
 375 304 375 304 371 239.5 c 128,-1,70
 367 175 367 175 366 140 c 0,71,72
 364 106 364 106 367 79 c 0,73,74
 369 54 369 54 372 33 c 0,75,76
 372 32 372 32 372.5 31 c 128,-1,77
 373 30 373 30 373 29 c 0,78,79
 373 27 373 27 375 25.5 c 128,-1,80
 377 24 377 24 379 24 c 0,81,82
 380 24 380 24 381 24.5 c 128,-1,83
 382 25 382 25 383 25 c 2,84,-1
 423 33 l 1,85,-1
 425 33 l 2,86,87
 426 33 426 33 427 32 c 2,88,-1
 429 30 l 1,89,-1
 429 29 l 1,90,-1
 430 28 l 1,91,-1
 431 27 l 1,92,-1
 431 26 l 2,93,94
 431 25 431 25 430.5 25 c 128,-1,95
 430 25 430 25 430 24 c 0,96,97
 430 22 430 22 429 22 c 2,98,-1
 428 21 l 1,99,-1
 426 21 l 1,100,-1
 379 6 l 1,101,-1
 332 -9 l 2,102,103
 331 -9 331 -9 330 -9.5 c 128,-1,104
 329 -10 329 -10 328 -10 c 2,105,-1
 324 -10 l 1,106,-1
 321 -8 l 2,107,108
 319 -6 319 -6 320 -4 c 2,109,-1
 314 25 l 2,110,111
 312 37 312 37 310 54 c 1,112,113
 293 44 293 44 257 26 c 0,114,115
 204 1 204 1 175 -2 c 0,116,117
 158 -5 158 -5 141 -2 c 0,118,119
 122 1 122 1 109 10 c 0,120,121
 93 21 93 21 82 45 c 0,122,123
 74 64 74 64 73 88 c 0,124,125
 71 115 71 115 73 171 c 0,126,127
 74 198 74 198 74 253 c 0,128,129
 74 263 74 263 73 268 c 0,130,131
 71 277 71 277 66 283 c 0,132,133
 59 290 59 290 54 290 c 0,134,135
 45 292 45 292 38 290 c 2,136,-1
 29 289 l 1,137,-1
 27 289 l 2,138,139
 26 289 26 289 26 290 c 1,140,141
 25 290 25 290 25 291 c 2,142,-1
 25 292 l 1,143,-1
 24 293 l 1,144,-1
 23 294 l 1,145,-1
 23 296 l 2,146,147
 23 297 23 297 23.5 297 c 128,-1,148
 24 297 24 297 24 298 c 128,-1,149
 24 299 24 299 25 300 c 2,150,-1
 26 301 l 1,151,152
 56 311 56 311 83 322 c 0,153,154
 104 331 104 331 128 344 c 1,155,-1
 129 344 l 1,156,-1
 130 344 l 2,157,158
 132 344 132 344 134 342 c 2,159,-1
 135 342 l 1,160,-1
 136 341 l 2,161,162
 137 341 137 341 137 340 c 2,163,-1
 138 339 l 1,164,-1
 138 338 l 1,165,-1
 138 337 l 1,166,-1
 135 306 l 2,167,168
 136 306 136 306 130 239 c 0,16,17
EndSplineSet
EndChar
StartChar: ydieresis
Encoding: 255 255 229
Width: 400
Flags: W
LayerCount: 2
Fore
SplineSet
350 468 m 0,0,1
 366 461 366 461 365 460 c 0,2,3
 358 453 358 453 345 437 c 0,4,5
 326 412 326 412 324 408 c 1,6,-1
 300 438 l 1,7,-1
 281 458 l 1,8,9
 303 470 303 470 316 501 c 1,10,11
 320 500 320 500 334.5 485 c 128,-1,12
 349 470 349 470 350 468 c 0,0,1
210 468 m 0,13,14
 226 461 226 461 225 460 c 0,15,16
 218 453 218 453 205 437 c 0,17,18
 186 412 186 412 184 408 c 1,19,-1
 160 438 l 1,20,-1
 141 458 l 1,21,22
 163 470 163 470 176 501 c 1,23,24
 180 500 180 500 194.5 485 c 128,-1,25
 209 470 209 470 210 468 c 0,13,14
96 326 m 0,26,27
 130 326 130 326 163 329 c 2,28,-1
 165 329 l 2,29,30
 166 329 166 329 166 328.5 c 128,-1,31
 166 328 166 328 167 328 c 0,32,33
 169 328 169 328 169 327 c 2,34,-1
 170 326 l 1,35,-1
 170 324 l 1,36,-1
 170 323 l 1,37,-1
 169 321 l 2,38,39
 169 320 169 320 167 320 c 0,40,41
 163 318 163 318 163 319 c 2,42,-1
 152 317 l 2,43,44
 148 317 148 317 145 315 c 2,45,-1
 139 312 l 2,46,47
 135 308 135 308 134 306 c 0,48,49
 132 302 132 302 132 299 c 0,50,51
 131 286 131 286 136 266 c 2,52,-1
 159 181 l 2,53,54
 178 114 178 114 201 41 c 1,55,56
 239 101 239 101 267 164 c 0,57,58
 279 191 279 191 300 248 c 1,59,-1
 305 265 l 2,60,61
 308 274 308 274 308 282 c 128,-1,62
 308 290 308 290 302 299 c 0,63,64
 297 305 297 305 287 309 c 0,65,66
 281 312 281 312 270 316 c 0,67,68
 264 318 264 318 251 320 c 2,69,-1
 249 320 l 1,70,-1
 247 322 l 2,71,72
 247 323 247 323 246.5 324 c 128,-1,73
 246 325 246 325 246 326 c 128,-1,74
 246 327 246 327 248 329 c 2,75,-1
 251 332 l 1,76,-1
 252 333 l 1,77,-1
 254 333 l 2,78,79
 255 333 255 333 255 332.5 c 128,-1,80
 255 332 255 332 256 332 c 0,81,82
 280 327 280 327 311 325 c 0,83,84
 350 323 350 323 378 327 c 1,85,-1
 381 327 l 1,86,-1
 384 327 l 2,87,88
 386 327 386 327 386 325 c 2,89,-1
 386 324 l 2,90,91
 387 323 387 323 387 322 c 128,-1,92
 387 321 387 321 386 320 c 2,93,-1
 384 318 l 2,94,95
 383 317 383 317 382 317 c 0,96,97
 380 316 380 316 379 316 c 128,-1,98
 378 316 378 316 376 315 c 128,-1,99
 374 314 374 314 373 314 c 128,-1,100
 372 314 372 314 370.5 313 c 128,-1,101
 369 312 369 312 368 312 c 0,102,103
 366 311 366 311 359 304 c 0,104,105
 346 290 346 290 337 269 c 2,106,-1
 214 24 l 2,107,108
 176 -51 176 -51 147 -128 c 0,109,110
 118 -202 118 -202 99 -276 c 1,111,-1
 99 -280 l 2,112,113
 99 -283 99 -283 98 -284 c 2,114,-1
 95 -286 l 1,115,-1
 94 -286 l 1,116,-1
 92 -286 l 2,117,118
 83 -285 83 -285 65 -285 c 0,119,120
 38 -285 38 -285 24 -286 c 2,121,-1
 21 -286 l 1,122,-1
 20 -285 l 1,123,-1
 18 -285 l 2,124,125
 17 -285 17 -285 17 -284 c 2,126,-1
 16 -282 l 1,127,-1
 16 -280 l 2,128,129
 16 -279 16 -279 18 -277 c 0,130,131
 19 -276 19 -276 20 -276 c 0,132,133
 22 -275 22 -275 23 -275 c 0,134,135
 51 -263 51 -263 70 -237 c 0,136,137
 83 -220 83 -220 99 -184 c 2,138,-1
 169 -29 l 1,139,140
 135 98 135 98 102 193 c 2,141,-1
 79 253 l 2,142,143
 70 276 70 276 60 295 c 0,144,145
 53 306 53 306 51 308 c 128,-1,146
 49 310 49 310 44 312 c 0,147,148
 43 312 43 312 40.5 313 c 128,-1,149
 38 314 38 314 37 315 c 2,150,-1
 25 318 l 2,151,152
 22 318 22 318 20 320 c 2,153,-1
 19 320 l 1,154,-1
 19 321 l 1,155,-1
 18 323 l 1,156,-1
 19 324 l 1,157,-1
 19 325 l 2,158,159
 19 327 19 327 21 327 c 2,160,-1
 23 327 l 1,161,-1
 26 327 l 2,162,163
 49 326 49 326 96 326 c 0,26,27
EndSplineSet
EndChar
StartChar: aogonek
Encoding: 261 261 233
Width: 344
Flags: W
LayerCount: 2
Fore
SplineSet
312 -201 m 1,0,1
 280 -218 280 -218 252 -220 c 0,2,3
 217 -221 217 -221 192 -205 c 128,-1,4
 167 -189 167 -189 158 -164 c 128,-1,5
 149 -139 149 -139 153.5 -108.5 c 128,-1,6
 158 -78 158 -78 178 -53 c 0,7,8
 194 -31 194 -31 209 -19.5 c 128,-1,9
 224 -8 224 -8 246 -8 c 1,10,11
 242 -14 242 -14 228.5 -31 c 128,-1,12
 215 -48 215 -48 208.5 -60 c 128,-1,13
 202 -72 202 -72 199 -86 c 0,14,15
 188 -138 188 -138 221 -167.5 c 128,-1,16
 254 -197 254 -197 305 -186 c 1,17,-1
 312 -201 l 1,0,1
230 316 m 0,18,19
 241 306 241 306 251 290 c 0,20,21
 261 271 261 271 263 246 c 0,22,23
 265 208 265 208 264 189 c 0,24,25
 264 177 264 177 261.5 144.5 c 128,-1,26
 259 112 259 112 259 95 c 0,27,28
 259 69 259 69 260 56 c 0,29,30
 260 48 260 48 263 40 c 0,31,32
 265 32 265 32 272 26 c 0,33,34
 279 19 279 19 285 18 c 2,35,-1
 291 18 l 2,36,37
 292 18 292 18 298 21 c 2,38,-1
 318 27 l 1,39,-1
 320 27 l 2,40,41
 322 27 322 27 323 26 c 2,42,-1
 325 25 l 1,43,-1
 325 24 l 2,44,45
 326 23 326 23 326 22 c 2,46,-1
 326 18 l 1,47,-1
 326 15 l 1,48,-1
 324 13 l 2,49,50
 322 11 322 11 321 11 c 2,51,-1
 253 -13 l 2,52,53
 249 -15 249 -15 248 -15 c 2,54,-1
 244 -15 l 2,55,56
 243 -15 243 -15 241 -13 c 0,57,58
 235 -10 235 -10 231 -6 c 0,59,60
 222 3 222 3 219 8 c 0,61,62
 214 16 214 16 211 32 c 1,63,64
 178 12 178 12 168 8 c 0,65,66
 145 -3 145 -3 120.5 -9 c 128,-1,67
 96 -15 96 -15 75 -14 c 0,68,69
 66 -14 66 -14 60 -11 c 0,70,71
 51 -7 51 -7 46 -4 c 0,72,73
 40 2 40 2 38 9 c 0,74,75
 36 14 36 14 34 23 c 0,76,77
 31 38 31 38 31 55 c 0,78,79
 31 71 31 71 36 90 c 0,80,81
 38 96 38 96 41 102 c 0,82,83
 43 105 43 105 45 107 c 0,84,85
 46 108 46 108 47.5 109 c 128,-1,86
 49 110 49 110 50 111 c 0,87,88
 79 127 79 127 115 137 c 0,89,90
 146 146 146 146 188 152 c 2,91,-1
 210 155 l 1,92,-1
 212 207 l 2,93,94
 214 233 214 233 212 246 c 0,95,96
 209 267 209 267 197 282 c 0,97,98
 190 290 190 290 177 299 c 0,99,100
 158 312 158 312 147 314 c 0,101,102
 133 316 133 316 119 311 c 0,103,104
 108 306 108 306 100 298 c 0,105,106
 94 291 94 291 95 281 c 0,107,108
 95 271 95 271 96 265 c 1,109,-1
 49 244 l 1,110,-1
 47 252 l 2,111,112
 45 263 45 263 45 268 c 0,113,114
 45 276 45 276 50 284 c 0,115,116
 55 293 55 293 71 302 c 0,117,118
 92 315 92 315 112.5 323.5 c 128,-1,119
 133 332 133 332 163 338 c 2,120,-1
 182 341 l 2,121,122
 188 341 188 341 201 335 c 0,123,124
 220 325 220 325 230 316 c 0,18,19
96 19 m 0,125,126
 105 12 105 12 120 12 c 0,127,128
 132 12 132 12 146 15 c 0,129,130
 159 19 159 19 176 26 c 0,131,132
 197 35 197 35 209 47 c 1,133,134
 207 77 207 77 207 92 c 0,135,136
 207 119 207 119 208 132 c 1,137,138
 200 134 200 134 198 134 c 0,139,140
 188 135 188 135 164 133 c 0,141,142
 134 128 134 128 130 127 c 0,143,144
 108 120 108 120 95 108 c 0,145,146
 86 99 86 99 81 79 c 0,147,148
 77 64 77 64 80 47 c 0,149,150
 81 39 81 39 86 32 c 0,151,152
 92 21 92 21 96 19 c 0,125,126
EndSplineSet
EndChar
StartChar: dcaron
Encoding: 271 271 238
Width: 440
Flags: W
LayerCount: 2
Fore
SplineSet
404 422 m 1,0,-1
 412 411 l 1,1,-1
 404 422 l 1,0,-1
463 627 m 1,2,3
 468 626 468 626 472 623.5 c 128,-1,4
 476 621 476 621 477 619 c 2,5,-1
 483 612 l 1,6,-1
 490 606 l 2,7,8
 493 602 493 602 501 597 c 128,-1,9
 509 592 509 592 515 587 c 128,-1,10
 521 582 521 582 523 575 c 128,-1,11
 525 568 525 568 518.5 555 c 128,-1,12
 512 542 512 542 512 540 c 0,13,14
 489 445 489 445 412 411 c 1,15,-1
 404 429 l 1,16,17
 435 447 435 447 452.5 470.5 c 128,-1,18
 470 494 470 494 456 521 c 0,19,20
 452 528 452 528 437 543.5 c 128,-1,21
 422 559 422 559 419 573 c 1,22,23
 447 588 447 588 463 627 c 1,2,3
89 283 m 0,24,25
 119 308 119 308 157 323 c 0,26,27
 193 339 193 339 229 338 c 0,28,29
 241 337 241 337 261 334 c 0,30,31
 267 333 267 333 278 330 c 2,32,-1
 296 325 l 2,33,34
 297 325 297 325 298.5 324.5 c 128,-1,35
 300 324 300 324 301 324 c 0,36,37
 304 324 304 324 305.5 326 c 128,-1,38
 307 328 307 328 307 330 c 0,39,40
 307 331 307 331 307.5 332.5 c 128,-1,41
 308 334 308 334 308 335 c 0,42,43
 311 403 311 403 310 457 c 0,44,45
 308 508 308 508 306 533 c 0,46,47
 306 542 306 542 305 545 c 0,48,49
 304 551 304 551 302 556 c 0,50,51
 299 562 299 562 292 563 c 2,52,-1
 286 563 l 2,53,54
 282 563 282 563 281 562 c 2,55,-1
 269 560 l 2,56,57
 261 558 261 558 258.5 558 c 128,-1,58
 256 558 256 558 254 559 c 0,59,60
 251 560 251 560 250.5 562.5 c 128,-1,61
 250 565 250 565 250.5 567 c 128,-1,62
 251 569 251 569 254 572 c 0,63,64
 256 573 256 573 264 576 c 0,65,66
 278 582 278 582 306 595 c 0,67,68
 336 610 336 610 362 626 c 0,69,70
 363 627 363 627 365 627 c 2,71,-1
 367 627 l 1,72,-1
 368 626 l 1,73,-1
 370 626 l 2,74,75
 371 626 371 626 372 625 c 0,76,77
 375 622 375 622 375 620 c 2,78,-1
 376 619 l 1,79,-1
 376 617 l 1,80,-1
 376 616 l 1,81,-1
 375 614 l 1,82,83
 365 538 365 538 362 474 c 0,84,85
 360 429 360 429 358.5 376.5 c 128,-1,86
 357 324 357 324 355.5 261 c 128,-1,87
 354 198 354 198 354 164 c 0,88,89
 352 119 352 119 354 81 c 0,90,91
 355 62 355 62 361 25 c 0,92,93
 361 24 361 24 361.5 22 c 128,-1,94
 362 20 362 20 362 19 c 0,95,96
 362 17 362 17 364 13 c 0,97,98
 365 10 365 10 369 10 c 2,99,-1
 371 10 l 1,100,-1
 373 10 l 1,101,-1
 412 22 l 1,102,-1
 416 22 l 1,103,-1
 419 22 l 2,104,105
 421 22 421 22 422 21 c 0,106,107
 424 19 424 19 424 18 c 2,108,-1
 424 14 l 2,109,110
 424 12 424 12 423 11 c 0,111,112
 422 11 422 11 422 10 c 2,113,-1
 420 9 l 2,114,115
 419 8 419 8 416 9 c 2,116,-1
 320 -24 l 2,117,118
 318 -25 318 -25 315 -25 c 128,-1,119
 312 -25 312 -25 310 -23 c 128,-1,120
 308 -21 308 -21 307 -19 c 128,-1,121
 306 -17 306 -17 306 -13 c 2,122,-1
 303 11 l 2,123,124
 301 36 301 36 302 47 c 1,125,-1
 275 33 l 2,126,127
 231 10 231 10 196 3 c 0,128,129
 151 -6 151 -6 112 9 c 0,130,131
 69 26 69 26 45 69 c 0,132,133
 14 124 14 124 29 190 c 0,134,135
 42 245 42 245 89 283 c 0,24,25
163 307 m 0,136,137
 141 300 141 300 125 290 c 0,138,139
 92 269 92 269 78 241 c 0,140,141
 66 215 66 215 69 182 c 0,142,143
 70 156 70 156 81 126 c 0,144,145
 91 97 91 97 112 76 c 0,146,147
 149 36 149 36 199 33 c 0,148,149
 236 31 236 31 268 45 c 0,150,151
 284 52 284 52 302 64 c 1,152,153
 300 90 300 90 302 116 c 0,154,155
 304 175 304 175 304 205 c 2,156,-1
 304 260 l 1,157,-1
 304 269 l 2,158,159
 304 275 304 275 303 278 c 0,160,161
 302 282 302 282 299 285 c 0,162,163
 297 287 297 287 290 289 c 2,164,-1
 256 299 l 2,165,166
 218 308 218 308 210 309 c 0,167,168
 183 312 183 312 163 307 c 0,136,137
EndSplineSet
EndChar
StartChar: ebreve
Encoding: 277 277 242
Width: 338
Flags: W
LayerCount: 2
Fore
SplineSet
73 534 m 1,0,1
 84 533 84 533 90.5 526.5 c 128,-1,2
 97 520 97 520 102 507.5 c 128,-1,3
 107 495 107 495 112 489 c 0,4,5
 138 460 138 460 180.5 460 c 128,-1,6
 223 460 223 460 249 489 c 0,7,8
 254 495 254 495 259 507.5 c 128,-1,9
 264 520 264 520 270.5 526.5 c 128,-1,10
 277 533 277 533 288 534 c 1,11,12
 285 469 285 469 250 436 c 0,13,14
 211 400 211 400 161.5 410.5 c 128,-1,15
 112 421 112 421 88 467 c 0,16,17
 74 496 74 496 73 534 c 1,0,1
48 247 m 0,18,19
 74 294 74 294 126 319 c 0,20,21
 158 334 158 334 191 331 c 0,22,23
 232 327 232 327 266 296 c 0,24,25
 284 280 284 280 297 257 c 0,26,27
 301 251 301 251 302 251 c 2,28,-1
 308 245 l 2,29,30
 309 244 309 244 310.5 243 c 128,-1,31
 312 242 312 242 313 242 c 0,32,33
 316 241 316 241 317 238 c 2,34,-1
 317 235 l 2,35,36
 317 233 317 233 316 233 c 2,37,-1
 314 231 l 1,38,-1
 311 231 l 1,39,-1
 250 218 l 1,40,-1
 78 184 l 1,41,42
 75 145 75 145 87 111 c 0,43,44
 96 87 96 87 112 66 c 0,45,46
 127 47 127 47 151 35 c 0,47,48
 178 22 178 22 210 24 c 0,49,50
 234 25 234 25 268 39 c 0,51,52
 293 50 293 50 304 58 c 1,53,-1
 310 50 l 1,54,55
 286 32 286 32 258 17 c 0,56,57
 220 -3 220 -3 176 -6 c 0,58,59
 131 -9 131 -9 94 14 c 0,60,61
 57 38 57 38 39 82 c 0,62,63
 24 119 24 119 26 168 c 0,64,65
 29 214 29 214 48 247 c 0,18,19
211 294 m 0,66,67
 182 315 182 315 153 314 c 0,68,69
 131 314 131 314 114 299 c 0,70,71
 99 286 99 286 93 268 c 0,72,73
 88 256 88 256 83 235 c 0,74,75
 80 223 80 223 78 198 c 1,76,-1
 222 229 l 2,77,78
 224 229 224 229 227 230 c 128,-1,79
 230 231 230 231 232 231 c 2,80,-1
 241 234 l 2,81,82
 244 235 244 235 245 238 c 0,83,84
 247 242 247 242 247 243 c 2,85,-1
 247 248 l 2,86,87
 247 249 247 249 245 252 c 0,88,89
 233 278 233 278 211 294 c 0,66,67
EndSplineSet
EndChar
StartChar: edotaccent
Encoding: 279 279 243
Width: 338
Flags: W
LayerCount: 2
Fore
SplineSet
166.5 476 m 128,-1,1
 186 484 186 484 201 471 c 128,-1,2
 216 458 216 458 214 438.5 c 128,-1,3
 212 419 212 419 193 411 c 0,4,5
 173 403 173 403 158.5 416.5 c 128,-1,6
 144 430 144 430 145.5 449 c 128,-1,0
 147 468 147 468 166.5 476 c 128,-1,1
48 247 m 0,7,8
 74 294 74 294 126 319 c 0,9,10
 158 334 158 334 191 331 c 0,11,12
 232 327 232 327 266 296 c 0,13,14
 284 280 284 280 297 257 c 0,15,16
 301 251 301 251 302 251 c 2,17,-1
 308 245 l 2,18,19
 309 244 309 244 310.5 243 c 128,-1,20
 312 242 312 242 313 242 c 0,21,22
 316 241 316 241 317 238 c 2,23,-1
 317 235 l 2,24,25
 317 233 317 233 316 233 c 2,26,-1
 314 231 l 1,27,-1
 311 231 l 1,28,-1
 250 218 l 1,29,-1
 78 184 l 1,30,31
 75 145 75 145 87 111 c 0,32,33
 96 87 96 87 112 66 c 0,34,35
 127 47 127 47 151 35 c 0,36,37
 178 22 178 22 210 24 c 0,38,39
 234 25 234 25 268 39 c 0,40,41
 293 50 293 50 304 58 c 1,42,-1
 310 50 l 1,43,44
 286 32 286 32 258 17 c 0,45,46
 220 -3 220 -3 176 -6 c 0,47,48
 131 -9 131 -9 94 14 c 0,49,50
 57 38 57 38 39 82 c 0,51,52
 24 119 24 119 26 168 c 0,53,54
 29 214 29 214 48 247 c 0,7,8
211 294 m 0,55,56
 182 315 182 315 153 314 c 0,57,58
 131 314 131 314 114 299 c 0,59,60
 99 286 99 286 93 268 c 0,61,62
 88 256 88 256 83 235 c 0,63,64
 80 223 80 223 78 198 c 1,65,-1
 222 229 l 2,66,67
 224 229 224 229 227 230 c 128,-1,68
 230 231 230 231 232 231 c 2,69,-1
 241 234 l 2,70,71
 244 235 244 235 245 238 c 0,72,73
 247 242 247 242 247 243 c 2,74,-1
 247 248 l 2,75,76
 247 249 247 249 245 252 c 0,77,78
 233 278 233 278 211 294 c 0,55,56
EndSplineSet
EndChar
StartChar: gcircumflex
Encoding: 285 285 247
Width: 403
Flags: W
LayerCount: 2
Fore
SplineSet
87 408 m 1,0,-1
 103 442 l 2,1,2
 112 461 112 461 120 473 c 2,3,-1
 139 507 l 2,4,5
 151 529 151 529 157 539 c 2,6,-1
 170 559 l 2,7,8
 174 565 174 565 184.5 571 c 128,-1,9
 195 577 195 577 209 575 c 0,10,11
 216 574 216 574 221.5 569 c 128,-1,12
 227 564 227 564 230 560 c 128,-1,13
 233 556 233 556 237.5 547 c 128,-1,14
 242 538 242 538 244 535 c 2,15,-1
 266 497 l 1,16,-1
 293 447 l 2,17,18
 304 427 304 427 313 408 c 1,19,20
 292 409 292 409 272 425.5 c 128,-1,21
 252 442 252 442 228 471 c 2,22,-1
 198 508 l 1,23,24
 182 477 182 477 148.5 443 c 128,-1,25
 115 409 115 409 87 408 c 1,0,-1
41 175 m 0,26,27
 37 214 37 214 55 251 c 128,-1,28
 73 288 73 288 104 313 c 0,29,30
 128 333 128 333 159 341 c 0,31,32
 218 358 218 358 268 327 c 0,33,34
 273 323 273 323 281 320 c 0,35,36
 283 319 283 319 287.5 319.5 c 128,-1,37
 292 320 292 320 294 320 c 0,38,39
 306 323 306 323 333 325 c 0,40,41
 351 326 351 326 372 323 c 0,42,43
 376 323 376 323 377 322 c 128,-1,44
 378 321 378 321 379 320.5 c 128,-1,45
 380 320 380 320 381 320 c 0,46,47
 382 319 382 319 382 315 c 2,48,-1
 382 311 l 2,49,50
 382 302 382 302 379 296 c 0,51,52
 376 288 376 288 372 284 c 2,53,-1
 371 282 l 2,54,55
 370 281 370 281 369 281 c 2,56,-1
 366 281 l 2,57,58
 365 281 365 281 363 282 c 0,59,60
 348 286 348 286 340 286 c 0,61,62
 321 289 321 289 305 289 c 1,63,64
 318 259 318 259 324 230 c 0,65,66
 329 205 329 205 326 184 c 0,67,68
 323 160 323 160 312 139 c 0,69,70
 303 122 303 122 281 103 c 0,71,72
 257 83 257 83 199 57 c 2,73,-1
 170 44 l 2,74,75
 156 38 156 38 147 32 c 0,76,77
 126 19 126 19 123 17 c 0,78,79
 122 16 122 16 120 14.5 c 128,-1,80
 118 13 118 13 117 12 c 128,-1,81
 116 11 116 11 114 6 c 0,82,83
 113 2 113 2 114 -2 c 128,-1,84
 115 -6 115 -6 119 -9 c 0,85,86
 125 -15 125 -15 132 -18 c 0,87,88
 158 -29 158 -29 216 -27 c 0,89,90
 276 -25 276 -25 301 -32 c 0,91,92
 328 -41 328 -41 344 -55 c 0,93,94
 364 -74 364 -74 370 -96 c 0,95,96
 377 -123 377 -123 364 -154 c 0,97,98
 354 -179 354 -179 329 -200 c 0,99,100
 280 -243 280 -243 205 -262 c 0,101,102
 166 -271 166 -271 136 -270 c 0,103,104
 98 -268 98 -268 70 -252 c 0,105,106
 45 -238 45 -238 34 -218 c 0,107,108
 21 -195 21 -195 22 -171 c 0,109,110
 24 -145 24 -145 36 -124 c 0,111,112
 45 -108 45 -108 69 -86 c 0,113,114
 79 -77 79 -77 104 -61 c 1,115,-1
 83 -43 l 2,116,117
 74 -34 74 -34 66 -21 c 0,118,119
 60 -10 60 -10 59 -4 c 0,120,121
 59 -3 59 -3 58.5 -1.5 c 128,-1,122
 58 0 58 0 58 1 c 128,-1,123
 58 2 58 2 58.5 3.5 c 128,-1,124
 59 5 59 5 59 6 c 0,125,126
 58 8 58 8 60 9 c 0,127,128
 61 10 61 10 65 12 c 0,129,130
 88 25 88 25 92 26 c 2,131,-1
 125 41 l 1,132,-1
 150 53 l 1,133,134
 140 56 140 56 121 65 c 0,135,136
 88 81 88 81 67 110 c 128,-1,137
 46 139 46 139 41 175 c 0,26,27
124 310 m 0,138,139
 105 297 105 297 92 271 c 0,140,141
 81 248 81 248 80 222 c 0,142,143
 80 171 80 171 117 130 c 0,144,145
 153 89 153 89 204 78 c 1,146,147
 223 84 223 84 238 95 c 0,148,149
 264 115 264 115 273 147 c 0,150,151
 279 172 279 172 276 196 c 0,152,153
 273 224 273 224 263 252 c 0,154,155
 252 284 252 284 233 302 c 0,156,157
 209 325 209 325 180 325 c 0,158,159
 148 327 148 327 124 310 c 0,138,139
91 -88 m 0,160,161
 74 -100 74 -100 63 -114 c 0,162,163
 51 -130 51 -130 50 -150 c 0,164,165
 49 -173 49 -173 64 -193 c 0,166,167
 75 -208 75 -208 102 -220 c 0,168,169
 145 -240 145 -240 194 -235 c 0,170,171
 248 -230 248 -230 293 -204 c 0,172,173
 308 -195 308 -195 320 -182 c 0,174,175
 330 -171 330 -171 333 -152 c 0,176,177
 335 -138 335 -138 330 -117 c 0,178,179
 324 -100 324 -100 317.5 -91.5 c 128,-1,180
 311 -83 311 -83 298 -78 c 0,181,182
 290 -75 290 -75 275 -74 c 0,183,184
 251 -73 251 -73 228 -74 c 0,185,186
 188 -76 188 -76 161 -72 c 0,187,188
 149 -71 149 -71 130 -67 c 1,189,190
 108 -77 108 -77 91 -88 c 0,160,161
EndSplineSet
EndChar
StartChar: gbreve
Encoding: 287 287 248
Width: 403
Flags: W
LayerCount: 2
Fore
SplineSet
92 534 m 1,0,1
 103 533 103 533 109.5 526.5 c 128,-1,2
 116 520 116 520 121 507.5 c 128,-1,3
 126 495 126 495 131 489 c 0,4,5
 157 460 157 460 199.5 460 c 128,-1,6
 242 460 242 460 268 489 c 0,7,8
 273 495 273 495 278 507.5 c 128,-1,9
 283 520 283 520 289.5 526.5 c 128,-1,10
 296 533 296 533 307 534 c 1,11,12
 304 469 304 469 269 436 c 0,13,14
 230 400 230 400 180.5 410.5 c 128,-1,15
 131 421 131 421 107 467 c 0,16,17
 93 496 93 496 92 534 c 1,0,1
41 175 m 0,18,19
 37 214 37 214 55 251 c 128,-1,20
 73 288 73 288 104 313 c 0,21,22
 128 333 128 333 159 341 c 0,23,24
 218 358 218 358 268 327 c 0,25,26
 273 323 273 323 281 320 c 0,27,28
 283 319 283 319 287.5 319.5 c 128,-1,29
 292 320 292 320 294 320 c 0,30,31
 306 323 306 323 333 325 c 0,32,33
 351 326 351 326 372 323 c 0,34,35
 376 323 376 323 377 322 c 128,-1,36
 378 321 378 321 379 320.5 c 128,-1,37
 380 320 380 320 381 320 c 0,38,39
 382 319 382 319 382 315 c 2,40,-1
 382 311 l 2,41,42
 382 302 382 302 379 296 c 0,43,44
 376 288 376 288 372 284 c 2,45,-1
 371 282 l 2,46,47
 370 281 370 281 369 281 c 2,48,-1
 366 281 l 2,49,50
 365 281 365 281 363 282 c 0,51,52
 348 286 348 286 340 286 c 0,53,54
 321 289 321 289 305 289 c 1,55,56
 318 259 318 259 324 230 c 0,57,58
 329 205 329 205 326 184 c 0,59,60
 323 160 323 160 312 139 c 0,61,62
 303 122 303 122 281 103 c 0,63,64
 257 83 257 83 199 57 c 2,65,-1
 170 44 l 2,66,67
 156 38 156 38 147 32 c 0,68,69
 126 19 126 19 123 17 c 0,70,71
 122 16 122 16 120 14.5 c 128,-1,72
 118 13 118 13 117 12 c 128,-1,73
 116 11 116 11 114 6 c 0,74,75
 113 2 113 2 114 -2 c 128,-1,76
 115 -6 115 -6 119 -9 c 0,77,78
 125 -15 125 -15 132 -18 c 0,79,80
 158 -29 158 -29 216 -27 c 0,81,82
 276 -25 276 -25 301 -32 c 0,83,84
 328 -41 328 -41 344 -55 c 0,85,86
 364 -74 364 -74 370 -96 c 0,87,88
 377 -123 377 -123 364 -154 c 0,89,90
 354 -179 354 -179 329 -200 c 0,91,92
 280 -243 280 -243 205 -262 c 0,93,94
 166 -271 166 -271 136 -270 c 0,95,96
 98 -268 98 -268 70 -252 c 0,97,98
 45 -238 45 -238 34 -218 c 0,99,100
 21 -195 21 -195 22 -171 c 0,101,102
 24 -145 24 -145 36 -124 c 0,103,104
 45 -108 45 -108 69 -86 c 0,105,106
 79 -77 79 -77 104 -61 c 1,107,-1
 83 -43 l 2,108,109
 74 -34 74 -34 66 -21 c 0,110,111
 60 -10 60 -10 59 -4 c 0,112,113
 59 -3 59 -3 58.5 -1.5 c 128,-1,114
 58 0 58 0 58 1 c 128,-1,115
 58 2 58 2 58.5 3.5 c 128,-1,116
 59 5 59 5 59 6 c 0,117,118
 58 8 58 8 60 9 c 0,119,120
 61 10 61 10 65 12 c 0,121,122
 88 25 88 25 92 26 c 2,123,-1
 125 41 l 1,124,-1
 150 53 l 1,125,126
 140 56 140 56 121 65 c 0,127,128
 88 81 88 81 67 110 c 128,-1,129
 46 139 46 139 41 175 c 0,18,19
124 310 m 0,130,131
 105 297 105 297 92 271 c 0,132,133
 81 248 81 248 80 222 c 0,134,135
 80 171 80 171 117 130 c 0,136,137
 153 89 153 89 204 78 c 1,138,139
 223 84 223 84 238 95 c 0,140,141
 264 115 264 115 273 147 c 0,142,143
 279 172 279 172 276 196 c 0,144,145
 273 224 273 224 263 252 c 0,146,147
 252 284 252 284 233 302 c 0,148,149
 209 325 209 325 180 325 c 0,150,151
 148 327 148 327 124 310 c 0,130,131
91 -88 m 0,152,153
 74 -100 74 -100 63 -114 c 0,154,155
 51 -130 51 -130 50 -150 c 0,156,157
 49 -173 49 -173 64 -193 c 0,158,159
 75 -208 75 -208 102 -220 c 0,160,161
 145 -240 145 -240 194 -235 c 0,162,163
 248 -230 248 -230 293 -204 c 0,164,165
 308 -195 308 -195 320 -182 c 0,166,167
 330 -171 330 -171 333 -152 c 0,168,169
 335 -138 335 -138 330 -117 c 0,170,171
 324 -100 324 -100 317.5 -91.5 c 128,-1,172
 311 -83 311 -83 298 -78 c 0,173,174
 290 -75 290 -75 275 -74 c 0,175,176
 251 -73 251 -73 228 -74 c 0,177,178
 188 -76 188 -76 161 -72 c 0,179,180
 149 -71 149 -71 130 -67 c 1,181,182
 108 -77 108 -77 91 -88 c 0,152,153
EndSplineSet
EndChar
StartChar: gcommaaccent
Encoding: 291 291 251
Width: 403
Flags: W
LayerCount: 2
Fore
SplineSet
134 392 m 1,0,-1
 142 381 l 1,1,-1
 134 392 l 1,0,-1
193 597 m 1,2,3
 198 596 198 596 202 593.5 c 128,-1,4
 206 591 206 591 207 589 c 2,5,-1
 213 582 l 1,6,-1
 220 576 l 2,7,8
 223 572 223 572 231 567 c 128,-1,9
 239 562 239 562 245 557 c 128,-1,10
 251 552 251 552 253 545 c 128,-1,11
 255 538 255 538 248.5 525 c 128,-1,12
 242 512 242 512 242 510 c 0,13,14
 219 415 219 415 142 381 c 1,15,-1
 134 399 l 1,16,17
 165 417 165 417 182.5 440.5 c 128,-1,18
 200 464 200 464 186 491 c 0,19,20
 182 498 182 498 167 513.5 c 128,-1,21
 152 529 152 529 149 543 c 1,22,23
 177 558 177 558 193 597 c 1,2,3
41 175 m 0,24,25
 37 214 37 214 55 251 c 128,-1,26
 73 288 73 288 104 313 c 0,27,28
 128 333 128 333 159 341 c 0,29,30
 218 358 218 358 268 327 c 0,31,32
 273 323 273 323 281 320 c 0,33,34
 283 319 283 319 287.5 319.5 c 128,-1,35
 292 320 292 320 294 320 c 0,36,37
 306 323 306 323 333 325 c 0,38,39
 351 326 351 326 372 323 c 0,40,41
 376 323 376 323 377 322 c 128,-1,42
 378 321 378 321 379 320.5 c 128,-1,43
 380 320 380 320 381 320 c 0,44,45
 382 319 382 319 382 315 c 2,46,-1
 382 311 l 2,47,48
 382 302 382 302 379 296 c 0,49,50
 376 288 376 288 372 284 c 2,51,-1
 371 282 l 2,52,53
 370 281 370 281 369 281 c 2,54,-1
 366 281 l 2,55,56
 365 281 365 281 363 282 c 0,57,58
 348 286 348 286 340 286 c 0,59,60
 321 289 321 289 305 289 c 1,61,62
 318 259 318 259 324 230 c 0,63,64
 329 205 329 205 326 184 c 0,65,66
 323 160 323 160 312 139 c 0,67,68
 303 122 303 122 281 103 c 0,69,70
 257 83 257 83 199 57 c 2,71,-1
 170 44 l 2,72,73
 156 38 156 38 147 32 c 0,74,75
 126 19 126 19 123 17 c 0,76,77
 122 16 122 16 120 14.5 c 128,-1,78
 118 13 118 13 117 12 c 128,-1,79
 116 11 116 11 114 6 c 0,80,81
 113 2 113 2 114 -2 c 128,-1,82
 115 -6 115 -6 119 -9 c 0,83,84
 125 -15 125 -15 132 -18 c 0,85,86
 158 -29 158 -29 216 -27 c 0,87,88
 276 -25 276 -25 301 -32 c 0,89,90
 328 -41 328 -41 344 -55 c 0,91,92
 364 -74 364 -74 370 -96 c 0,93,94
 377 -123 377 -123 364 -154 c 0,95,96
 354 -179 354 -179 329 -200 c 0,97,98
 280 -243 280 -243 205 -262 c 0,99,100
 166 -271 166 -271 136 -270 c 0,101,102
 98 -268 98 -268 70 -252 c 0,103,104
 45 -238 45 -238 34 -218 c 0,105,106
 21 -195 21 -195 22 -171 c 0,107,108
 24 -145 24 -145 36 -124 c 0,109,110
 45 -108 45 -108 69 -86 c 0,111,112
 79 -77 79 -77 104 -61 c 1,113,-1
 83 -43 l 2,114,115
 74 -34 74 -34 66 -21 c 0,116,117
 60 -10 60 -10 59 -4 c 0,118,119
 59 -3 59 -3 58.5 -1.5 c 128,-1,120
 58 0 58 0 58 1 c 128,-1,121
 58 2 58 2 58.5 3.5 c 128,-1,122
 59 5 59 5 59 6 c 0,123,124
 58 8 58 8 60 9 c 0,125,126
 61 10 61 10 65 12 c 0,127,128
 88 25 88 25 92 26 c 2,129,-1
 125 41 l 1,130,-1
 150 53 l 1,131,132
 140 56 140 56 121 65 c 0,133,134
 88 81 88 81 67 110 c 128,-1,135
 46 139 46 139 41 175 c 0,24,25
124 310 m 0,136,137
 105 297 105 297 92 271 c 0,138,139
 81 248 81 248 80 222 c 0,140,141
 80 171 80 171 117 130 c 0,142,143
 153 89 153 89 204 78 c 1,144,145
 223 84 223 84 238 95 c 0,146,147
 264 115 264 115 273 147 c 0,148,149
 279 172 279 172 276 196 c 0,150,151
 273 224 273 224 263 252 c 0,152,153
 252 284 252 284 233 302 c 0,154,155
 209 325 209 325 180 325 c 0,156,157
 148 327 148 327 124 310 c 0,136,137
91 -88 m 0,158,159
 74 -100 74 -100 63 -114 c 0,160,161
 51 -130 51 -130 50 -150 c 0,162,163
 49 -173 49 -173 64 -193 c 0,164,165
 75 -208 75 -208 102 -220 c 0,166,167
 145 -240 145 -240 194 -235 c 0,168,169
 248 -230 248 -230 293 -204 c 0,170,171
 308 -195 308 -195 320 -182 c 0,172,173
 330 -171 330 -171 333 -152 c 0,174,175
 335 -138 335 -138 330 -117 c 0,176,177
 324 -100 324 -100 317.5 -91.5 c 128,-1,178
 311 -83 311 -83 298 -78 c 0,179,180
 290 -75 290 -75 275 -74 c 0,181,182
 251 -73 251 -73 228 -74 c 0,183,184
 188 -76 188 -76 161 -72 c 0,185,186
 149 -71 149 -71 130 -67 c 1,187,188
 108 -77 108 -77 91 -88 c 0,158,159
EndSplineSet
EndChar
StartChar: itilde
Encoding: 297 297 254
Width: 220
Flags: W
LayerCount: 2
Fore
SplineSet
-35 413 m 1,0,1
 -34 436 -34 436 -26 458 c 0,2,3
 -17 481 -17 481 -4.5 492.5 c 128,-1,4
 8 504 8 504 21 505.5 c 128,-1,5
 34 507 34 507 52 502 c 128,-1,6
 70 497 70 497 83 490 c 2,7,-1
 115 474 l 1,8,-1
 144 460 l 2,9,10
 168 450 168 450 185.5 465 c 128,-1,11
 203 480 203 480 207 506 c 1,12,-1
 226 506 l 1,13,14
 225 480 225 480 217 462 c 0,15,16
 208 440 208 440 195.5 428.5 c 128,-1,17
 183 417 183 417 169.5 415 c 128,-1,18
 156 413 156 413 137.5 417.5 c 128,-1,19
 119 422 119 422 106 428 c 2,20,-1
 73 444 l 2,21,22
 54 453 54 453 43 457 c 0,23,24
 20 467 20 467 3 452.5 c 128,-1,25
 -14 438 -14 438 -16 413 c 1,26,-1
 -35 413 l 1,0,1
81 317 m 0,27,28
 107 332 107 332 128 350 c 0,29,30
 129 350 129 350 129 351 c 2,31,-1
 130 352 l 2,32,33
 131 353 131 353 133 353 c 2,34,-1
 136 353 l 1,35,-1
 138 351 l 2,36,37
 141 350 141 350 141 346 c 0,38,39
 141 345 141 345 140.5 342.5 c 128,-1,40
 140 340 140 340 140 339 c 0,41,42
 136 314 136 314 132 268 c 0,43,44
 129 230 129 230 130 153 c 0,45,46
 130 108 130 108 132 62 c 0,47,48
 132 51 132 51 135 41 c 0,49,50
 138 30 138 30 145 22 c 0,51,52
 151 16 151 16 153 15 c 0,53,54
 157 14 157 14 164 14 c 2,55,-1
 190 15 l 1,56,-1
 198 15 l 2,57,58
 199 15 199 15 200 13 c 0,59,60
 203 10 203 10 203 9 c 2,61,-1
 202 8 l 1,62,-1
 202 6 l 1,63,-1
 201 5 l 2,64,65
 200 4 200 4 200 3 c 0,66,67
 198 1 198 1 197 1 c 2,68,-1
 193 1 l 2,69,70
 139 1 139 1 112 0 c 0,71,72
 83 -1 83 -1 29 -5 c 1,73,-1
 26 -5 l 1,74,-1
 25 -3 l 2,75,76
 24 -2 24 -2 24 -1 c 2,77,-1
 24 2 l 1,78,-1
 24 5 l 2,79,80
 24 6 24 6 25 7 c 2,81,-1
 26 9 l 1,82,-1
 29 9 l 1,83,-1
 57 12 l 2,84,85
 59 12 59 12 62.5 14 c 128,-1,86
 66 16 66 16 67 18 c 0,87,88
 69 22 69 22 69 24 c 0,89,90
 69 25 69 25 69.5 26.5 c 128,-1,91
 70 28 70 28 70 29 c 0,92,93
 74 75 74 75 76 123 c 0,94,95
 78 184 78 184 73 246 c 0,96,97
 73 251 73 251 71 260 c 128,-1,98
 69 269 69 269 64 273 c 0,99,100
 57 280 57 280 51 280 c 0,101,102
 43 280 43 280 37 277 c 2,103,-1
 34 276 l 1,104,-1
 33 276 l 2,105,106
 32 275 32 275 31 275 c 2,107,-1
 27 275 l 2,108,109
 25 275 25 275 26 278 c 2,110,-1
 26 281 l 1,111,-1
 26 285 l 1,112,-1
 26 288 l 1,113,-1
 27 290 l 2,114,115
 29 292 29 292 30 292 c 2,116,-1
 34 293 l 2,117,118
 54 302 54 302 81 317 c 0,27,28
EndSplineSet
EndChar
StartChar: imacron
Encoding: 299 299 255
Width: 220
Flags: W
LayerCount: 2
Fore
SplineSet
-36 446 m 1,0,-1
 225 446 l 1,1,-1
 225 413 l 1,2,-1
 -36 413 l 1,3,-1
 -36 446 l 1,0,-1
81 317 m 0,4,5
 107 332 107 332 128 350 c 0,6,7
 129 350 129 350 129 351 c 2,8,-1
 130 352 l 2,9,10
 131 353 131 353 133 353 c 2,11,-1
 136 353 l 1,12,-1
 138 351 l 2,13,14
 141 350 141 350 141 346 c 0,15,16
 141 345 141 345 140.5 342.5 c 128,-1,17
 140 340 140 340 140 339 c 0,18,19
 136 314 136 314 132 268 c 0,20,21
 129 230 129 230 130 153 c 0,22,23
 130 108 130 108 132 62 c 0,24,25
 132 51 132 51 135 41 c 0,26,27
 138 30 138 30 145 22 c 0,28,29
 151 16 151 16 153 15 c 0,30,31
 157 14 157 14 164 14 c 2,32,-1
 190 15 l 1,33,-1
 198 15 l 2,34,35
 199 15 199 15 200 13 c 0,36,37
 203 10 203 10 203 9 c 2,38,-1
 202 8 l 1,39,-1
 202 6 l 1,40,-1
 201 5 l 2,41,42
 200 4 200 4 200 3 c 0,43,44
 198 1 198 1 197 1 c 2,45,-1
 193 1 l 2,46,47
 139 1 139 1 112 0 c 0,48,49
 83 -1 83 -1 29 -5 c 1,50,-1
 26 -5 l 1,51,-1
 25 -3 l 2,52,53
 24 -2 24 -2 24 -1 c 2,54,-1
 24 2 l 1,55,-1
 24 5 l 2,56,57
 24 6 24 6 25 7 c 2,58,-1
 26 9 l 1,59,-1
 29 9 l 1,60,-1
 57 12 l 2,61,62
 59 12 59 12 62.5 14 c 128,-1,63
 66 16 66 16 67 18 c 0,64,65
 69 22 69 22 69 24 c 0,66,67
 69 25 69 25 69.5 26.5 c 128,-1,68
 70 28 70 28 70 29 c 0,69,70
 74 75 74 75 76 123 c 0,71,72
 78 184 78 184 73 246 c 0,73,74
 73 251 73 251 71 260 c 128,-1,75
 69 269 69 269 64 273 c 0,76,77
 57 280 57 280 51 280 c 0,78,79
 43 280 43 280 37 277 c 2,80,-1
 34 276 l 1,81,-1
 33 276 l 2,82,83
 32 275 32 275 31 275 c 2,84,-1
 27 275 l 2,85,86
 25 275 25 275 26 278 c 2,87,-1
 26 281 l 1,88,-1
 26 285 l 1,89,-1
 26 288 l 1,90,-1
 27 290 l 2,91,92
 29 292 29 292 30 292 c 2,93,-1
 34 293 l 2,94,95
 54 302 54 302 81 317 c 0,4,5
EndSplineSet
EndChar
StartChar: IJ
Encoding: 306 306 260
Width: 568
Flags: W
LayerCount: 2
Fore
SplineSet
456 522 m 0,0,1
 453 485 453 485 452 395.5 c 128,-1,2
 451 306 451 306 450.5 173.5 c 128,-1,3
 450 41 450 41 448 -58 c 1,4,5
 384 -145 384 -145 340 -180 c 0,6,7
 331 -187 331 -187 310 -195.5 c 128,-1,8
 289 -204 289 -204 272 -204 c 0,9,10
 262 -204 262 -204 254 -195.5 c 128,-1,11
 246 -187 246 -187 243 -179 c 0,12,13
 242 -173 242 -173 249 -169 c 0,14,15
 266 -159 266 -159 294 -147 c 0,16,17
 297 -146 297 -146 301 -147 c 0,18,19
 303 -148 303 -148 310 -152 c 128,-1,20
 317 -156 317 -156 324 -156 c 0,21,22
 333 -156 333 -156 346 -143 c 128,-1,23
 359 -130 359 -130 366 -106 c 0,24,25
 377 -65 377 -65 381 0 c 0,26,27
 389 129 389 129 388.5 294 c 128,-1,28
 388 459 388 459 380 521 c 0,29,30
 378 537 378 537 371.5 548 c 128,-1,31
 365 559 365 559 360.5 564 c 128,-1,32
 356 569 356 569 340 572.5 c 128,-1,33
 324 576 324 576 319 576.5 c 128,-1,34
 314 577 314 577 289 579 c 0,35,36
 281 579 281 579 282 586 c 0,37,38
 282 595 282 595 288 595 c 0,39,40
 349 588 349 588 420 588 c 0,41,42
 482 588 482 588 532 592 c 0,43,44
 541 593 541 593 542 585 c 0,45,46
 542 574 542 574 534 574 c 0,47,48
 523 576 523 576 509.5 574.5 c 128,-1,49
 496 573 496 573 485 569 c 128,-1,50
 474 565 474 565 466 553.5 c 128,-1,51
 458 542 458 542 456 522 c 0,0,1
36 593 m 0,52,53
 79 588 79 588 159 588 c 0,54,55
 225 588 225 588 280 594 c 0,56,57
 289 595 289 595 289 587 c 0,58,59
 289 576 289 576 283 576 c 2,60,-1
 272 576 l 2,61,62
 263 576 263 576 261 575.5 c 128,-1,63
 259 575 259 575 250.5 574.5 c 128,-1,64
 242 574 242 574 240 573 c 2,65,-1
 230 570 l 2,66,67
 224 567 224 567 221 564 c 2,68,-1
 214 558 l 2,69,70
 209 554 209 554 207 549 c 128,-1,71
 205 544 205 544 202.5 536.5 c 128,-1,72
 200 529 200 529 199 521 c 0,73,74
 192 466 192 466 191.5 312 c 128,-1,75
 191 158 191 158 195 66 c 0,76,77
 197 23 197 23 222 17 c 0,78,79
 241 12 241 12 279 12 c 0,80,81
 285 12 285 12 285 4 c 0,82,83
 285 -3 285 -3 276 -3 c 0,84,85
 266 -4 266 -4 219.5 -2 c 128,-1,86
 173 0 173 0 161 0 c 0,87,88
 71 0 71 0 34 -4 c 0,89,90
 23 -6 23 -6 23 3 c 0,91,92
 23 14 23 14 29 14 c 0,93,94
 76 16 76 16 89 21 c 0,95,96
 121 32 121 32 124 75 c 0,97,98
 131 171 131 171 130 313.5 c 128,-1,99
 129 456 129 456 123 516 c 0,100,101
 119 552 119 552 103.5 562 c 128,-1,102
 88 572 88 572 47 576 c 0,103,104
 39 577 39 577 36 577 c 0,105,106
 28 578 28 578 28 583 c 0,107,108
 28 593 28 593 36 593 c 0,52,53
EndSplineSet
EndChar
StartChar: Lcaron
Encoding: 317 317 268
Width: 518
Flags: W
LayerCount: 2
Fore
SplineSet
433 394 m 1,0,-1
 441 383 l 1,1,-1
 433 394 l 1,0,-1
492 599 m 1,2,3
 497 598 497 598 501 595.5 c 128,-1,4
 505 593 505 593 506 591 c 2,5,-1
 512 584 l 1,6,-1
 519 578 l 2,7,8
 522 574 522 574 530 569 c 128,-1,9
 538 564 538 564 544 559 c 128,-1,10
 550 554 550 554 552 547 c 128,-1,11
 554 540 554 540 547.5 527 c 128,-1,12
 541 514 541 514 541 512 c 0,13,14
 518 417 518 417 441 383 c 1,15,-1
 433 401 l 1,16,17
 464 419 464 419 481.5 442.5 c 128,-1,18
 499 466 499 466 485 493 c 0,19,20
 481 500 481 500 466 515.5 c 128,-1,21
 451 531 451 531 448 545 c 1,22,23
 476 560 476 560 492 599 c 1,2,3
37 584 m 0,24,25
 38 584 38 584 50.5 583 c 128,-1,26
 63 582 63 582 87 580.5 c 128,-1,27
 111 579 111 579 136 579 c 0,28,29
 165 579 165 579 188.5 580.5 c 128,-1,30
 212 582 212 582 223 583.5 c 128,-1,31
 234 585 234 585 235 585 c 0,32,33
 243 585 243 585 243 576 c 0,34,35
 243 569 243 569 242 567.5 c 128,-1,36
 241 566 241 566 236 565 c 0,37,38
 197 561 197 561 183.5 553 c 128,-1,39
 170 545 170 545 168 521 c 0,40,41
 153 329 153 329 159 72 c 0,42,43
 160 48 160 48 171 38.5 c 128,-1,44
 182 29 182 29 216 28 c 0,45,46
 283 25 283 25 325 29 c 0,47,48
 410 37 410 37 442.5 58 c 128,-1,49
 475 79 475 79 486 116 c 0,50,51
 488 123 488 123 496 121 c 0,52,53
 505 118 505 118 503 110 c 0,54,55
 478 12 478 12 463 -13 c 1,56,57
 442 -6 442 -6 363 -3 c 0,58,59
 190 0 190 0 132 0 c 2,60,-1
 31 0 l 2,61,62
 23 0 23 0 24 9 c 0,63,64
 24 16 24 16 25 17.5 c 128,-1,65
 26 19 26 19 31 20 c 0,66,67
 69 26 69 26 79 35.5 c 128,-1,68
 89 45 89 45 90 78 c 0,69,70
 99 389 99 389 94 512 c 0,71,72
 93 532 93 532 90 542.5 c 128,-1,73
 87 553 87 553 77 558 c 128,-1,74
 67 563 67 563 62 564 c 2,75,-1
 37 566 l 2,76,77
 30 566 30 566 31 577 c 0,78,79
 32 584 32 584 37 584 c 0,24,25
EndSplineSet
EndChar
StartChar: lslash
Encoding: 322 322 273
Width: 228
Flags: W
LayerCount: 2
Fore
SplineSet
26 563 m 1,0,-1
 29 560 l 1,1,-1
 26 563 l 1,0,-1
29 563 m 1,2,-1
 63 591 l 1,3,-1
 167 637 l 1,4,-1
 144 352 l 1,5,-1
 216 404 l 1,6,7
 216 385 216 385 207.5 371.5 c 128,-1,8
 199 358 199 358 188.5 352.5 c 128,-1,9
 178 347 178 347 165.5 336 c 128,-1,10
 153 325 153 325 147 311 c 0,11,12
 143 302 143 302 142.5 290.5 c 128,-1,13
 142 279 142 279 143 264 c 128,-1,14
 144 249 144 249 144 244 c 2,15,-1
 144 100 l 2,16,17
 144 52 144 52 155 36 c 0,18,19
 170 14 170 14 222 10 c 1,20,-1
 222 -5 l 1,21,-1
 11 -5 l 1,22,-1
 11 10 l 1,23,24
 32 15 32 15 47.5 27.5 c 128,-1,25
 63 40 63 40 71.5 60.5 c 128,-1,26
 80 81 80 81 84.5 102 c 128,-1,27
 89 123 89 123 90 151 c 128,-1,28
 91 179 91 179 91 198.5 c 128,-1,29
 91 218 91 218 90 246 c 128,-1,30
 89 274 89 274 89 285 c 1,31,-1
 22 233 l 1,32,33
 22 252 22 252 29 264 c 128,-1,34
 36 276 36 276 45 282 c 128,-1,35
 54 288 54 288 66 298.5 c 128,-1,36
 78 309 78 309 86 322 c 0,37,38
 96 341 96 341 97.5 378.5 c 128,-1,39
 99 416 99 416 97 437.5 c 128,-1,40
 95 459 95 459 90 497 c 0,41,42
 89 501 89 501 88.5 510 c 128,-1,43
 88 519 88 519 87.5 524 c 128,-1,44
 87 529 87 529 85 535.5 c 128,-1,45
 83 542 83 542 79 548 c 0,46,47
 73 556 73 556 63.5 559.5 c 128,-1,48
 54 563 54 563 48 563 c 2,49,-1
 29 563 l 1,2,-1
EndSplineSet
EndChar
StartChar: Ncommaaccent
Encoding: 325 325 275
Width: 743
Flags: W
LayerCount: 2
Fore
SplineSet
303 -275 m 1,0,-1
 311 -286 l 1,1,-1
 303 -275 l 1,0,-1
362 -70 m 1,2,3
 367 -71 367 -71 371 -73.5 c 128,-1,4
 375 -76 375 -76 376 -78 c 2,5,-1
 382 -85 l 1,6,-1
 389 -91 l 2,7,8
 392 -95 392 -95 400 -100 c 128,-1,9
 408 -105 408 -105 414 -110 c 128,-1,10
 420 -115 420 -115 422 -122 c 128,-1,11
 424 -129 424 -129 417.5 -142 c 128,-1,12
 411 -155 411 -155 411 -157 c 0,13,14
 388 -252 388 -252 311 -286 c 1,15,-1
 303 -268 l 1,16,17
 334 -250 334 -250 351.5 -226.5 c 128,-1,18
 369 -203 369 -203 355 -176 c 0,19,20
 351 -169 351 -169 336 -153.5 c 128,-1,21
 321 -138 321 -138 318 -124 c 1,22,23
 346 -109 346 -109 362 -70 c 1,2,3
29 593 m 0,24,25
 75 586 75 586 97 586 c 0,26,27
 106 586 106 586 148 590 c 1,28,29
 156 577 156 577 186 544 c 128,-1,30
 216 511 216 511 272 456 c 2,31,-1
 374 358 l 1,32,-1
 500 238 l 1,33,-1
 616 127 l 1,34,35
 617 146 617 146 619 205.5 c 128,-1,36
 621 265 621 265 621.5 285.5 c 128,-1,37
 622 306 622 306 622.5 349.5 c 128,-1,38
 623 393 623 393 621 428.5 c 128,-1,39
 619 464 619 464 615 505 c 0,40,41
 612 543 612 543 596.5 558.5 c 128,-1,42
 581 574 581 574 530 579 c 0,43,44
 524 580 524 580 525 586 c 0,45,46
 525 594 525 594 532 594 c 128,-1,47
 539 594 539 594 583.5 589.5 c 128,-1,48
 628 585 628 585 654 585 c 0,49,50
 674 585 674 585 687.5 585.5 c 128,-1,51
 701 586 701 586 707 587 c 2,52,-1
 714 588 l 2,53,54
 721 588 721 588 720 580 c 0,55,56
 720 571 720 571 713 572 c 0,57,58
 686 571 686 571 671.5 555.5 c 128,-1,59
 657 540 657 540 655 499 c 0,60,61
 646 319 646 319 647 84 c 0,62,63
 647 30 647 30 651 2 c 0,64,65
 652 -10 652 -10 643 -10 c 0,66,67
 636 -10 636 -10 630 1 c 0,68,69
 621 23 621 23 589.5 59.5 c 128,-1,70
 558 96 558 96 503 150 c 2,71,-1
 396 252 l 1,72,-1
 266 372 l 1,73,-1
 138 492 l 1,74,75
 133 198 133 198 137 85 c 0,76,77
 138 53 138 53 151 40 c 0,78,79
 173 18 173 18 239 9 c 0,80,81
 247 8 247 8 247 -1 c 0,82,83
 247 -9 247 -9 238 -9 c 0,84,85
 172 -2 172 -2 128 -2 c 0,86,87
 77 -2 77 -2 45 -8 c 0,88,89
 36 -9 36 -9 35 -2 c 0,90,91
 33 8 33 8 41 9 c 0,92,93
 82 13 82 13 91 25 c 128,-1,94
 100 37 100 37 101 88 c 0,95,96
 101 117 101 117 104 230 c 128,-1,97
 107 343 107 343 106.5 372 c 128,-1,98
 106 401 106 401 103 508 c 1,99,100
 88 568 88 568 30 575 c 0,101,102
 23 576 23 576 23 584.5 c 128,-1,103
 23 593 23 593 29 593 c 0,24,25
EndSplineSet
EndChar
StartChar: ncommaaccent
Encoding: 326 326 276
Width: 446
Flags: W
LayerCount: 2
Fore
SplineSet
154 -274 m 1,0,-1
 162 -285 l 1,1,-1
 154 -274 l 1,0,-1
213 -69 m 1,2,3
 218 -70 218 -70 222 -72.5 c 128,-1,4
 226 -75 226 -75 227 -77 c 2,5,-1
 233 -84 l 1,6,-1
 240 -90 l 2,7,8
 243 -94 243 -94 251 -99 c 128,-1,9
 259 -104 259 -104 265 -109 c 128,-1,10
 271 -114 271 -114 273 -121 c 128,-1,11
 275 -128 275 -128 268.5 -141 c 128,-1,12
 262 -154 262 -154 262 -156 c 0,13,14
 239 -251 239 -251 162 -285 c 1,15,-1
 154 -267 l 1,16,17
 185 -249 185 -249 202.5 -225.5 c 128,-1,18
 220 -202 220 -202 206 -175 c 0,19,20
 202 -168 202 -168 187 -152.5 c 128,-1,21
 172 -137 172 -137 169 -123 c 1,22,23
 197 -108 197 -108 213 -69 c 1,2,3
176 292 m 0,24,25
 213 310 213 310 235 317 c 0,26,27
 286 331 286 331 320 318 c 0,28,29
 346 309 346 309 359 285 c 0,30,31
 366 276 366 276 369 261 c 0,32,33
 370 257 370 257 370.5 253 c 128,-1,34
 371 249 371 249 371.5 243.5 c 128,-1,35
 372 238 372 238 372 235 c 0,36,37
 374 201 374 201 375 133 c 0,38,39
 376 88 376 88 375 43 c 2,40,-1
 375 36 l 2,41,42
 375 33 375 33 377 29 c 0,43,44
 379 26 379 26 382 25 c 2,45,-1
 388 22 l 1,46,-1
 421 9 l 1,47,-1
 424 8 l 2,48,49
 427 7 427 7 427.5 6 c 128,-1,50
 428 5 428 5 428 2 c 2,51,-1
 428 -1 l 2,52,53
 428 -3 428 -3 427 -4 c 0,54,55
 426 -6 426 -6 424 -6 c 2,56,-1
 417 -6 l 1,57,58
 386 0 386 0 354 0 c 0,59,60
 309 0 309 0 271 -8 c 0,61,62
 270 -8 270 -8 268.5 -8.5 c 128,-1,63
 267 -9 267 -9 266 -9 c 0,64,65
 263 -9 263 -9 262 -8 c 0,66,67
 261 -8 261 -8 261 -7 c 128,-1,68
 261 -6 261 -6 260 -5 c 128,-1,69
 259 -4 259 -4 259 -2 c 0,70,71
 259 -1 259 -1 261 1 c 0,72,73
 261 2 261 2 262 2 c 2,74,-1
 263 4 l 2,75,76
 264 5 264 5 266 5 c 2,77,-1
 291 14 l 2,78,79
 299 17 299 17 303 21 c 0,80,81
 309 25 309 25 312 31 c 0,82,83
 316 38 316 38 317 44 c 0,84,85
 318 47 318 47 318 51 c 128,-1,86
 318 55 318 55 319 58 c 0,87,88
 324 101 324 101 323 134 c 0,89,90
 323 172 323 172 320 210 c 0,91,92
 318 231 318 231 315 240 c 0,93,94
 308 256 308 256 298.5 265.5 c 128,-1,95
 289 275 289 275 273 282 c 0,96,97
 264 286 264 286 244 287 c 0,98,99
 206 288 206 288 169 274 c 0,100,101
 152 267 152 267 134 257 c 1,102,-1
 131 70 l 1,103,-1
 131 51 l 2,104,105
 131 39 131 39 133 33 c 0,106,107
 136 24 136 24 144 18 c 0,108,109
 150 13 150 13 161 11 c 2,110,-1
 188 6 l 1,111,-1
 189 6 l 1,112,-1
 191 5 l 1,113,-1
 193 3 l 1,114,-1
 195 1 l 1,115,-1
 195 -2 l 1,116,-1
 195 -3 l 2,117,118
 194 -4 194 -4 194 -5 c 0,119,120
 194 -7 194 -7 192 -7 c 2,121,-1
 189 -7 l 1,122,-1
 186 -7 l 2,123,124
 176 -5 176 -5 155 -3 c 0,125,126
 126 0 126 0 66 -2 c 2,127,-1
 29 -3 l 1,128,-1
 26 -3 l 2,129,130
 25 -3 25 -3 24 -1 c 0,131,132
 23 0 23 0 23 3 c 2,133,-1
 23 6 l 2,134,135
 24 8 24 8 25.5 9.5 c 128,-1,136
 27 11 27 11 29 11 c 2,137,-1
 37 13 l 2,138,139
 48 17 48 17 54 20 c 0,140,141
 63 25 63 25 68 31 c 0,142,143
 72 36 72 36 76 47 c 0,144,145
 79 56 79 56 78 65 c 0,146,147
 81 106 81 106 81 147 c 0,148,149
 81 182 81 182 80 199 c 0,150,151
 78 229 78 229 76 245 c 0,152,153
 72 260 72 260 68 266 c 0,154,155
 64 271 64 271 60 273 c 0,156,157
 55 277 55 277 50 278 c 2,158,-1
 29 285 l 1,159,-1
 27 285 l 1,160,-1
 26 287 l 2,161,162
 25 287 25 287 26 288 c 2,163,-1
 26 290 l 1,164,-1
 27 291 l 2,165,166
 28 292 28 292 29 292 c 0,167,168
 61 303 61 303 77 310 c 0,169,170
 117 328 117 328 121 330 c 0,171,172
 123 332 123 332 125 332 c 0,173,174
 129 332 129 332 130 331 c 0,175,176
 132 329 132 329 131 327 c 0,177,178
 131 326 131 326 131.5 324.5 c 128,-1,179
 132 323 132 323 132 322 c 2,180,-1
 133 268 l 1,181,182
 153 281 153 281 176 292 c 0,24,25
EndSplineSet
EndChar
StartChar: ohungarumlaut
Encoding: 337 337 283
Width: 411
Flags: W
LayerCount: 2
Fore
SplineSet
185 429 m 2,0,1
 187 425 187 425 187 422 c 0,2,3
 187 409 187 409 174 409 c 0,4,5
 164 409 164 409 160 419 c 2,6,-1
 103 512 l 2,7,8
 101 514 101 514 101 517 c 0,9,10
 101 526 101 526 115 533 c 0,11,12
 124 536 124 536 130 536 c 0,13,14
 139 536 139 536 140 530 c 2,15,-1
 185 429 l 2,0,1
265 429 m 2,16,17
 267 425 267 425 267 422 c 0,18,19
 267 409 267 409 254 409 c 0,20,21
 244 409 244 409 240 419 c 2,22,-1
 183 512 l 2,23,24
 181 514 181 514 181 517 c 0,25,26
 181 526 181 526 195 533 c 0,27,28
 204 536 204 536 210 536 c 0,29,30
 219 536 219 536 220 530 c 2,31,-1
 265 429 l 2,16,17
133 331 m 0,32,33
 181 352 181 352 229 348 c 0,34,35
 279 343 279 343 319 314 c 0,36,37
 368 277 368 277 382 218 c 0,38,39
 397 158 397 158 373 104 c 0,40,41
 354 57 354 57 312 27 c 0,42,43
 255 -12 255 -12 182 -1 c 0,44,45
 116 9 116 9 72 56 c 0,46,47
 26 104 26 104 24 169 c 0,48,49
 24 223 24 223 54 267 c 0,50,51
 83 308 83 308 133 331 c 0,32,33
193 328 m 0,52,53
 165 328 165 328 143 316 c 0,54,55
 119 303 119 303 104 282 c 0,56,57
 78 247 78 247 78 196 c 0,58,59
 78 148 78 148 98 107 c 0,60,61
 116 66 116 66 149 41 c 0,62,63
 186 12 186 12 227 14 c 0,64,65
 253 15 253 15 276 32 c 0,66,67
 294 44 294 44 306 64 c 0,68,69
 331 104 331 104 333 150 c 0,70,71
 334 203 334 203 305 253 c 0,72,73
 283 288 283 288 259 305 c 0,74,75
 227 328 227 328 193 328 c 0,52,53
EndSplineSet
EndChar
StartChar: OE
Encoding: 338 338 284
Width: 930
Flags: W
LayerCount: 2
Fore
SplineSet
308 580 m 0,0,1
 250 572 250 572 204 547 c 0,2,3
 147 516 147 516 120 456.5 c 128,-1,4
 93 397 93 397 93 326 c 0,5,6
 93 260 93 260 118 200 c 128,-1,7
 143 140 143 140 185.5 97 c 128,-1,8
 228 54 228 54 289 33 c 128,-1,9
 350 12 350 12 416 23 c 2,10,-1
 424 24 l 2,11,12
 432 25 432 25 436 26 c 128,-1,13
 440 27 440 27 447.5 28 c 128,-1,14
 455 29 455 29 459.5 31 c 128,-1,15
 464 33 464 33 468 36 c 128,-1,16
 472 39 472 39 475 42 c 0,17,18
 479 48 479 48 481 57 c 128,-1,19
 483 66 483 66 483 79 c 2,20,-1
 483 96 l 1,21,22
 491 163 491 163 490 237 c 0,23,24
 490 262 490 262 490.5 308 c 128,-1,25
 491 354 491 354 491 391.5 c 128,-1,26
 491 429 491 429 489 464 c 2,27,-1
 489 480 l 2,28,29
 489 493 489 493 488 499.5 c 128,-1,30
 487 506 487 506 485.5 517.5 c 128,-1,31
 484 529 484 529 481 536.5 c 128,-1,32
 478 544 478 544 472 551 c 0,33,34
 458 567 458 567 425.5 575 c 128,-1,35
 393 583 393 583 363 582.5 c 128,-1,36
 333 582 333 582 308 580 c 0,0,1
913 137 m 1,37,38
 903 22 903 22 873 -1 c 0,39,40
 867 -5 867 -5 856 -6.5 c 128,-1,41
 845 -8 845 -8 835.5 -7 c 128,-1,42
 826 -6 826 -6 812 -4 c 128,-1,43
 798 -2 798 -2 794 -1 c 0,44,45
 768 1 768 1 738.5 1 c 128,-1,46
 709 1 709 1 672 0 c 128,-1,47
 635 -1 635 -1 616 -1 c 0,48,49
 599 -1 599 -1 565 0 c 128,-1,50
 531 1 531 1 504 1 c 128,-1,51
 477 1 477 1 453 -1 c 2,52,-1
 409 -4 l 1,53,-1
 364 -8 l 2,54,55
 351 -9 351 -9 323.5 -9.5 c 128,-1,56
 296 -10 296 -10 280 -7 c 128,-1,57
 264 -4 264 -4 241 1 c 128,-1,58
 218 6 218 6 199 15.5 c 128,-1,59
 180 25 180 25 160 38 c 0,60,61
 110 71 110 71 78 120.5 c 128,-1,62
 46 170 46 170 35 223 c 128,-1,63
 24 276 24 276 31 332 c 128,-1,64
 38 388 38 388 62.5 436 c 128,-1,65
 87 484 87 484 130.5 523.5 c 128,-1,66
 174 563 174 563 230 583 c 0,67,68
 258 593 258 593 292.5 597.5 c 128,-1,69
 327 602 327 602 349.5 602.5 c 128,-1,70
 372 603 372 603 414.5 601.5 c 128,-1,71
 457 600 457 600 475 600 c 2,72,-1
 876 600 l 1,73,-1
 857 482 l 1,74,-1
 839 485 l 1,75,76
 861 564 861 564 769 575 c 0,77,78
 744 578 744 578 716 578.5 c 128,-1,79
 688 579 688 579 667 577.5 c 128,-1,80
 646 576 646 576 614 574 c 128,-1,81
 582 572 582 572 564 571 c 1,82,-1
 557 314 l 1,83,84
 574 314 574 314 624.5 310.5 c 128,-1,85
 675 307 675 307 713.5 309 c 128,-1,86
 752 311 752 311 779 321 c 0,87,88
 789 325 789 325 795 334 c 128,-1,89
 801 343 801 343 803.5 352 c 128,-1,90
 806 361 806 361 812 368.5 c 128,-1,91
 818 376 818 376 827 378 c 1,92,-1
 827 203 l 1,93,-1
 812 203 l 1,94,95
 812 229 812 229 803 247.5 c 128,-1,96
 794 266 794 266 776.5 275.5 c 128,-1,97
 759 285 759 285 739 290 c 128,-1,98
 719 295 719 295 692.5 295 c 128,-1,99
 666 295 666 295 645 294.5 c 128,-1,100
 624 294 624 294 597 291.5 c 128,-1,101
 570 289 570 289 557 289 c 1,102,103
 547 205 547 205 556 104 c 0,104,105
 557 100 557 100 557 83 c 128,-1,106
 557 66 557 66 559 55.5 c 128,-1,107
 561 45 561 45 567 38 c 128,-1,108
 573 31 573 31 582.5 28.5 c 128,-1,109
 592 26 592 26 608.5 25 c 128,-1,110
 625 24 625 24 627 24 c 0,111,112
 745 8 745 8 816 38 c 0,113,114
 852 53 852 53 874 88 c 0,115,116
 877 92 877 92 883 106.5 c 128,-1,117
 889 121 889 121 896 128 c 128,-1,118
 903 135 903 135 913 137 c 1,37,38
EndSplineSet
EndChar
StartChar: Rcommaaccent
Encoding: 342 342 287
Width: 638
Flags: W
LayerCount: 2
Fore
SplineSet
283 -291 m 1,0,-1
 291 -302 l 1,1,-1
 283 -291 l 1,0,-1
342 -86 m 1,2,3
 347 -87 347 -87 351 -89.5 c 128,-1,4
 355 -92 355 -92 356 -94 c 2,5,-1
 362 -101 l 1,6,-1
 369 -107 l 2,7,8
 372 -111 372 -111 380 -116 c 128,-1,9
 388 -121 388 -121 394 -126 c 128,-1,10
 400 -131 400 -131 402 -138 c 128,-1,11
 404 -145 404 -145 397.5 -158 c 128,-1,12
 391 -171 391 -171 391 -173 c 0,13,14
 368 -268 368 -268 291 -302 c 1,15,-1
 283 -284 l 1,16,17
 314 -266 314 -266 331.5 -242.5 c 128,-1,18
 349 -219 349 -219 335 -192 c 0,19,20
 331 -185 331 -185 316 -169.5 c 128,-1,21
 301 -154 301 -154 298 -140 c 1,22,23
 326 -125 326 -125 342 -86 c 1,2,3
237 572 m 0,24,25
 188 572 188 572 171 555 c 0,26,27
 165 549 165 549 165 544 c 0,28,29
 156 415 156 415 158 304 c 1,30,31
 198 298 198 298 241 299 c 0,32,33
 273 299 273 299 298 304 c 0,34,35
 331 313 331 313 360.5 341 c 128,-1,36
 390 369 390 369 390 421 c 0,37,38
 390 466 390 466 363.5 507.5 c 128,-1,39
 337 549 337 549 296 564 c 0,40,41
 277 572 277 572 237 572 c 0,24,25
34 583 m 0,42,43
 36 583 36 583 61.5 581 c 128,-1,44
 87 579 87 579 112 579 c 0,45,46
 138 579 138 579 185.5 585.5 c 128,-1,47
 233 592 233 592 260 592 c 0,48,49
 355 592 355 592 408.5 542.5 c 128,-1,50
 462 493 462 493 462 435 c 0,51,52
 462 401 462 401 448 373.5 c 128,-1,53
 434 346 434 346 411.5 329 c 128,-1,54
 389 312 389 312 370.5 303 c 128,-1,55
 352 294 352 294 334 289 c 1,56,57
 455 107 455 107 518 43 c 0,58,59
 543 18 543 18 573.5 2.5 c 128,-1,60
 604 -13 604 -13 628 -13 c 0,61,62
 636 -13 636 -13 635 -21 c 0,63,64
 635 -30 635 -30 609 -30 c 0,65,66
 526 -30 526 -30 443 41 c 0,67,68
 369 104 369 104 257 279 c 1,69,70
 221 275 221 275 158 285 c 1,71,72
 157 185 157 185 163 43 c 0,73,74
 163 34 163 34 169.5 28 c 128,-1,75
 176 22 176 22 182.5 19.5 c 128,-1,76
 189 17 189 17 203.5 13 c 128,-1,77
 218 9 218 9 225.5 6.5 c 128,-1,78
 233 4 233 4 231 -5 c 0,79,80
 228 -12 228 -12 223 -10 c 0,81,82
 178 0 178 0 137 0 c 0,83,84
 99 0 99 0 37 -10 c 0,85,86
 32 -11 32 -11 27 -7 c 0,87,88
 25 -6 25 -6 26 0 c 128,-1,89
 27 6 27 6 30 7 c 0,90,91
 88 15 88 15 89 56 c 0,92,93
 101 362 101 362 90 527 c 0,94,95
 89 552 89 552 75.5 558 c 128,-1,96
 62 564 62 564 30 565 c 0,97,98
 25 565 25 565 24 568.5 c 128,-1,99
 23 572 23 572 25 576 c 0,100,101
 29 583 29 583 34 583 c 0,42,43
EndSplineSet
EndChar
StartChar: rcaron
Encoding: 345 345 289
Width: 305
Flags: W
LayerCount: 2
Fore
SplineSet
43 580 m 1,0,1
 64 579 64 579 84 562 c 128,-1,2
 104 545 104 545 127 515.5 c 128,-1,3
 150 486 150 486 158 479 c 1,4,5
 171 499 171 499 179.5 510 c 128,-1,6
 188 521 188 521 204.5 540 c 128,-1,7
 221 559 221 559 237.5 569 c 128,-1,8
 254 579 254 579 269 580 c 1,9,10
 262 564 262 564 252.5 545.5 c 128,-1,11
 243 527 243 527 235.5 514.5 c 128,-1,12
 228 502 228 502 216.5 480.5 c 128,-1,13
 205 459 205 459 199 449 c 0,14,15
 190 434 190 434 185.5 428 c 128,-1,16
 181 422 181 422 171 416 c 128,-1,17
 161 410 161 410 147 412 c 0,18,19
 140 413 140 413 134 418.5 c 128,-1,20
 128 424 128 424 125.5 427.5 c 128,-1,21
 123 431 123 431 118 440.5 c 128,-1,22
 113 450 113 450 111 453 c 0,23,24
 107 461 107 461 89.5 491 c 128,-1,25
 72 521 72 521 61.5 540.5 c 128,-1,26
 51 560 51 560 43 580 c 1,0,1
233 286 m 0,27,28
 226 293 226 293 214 295 c 0,29,30
 206 296 206 296 193 292 c 0,31,32
 172 285 172 285 147 267 c 0,33,34
 139 261 139 261 137 257 c 2,35,-1
 134 251 l 1,36,-1
 134 244 l 2,37,38
 133 212 133 212 133 147 c 0,39,40
 133 91 133 91 136 35 c 0,41,42
 136 29 136 29 137 27 c 2,43,-1
 138 25 l 2,44,45
 139 22 139 22 140 21 c 0,46,47
 142 19 142 19 145.5 17 c 128,-1,48
 149 15 149 15 152 15 c 0,49,50
 169 13 169 13 179 13 c 0,51,52
 200 12 200 12 220 13 c 2,53,-1
 223 13 l 2,54,55
 225 13 225 13 226 12 c 0,56,57
 228 10 228 10 228 9 c 2,58,-1
 229 9 l 1,59,-1
 229 7 l 2,60,61
 229 4 229 4 228 3 c 2,62,-1
 227 2 l 2,63,64
 227 1 227 1 226.5 0.5 c 128,-1,65
 226 0 226 0 226 0 c 2,66,67
 224 -2 224 -2 222 -2 c 2,68,-1
 218 -2 l 1,69,-1
 37 -5 l 1,70,-1
 35 -5 l 2,71,72
 34 -5 34 -5 32 -4 c 0,73,74
 30 -4 30 -4 30 -2 c 2,75,-1
 30 0 l 1,76,-1
 30 3 l 1,77,-1
 32 5 l 2,78,79
 33 6 33 6 34 6 c 0,80,81
 36 7 36 7 37 7 c 2,82,-1
 57 12 l 1,83,-1
 62 15 l 2,84,85
 65 17 65 17 67 20 c 2,86,-1
 70 26 l 2,87,88
 71 28 71 28 71 32 c 0,89,90
 78 83 78 83 79 134 c 0,91,92
 81 196 81 196 74 258 c 0,93,94
 74 263 74 263 72 268.5 c 128,-1,95
 70 274 70 274 65 277 c 0,96,97
 63 279 63 279 58 281 c 0,98,99
 55 282 55 282 49 282 c 0,100,101
 36 282 36 282 30 281 c 2,102,-1
 26 281 l 2,103,104
 25 281 25 281 25 281.5 c 128,-1,105
 25 282 25 282 24 282 c 0,106,107
 22 282 22 282 22 283 c 2,108,-1
 22 285 l 1,109,-1
 22 287 l 2,110,111
 22 289 22 289 24 289 c 0,112,113
 25 289 25 289 25 289.5 c 128,-1,114
 25 290 25 290 26 290 c 0,115,116
 60 309 60 309 77 320 c 0,117,118
 90 328 90 328 124 351 c 0,119,120
 125 352 125 352 128 352 c 0,121,122
 130 352 130 352 130 351 c 0,123,124
 132 349 132 349 132 348 c 2,125,-1
 132 347 l 2,126,127
 133 346 133 346 133 345 c 2,128,-1
 132 277 l 1,129,-1
 239 341 l 1,130,-1
 243 344 l 2,131,132
 244 345 244 345 246 345 c 2,133,-1
 250 345 l 2,134,135
 253 345 253 345 253 344 c 2,136,-1
 269 332 l 2,137,138
 280 323 280 323 282 322 c 0,139,140
 288 315 288 315 289 309 c 0,141,142
 291 300 291 300 286 291 c 0,143,144
 283 285 283 285 274 278 c 128,-1,145
 265 271 265 271 251 267 c 0,146,147
 250 267 250 267 249 266.5 c 128,-1,148
 248 266 248 266 247 266 c 2,149,-1
 243 266 l 1,150,-1
 240 268 l 2,151,152
 239 269 239 269 239 272 c 0,153,154
 238 281 238 281 233 286 c 0,27,28
EndSplineSet
EndChar
StartChar: utilde
Encoding: 361 361 300
Width: 449
Flags: W
LayerCount: 2
Fore
SplineSet
89 408 m 1,0,1
 90 431 90 431 98 453 c 0,2,3
 107 476 107 476 119.5 487.5 c 128,-1,4
 132 499 132 499 145 500.5 c 128,-1,5
 158 502 158 502 176 497 c 128,-1,6
 194 492 194 492 207 485 c 2,7,-1
 239 469 l 1,8,-1
 268 455 l 2,9,10
 292 445 292 445 309.5 460 c 128,-1,11
 327 475 327 475 331 501 c 1,12,-1
 350 501 l 1,13,14
 349 475 349 475 341 457 c 0,15,16
 332 435 332 435 319.5 423.5 c 128,-1,17
 307 412 307 412 293.5 410 c 128,-1,18
 280 408 280 408 261.5 412.5 c 128,-1,19
 243 417 243 417 230 423 c 2,20,-1
 197 439 l 2,21,22
 178 448 178 448 167 452 c 0,23,24
 144 462 144 462 127 447.5 c 128,-1,25
 110 433 110 433 108 408 c 1,26,-1
 89 408 l 1,0,1
130 239 m 0,27,28
 128 213 128 213 128 163 c 128,-1,29
 128 113 128 113 133 89 c 0,30,31
 137 74 137 74 141 66 c 0,32,33
 148 54 148 54 156 47 c 0,34,35
 173 33 173 33 199 33 c 0,36,37
 222 32 222 32 253 43 c 0,38,39
 278 52 278 52 310 71 c 1,40,41
 312 115 312 115 314 200 c 0,42,43
 314 211 314 211 314.5 234 c 128,-1,44
 315 257 315 257 315 268 c 0,45,46
 315 278 315 278 313 284 c 0,47,48
 310 292 310 292 304 295 c 0,49,50
 299 299 299 299 290 301 c 2,51,-1
 274 301 l 1,52,-1
 267 301 l 1,53,-1
 264 301 l 1,54,-1
 263 301 l 1,55,-1
 261 302 l 1,56,-1
 260 302 l 1,57,-1
 259 303 l 1,58,-1
 259 304 l 1,59,-1
 259 306 l 1,60,-1
 260 310 l 1,61,-1
 261 311 l 1,62,-1
 261 312 l 2,63,64
 261 313 261 313 262 314 c 128,-1,65
 263 315 263 315 264 315 c 128,-1,66
 265 315 265 315 265 315.5 c 128,-1,67
 265 316 265 316 266 316 c 0,68,69
 284 319 284 319 318 326 c 0,70,71
 340 331 340 331 371 339 c 1,72,-1
 372 340 l 1,73,-1
 373 340 l 1,74,-1
 375 339 l 2,75,76
 376 338 376 338 376 337 c 2,77,-1
 376 334 l 1,78,-1
 376 330 l 2,79,80
 375 304 375 304 371 239.5 c 128,-1,81
 367 175 367 175 366 140 c 0,82,83
 364 106 364 106 367 79 c 0,84,85
 369 54 369 54 372 33 c 0,86,87
 372 32 372 32 372.5 31 c 128,-1,88
 373 30 373 30 373 29 c 0,89,90
 373 27 373 27 375 25.5 c 128,-1,91
 377 24 377 24 379 24 c 0,92,93
 380 24 380 24 381 24.5 c 128,-1,94
 382 25 382 25 383 25 c 2,95,-1
 423 33 l 1,96,-1
 425 33 l 2,97,98
 426 33 426 33 427 32 c 2,99,-1
 429 30 l 1,100,-1
 429 29 l 1,101,-1
 430 28 l 1,102,-1
 431 27 l 1,103,-1
 431 26 l 2,104,105
 431 25 431 25 430.5 25 c 128,-1,106
 430 25 430 25 430 24 c 0,107,108
 430 22 430 22 429 22 c 2,109,-1
 428 21 l 1,110,-1
 426 21 l 1,111,-1
 379 6 l 1,112,-1
 332 -9 l 2,113,114
 331 -9 331 -9 330 -9.5 c 128,-1,115
 329 -10 329 -10 328 -10 c 2,116,-1
 324 -10 l 1,117,-1
 321 -8 l 2,118,119
 319 -6 319 -6 320 -4 c 2,120,-1
 314 25 l 2,121,122
 312 37 312 37 310 54 c 1,123,124
 293 44 293 44 257 26 c 0,125,126
 204 1 204 1 175 -2 c 0,127,128
 158 -5 158 -5 141 -2 c 0,129,130
 122 1 122 1 109 10 c 0,131,132
 93 21 93 21 82 45 c 0,133,134
 74 64 74 64 73 88 c 0,135,136
 71 115 71 115 73 171 c 0,137,138
 74 198 74 198 74 253 c 0,139,140
 74 263 74 263 73 268 c 0,141,142
 71 277 71 277 66 283 c 0,143,144
 59 290 59 290 54 290 c 0,145,146
 45 292 45 292 38 290 c 2,147,-1
 29 289 l 1,148,-1
 27 289 l 2,149,150
 26 289 26 289 26 290 c 1,151,152
 25 290 25 290 25 291 c 2,153,-1
 25 292 l 1,154,-1
 24 293 l 1,155,-1
 23 294 l 1,156,-1
 23 296 l 2,157,158
 23 297 23 297 23.5 297 c 128,-1,159
 24 297 24 297 24 298 c 128,-1,160
 24 299 24 299 25 300 c 2,161,-1
 26 301 l 1,162,163
 56 311 56 311 83 322 c 0,164,165
 104 331 104 331 128 344 c 1,166,-1
 129 344 l 1,167,-1
 130 344 l 2,168,169
 132 344 132 344 134 342 c 2,170,-1
 135 342 l 1,171,-1
 136 341 l 2,172,173
 137 341 137 341 137 340 c 2,174,-1
 138 339 l 1,175,-1
 138 338 l 1,176,-1
 138 337 l 1,177,-1
 135 306 l 2,178,179
 136 306 136 306 130 239 c 0,27,28
EndSplineSet
EndChar
StartChar: uring
Encoding: 367 367 303
Width: 449
Flags: W
LayerCount: 2
Fore
SplineSet
206.5 532.5 m 128,-1,1
 177 525 177 525 171.5 497 c 128,-1,2
 166 469 166 469 184 447 c 0,3,4
 203 424 203 424 233 432 c 0,5,6
 262 440 262 440 268 468 c 128,-1,7
 274 496 274 496 255 518 c 128,-1,0
 236 540 236 540 206.5 532.5 c 128,-1,1
203 554.5 m 128,-1,9
 229 561 229 561 250.5 550 c 128,-1,10
 272 539 272 539 281 519 c 128,-1,11
 290 499 290 499 290.5 476.5 c 128,-1,12
 291 454 291 454 276.5 435 c 128,-1,13
 262 416 262 416 236 410 c 128,-1,14
 210 404 210 404 188.5 415 c 128,-1,15
 167 426 167 426 158 446.5 c 128,-1,16
 149 467 149 467 148.5 488.5 c 128,-1,17
 148 510 148 510 162.5 529 c 128,-1,8
 177 548 177 548 203 554.5 c 128,-1,9
130 239 m 0,18,19
 128 213 128 213 128 163 c 128,-1,20
 128 113 128 113 133 89 c 0,21,22
 137 74 137 74 141 66 c 0,23,24
 148 54 148 54 156 47 c 0,25,26
 173 33 173 33 199 33 c 0,27,28
 222 32 222 32 253 43 c 0,29,30
 278 52 278 52 310 71 c 1,31,32
 312 115 312 115 314 200 c 0,33,34
 314 211 314 211 314.5 234 c 128,-1,35
 315 257 315 257 315 268 c 0,36,37
 315 278 315 278 313 284 c 0,38,39
 310 292 310 292 304 295 c 0,40,41
 299 299 299 299 290 301 c 2,42,-1
 274 301 l 1,43,-1
 267 301 l 1,44,-1
 264 301 l 1,45,-1
 263 301 l 1,46,-1
 261 302 l 1,47,-1
 260 302 l 1,48,-1
 259 303 l 1,49,-1
 259 304 l 1,50,-1
 259 306 l 1,51,-1
 260 310 l 1,52,-1
 261 311 l 1,53,-1
 261 312 l 2,54,55
 261 313 261 313 262 314 c 128,-1,56
 263 315 263 315 264 315 c 128,-1,57
 265 315 265 315 265 315.5 c 128,-1,58
 265 316 265 316 266 316 c 0,59,60
 284 319 284 319 318 326 c 0,61,62
 340 331 340 331 371 339 c 1,63,-1
 372 340 l 1,64,-1
 373 340 l 1,65,-1
 375 339 l 2,66,67
 376 338 376 338 376 337 c 2,68,-1
 376 334 l 1,69,-1
 376 330 l 2,70,71
 375 304 375 304 371 239.5 c 128,-1,72
 367 175 367 175 366 140 c 0,73,74
 364 106 364 106 367 79 c 0,75,76
 369 54 369 54 372 33 c 0,77,78
 372 32 372 32 372.5 31 c 128,-1,79
 373 30 373 30 373 29 c 0,80,81
 373 27 373 27 375 25.5 c 128,-1,82
 377 24 377 24 379 24 c 0,83,84
 380 24 380 24 381 24.5 c 128,-1,85
 382 25 382 25 383 25 c 2,86,-1
 423 33 l 1,87,-1
 425 33 l 2,88,89
 426 33 426 33 427 32 c 2,90,-1
 429 30 l 1,91,-1
 429 29 l 1,92,-1
 430 28 l 1,93,-1
 431 27 l 1,94,-1
 431 26 l 2,95,96
 431 25 431 25 430.5 25 c 128,-1,97
 430 25 430 25 430 24 c 0,98,99
 430 22 430 22 429 22 c 2,100,-1
 428 21 l 1,101,-1
 426 21 l 1,102,-1
 379 6 l 1,103,-1
 332 -9 l 2,104,105
 331 -9 331 -9 330 -9.5 c 128,-1,106
 329 -10 329 -10 328 -10 c 2,107,-1
 324 -10 l 1,108,-1
 321 -8 l 2,109,110
 319 -6 319 -6 320 -4 c 2,111,-1
 314 25 l 2,112,113
 312 37 312 37 310 54 c 1,114,115
 293 44 293 44 257 26 c 0,116,117
 204 1 204 1 175 -2 c 0,118,119
 158 -5 158 -5 141 -2 c 0,120,121
 122 1 122 1 109 10 c 0,122,123
 93 21 93 21 82 45 c 0,124,125
 74 64 74 64 73 88 c 0,126,127
 71 115 71 115 73 171 c 0,128,129
 74 198 74 198 74 253 c 0,130,131
 74 263 74 263 73 268 c 0,132,133
 71 277 71 277 66 283 c 0,134,135
 59 290 59 290 54 290 c 0,136,137
 45 292 45 292 38 290 c 2,138,-1
 29 289 l 1,139,-1
 27 289 l 2,140,141
 26 289 26 289 26 290 c 1,142,143
 25 290 25 290 25 291 c 2,144,-1
 25 292 l 1,145,-1
 24 293 l 1,146,-1
 23 294 l 1,147,-1
 23 296 l 2,148,149
 23 297 23 297 23.5 297 c 128,-1,150
 24 297 24 297 24 298 c 128,-1,151
 24 299 24 299 25 300 c 2,152,-1
 26 301 l 1,153,154
 56 311 56 311 83 322 c 0,155,156
 104 331 104 331 128 344 c 1,157,-1
 129 344 l 1,158,-1
 130 344 l 2,159,160
 132 344 132 344 134 342 c 2,161,-1
 135 342 l 1,162,-1
 136 341 l 2,163,164
 137 341 137 341 137 340 c 2,165,-1
 138 339 l 1,166,-1
 138 338 l 1,167,-1
 138 337 l 1,168,-1
 135 306 l 2,169,170
 136 306 136 306 130 239 c 0,18,19
EndSplineSet
EndChar
StartChar: longs
Encoding: 383 383 312
Width: 453
Flags: W
LayerCount: 2
Fore
SplineSet
186 614 m 0,0,1
 197 620 197 620 208.5 623 c 128,-1,2
 220 626 220 626 234 628.5 c 128,-1,3
 248 631 248 631 253 632 c 0,4,5
 279 638 279 638 308 633 c 0,6,7
 334 628 334 628 352 620 c 0,8,9
 356 619 356 619 358 616 c 0,10,11
 362 612 362 612 363 609 c 0,12,13
 365 603 365 603 364 601 c 2,14,-1
 360 593 l 1,15,-1
 354 584 l 2,16,17
 353 582 353 582 349.5 578 c 128,-1,18
 346 574 346 574 343 573 c 2,19,-1
 336 573 l 2,20,21
 334 573 334 573 328 575 c 0,22,23
 325 576 325 576 312 583 c 128,-1,24
 299 590 299 590 284 594 c 0,25,26
 280 595 280 595 272.5 596 c 128,-1,27
 265 597 265 597 256 598 c 128,-1,28
 247 599 247 599 244 599 c 0,29,30
 228 601 228 601 216 598 c 0,31,32
 202 594 202 594 184 579 c 1,33,-1
 172 560 l 2,34,35
 165 548 165 548 158 530 c 0,36,37
 154 516 154 516 150 485 c 0,38,39
 126 331 126 331 144 57 c 0,40,41
 146 41 146 41 154.5 32.5 c 128,-1,42
 163 24 163 24 172.5 21.5 c 128,-1,43
 182 19 182 19 191.5 12.5 c 128,-1,44
 201 6 201 6 203 -5 c 1,45,-1
 18 -1 l 1,46,-1
 18 14 l 1,47,48
 61 18 61 18 74 30 c 0,49,50
 77 34 77 34 79 38 c 128,-1,51
 81 42 81 42 82.5 45.5 c 128,-1,52
 84 49 84 49 85 55 c 128,-1,53
 86 61 86 61 86 64 c 128,-1,54
 86 67 86 67 86.5 73.5 c 128,-1,55
 87 80 87 80 87 82 c 0,56,57
 91 126 91 126 91 205 c 0,58,59
 91 209 91 209 91.5 226 c 128,-1,60
 92 243 92 243 92 254 c 128,-1,61
 92 265 92 265 89 277.5 c 128,-1,62
 86 290 86 290 80 298 c 0,63,64
 74 305 74 305 64.5 308 c 128,-1,65
 55 311 55 311 41 312 c 128,-1,66
 27 313 27 313 21 314 c 1,67,68
 25 330 25 330 39 330.5 c 128,-1,69
 53 331 53 331 68 331 c 128,-1,70
 83 331 83 331 88 342 c 0,71,72
 94 356 94 356 94 392 c 0,73,74
 94 397 94 397 101 439 c 0,75,76
 102 446 102 446 103 457.5 c 128,-1,77
 104 469 104 469 105 475 c 128,-1,78
 106 481 106 481 108 490 c 128,-1,79
 110 499 110 499 112 506 c 0,80,81
 114 511 114 511 119.5 527.5 c 128,-1,82
 125 544 125 544 129.5 554.5 c 128,-1,83
 134 565 134 565 140 574 c 0,84,85
 159 600 159 600 186 614 c 0,0,1
EndSplineSet
EndChar
StartChar: uni02C4
Encoding: 708 708 318
Width: 316
Flags: W
LayerCount: 2
Fore
SplineSet
45 411 m 1,0,-1
 61 445 l 2,1,2
 70 464 70 464 78 476 c 2,3,-1
 97 510 l 2,4,5
 109 532 109 532 115 542 c 2,6,-1
 128 562 l 2,7,8
 132 568 132 568 142.5 574 c 128,-1,9
 153 580 153 580 167 578 c 0,10,11
 174 577 174 577 179.5 572 c 128,-1,12
 185 567 185 567 188 563 c 128,-1,13
 191 559 191 559 195.5 550 c 128,-1,14
 200 541 200 541 202 538 c 2,15,-1
 224 500 l 1,16,-1
 251 450 l 2,17,18
 262 430 262 430 271 411 c 1,19,20
 250 412 250 412 230 428.5 c 128,-1,21
 210 445 210 445 186 474 c 2,22,-1
 156 511 l 1,23,24
 140 480 140 480 106.5 446 c 128,-1,25
 73 412 73 412 45 411 c 1,0,-1
EndSplineSet
EndChar
StartChar: breve
Encoding: 728 728 324
Width: 316
Flags: W
LayerCount: 2
Fore
SplineSet
52 556 m 1,0,1
 63 555 63 555 69.5 548.5 c 128,-1,2
 76 542 76 542 81 529.5 c 128,-1,3
 86 517 86 517 91 511 c 0,4,5
 117 482 117 482 159.5 482 c 128,-1,6
 202 482 202 482 228 511 c 0,7,8
 233 517 233 517 238 529.5 c 128,-1,9
 243 542 243 542 249.5 548.5 c 128,-1,10
 256 555 256 555 267 556 c 1,11,12
 264 491 264 491 229 458 c 0,13,14
 190 422 190 422 140.5 432.5 c 128,-1,15
 91 443 91 443 67 489 c 0,16,17
 53 518 53 518 52 556 c 1,0,1
EndSplineSet
EndChar
StartChar: uni0324
Encoding: 804 804 331
Width: 0
Flags: W
LayerCount: 2
Fore
SplineSet
-84 -79 m 0,0,1
 -68 -86 -68 -86 -70 -87 c 0,2,3
 -75 -95 -75 -95 -90 -110 c 0,4,5
 -104 -126 -104 -126 -110 -139 c 1,6,-1
 -134 -109 l 1,7,-1
 -154 -89 l 1,8,9
 -132 -77 -132 -77 -118 -46 c 1,10,11
 -120 -50 -120 -50 -96 -70 c 0,12,13
 -90 -74 -90 -74 -84 -79 c 0,0,1
-224 -79 m 0,14,15
 -208 -86 -208 -86 -210 -87 c 0,16,17
 -215 -95 -215 -95 -230 -110 c 0,18,19
 -244 -126 -244 -126 -250 -139 c 1,20,-1
 -274 -109 l 1,21,-1
 -294 -89 l 1,22,23
 -272 -77 -272 -77 -258 -46 c 1,24,25
 -254 -47 -254 -47 -240 -62 c 128,-1,26
 -226 -77 -226 -77 -224 -79 c 0,14,15
EndSplineSet
EndChar
StartChar: quoteleft
Encoding: 8216 8216 335
Width: 188
Flags: W
LayerCount: 2
Fore
SplineSet
148 637 m 1,0,-1
 160 626 l 1,1,-1
 148 637 l 1,0,-1
160 622 m 1,2,-1
 146 613 l 1,3,-1
 133 603 l 2,4,5
 124 596 124 596 119 590.5 c 128,-1,6
 114 585 114 585 108 577.5 c 128,-1,7
 102 570 102 570 100 563 c 128,-1,8
 98 556 98 556 98 547.5 c 128,-1,9
 98 539 98 539 103 530 c 0,10,11
 105 525 105 525 122 509 c 128,-1,12
 139 493 139 493 137 482 c 0,13,14
 137 477 137 477 133 472 c 128,-1,15
 129 467 129 467 123.5 462.5 c 128,-1,16
 118 458 118 458 116 455 c 0,17,18
 114 453 114 453 106 438.5 c 128,-1,19
 98 424 98 424 92 422 c 128,-1,20
 86 420 86 420 66 439.5 c 128,-1,21
 46 459 46 459 41 466 c 1,22,23
 40 476 40 476 40 480 c 128,-1,24
 40 484 40 484 43.5 494.5 c 128,-1,25
 47 505 47 505 47 507 c 0,26,27
 62 575 62 575 100 609 c 0,28,29
 110 618 110 618 114 620 c 2,30,-1
 129 628 l 2,31,32
 139 634 139 634 146 632 c 128,-1,33
 153 630 153 630 160 622 c 1,2,-1
EndSplineSet
EndChar
StartChar: quotedblleft
Encoding: 8220 8220 338
Width: 396
Flags: W
LayerCount: 2
Fore
SplineSet
352 622 m 1,0,-1
 338 612 l 1,1,-1
 322 599 l 2,2,3
 316 594 316 594 309 586.5 c 128,-1,4
 302 579 302 579 298 570 c 128,-1,5
 294 561 294 561 294 552 c 0,6,7
 293 536 293 536 312.5 517 c 128,-1,8
 332 498 332 498 332 485 c 0,9,10
 331 476 331 476 317 462.5 c 128,-1,11
 303 449 303 449 303 448 c 0,12,13
 301 446 301 446 298.5 441 c 128,-1,14
 296 436 296 436 293.5 432 c 128,-1,15
 291 428 291 428 288 427 c 0,16,17
 279 423 279 423 256 445.5 c 128,-1,18
 233 468 233 468 233 478 c 0,19,20
 233 528 233 528 265.5 576 c 128,-1,21
 298 624 298 624 345 637 c 1,22,-1
 352 626 l 1,23,-1
 352 622 l 1,0,-1
179 622 m 2,24,25
 177 622 177 622 169 616.5 c 128,-1,26
 161 611 161 611 158.5 609 c 128,-1,27
 156 607 156 607 149 602 c 128,-1,28
 142 597 142 597 139 593.5 c 128,-1,29
 136 590 136 590 130.5 585 c 128,-1,30
 125 580 125 580 123 575 c 2,31,-1
 119 564 l 2,32,33
 117 559 117 559 116 552 c 0,34,35
 115 538 115 538 136 516 c 128,-1,36
 157 494 157 494 153 482 c 0,37,38
 151 475 151 475 140 464 c 2,39,-1
 128 452 l 2,40,41
 126 449 126 449 122.5 442.5 c 128,-1,42
 119 436 119 436 115 431.5 c 128,-1,43
 111 427 111 427 107 426 c 0,44,45
 103 426 103 426 99.5 427.5 c 128,-1,46
 96 429 96 429 93.5 431.5 c 128,-1,47
 91 434 91 434 88 439 c 128,-1,48
 85 444 85 444 85 445 c 0,49,50
 67 465 67 465 64.5 471.5 c 128,-1,51
 62 478 62 478 66 504 c 0,52,53
 92 615 92 615 171 637 c 1,54,-1
 179 622 l 2,24,25
EndSplineSet
EndChar
StartChar: quotedblright
Encoding: 8221 8221 339
Width: 396
Flags: W
LayerCount: 2
Fore
SplineSet
45 433 m 1,0,-1
 52 423 l 1,1,-1
 45 433 l 1,0,-1
218 437 m 1,2,3
 294 484 294 484 271 530 c 0,4,5
 269 534 269 534 253.5 548.5 c 128,-1,6
 238 563 238 563 239 574 c 0,7,8
 240 580 240 580 243 584 c 128,-1,9
 246 588 246 588 252 593.5 c 128,-1,10
 258 599 258 599 259 600 c 0,11,12
 261 602 261 602 269 616 c 128,-1,13
 277 630 277 630 284 633 c 0,14,15
 291 637 291 637 313.5 615.5 c 128,-1,16
 336 594 336 594 337 585 c 0,17,18
 344 557 344 557 323 513.5 c 128,-1,19
 302 470 302 470 278 450 c 0,20,21
 268 441 268 441 263 438 c 128,-1,22
 258 435 258 435 248 430 c 128,-1,23
 238 425 238 425 231 426.5 c 128,-1,24
 224 428 224 428 218 437 c 1,2,3
45 437 m 1,25,26
 120 484 120 484 97 530 c 0,27,28
 94 534 94 534 79.5 548.5 c 128,-1,29
 65 563 65 563 66 574 c 0,30,31
 66 580 66 580 68.5 584 c 128,-1,32
 71 588 71 588 77.5 593.5 c 128,-1,33
 84 599 84 599 85 600 c 0,34,35
 87 602 87 602 95.5 616 c 128,-1,36
 104 630 104 630 109 633 c 0,37,38
 117 637 117 637 139.5 615.5 c 128,-1,39
 162 594 162 594 163 585 c 0,40,41
 170 557 170 557 149 513.5 c 128,-1,42
 128 470 128 470 104 450 c 0,43,44
 94 441 94 441 89 438 c 128,-1,45
 84 435 84 435 74.5 430 c 128,-1,46
 65 425 65 425 57.5 426.5 c 128,-1,47
 50 428 50 428 45 437 c 1,25,26
EndSplineSet
EndChar
